<svg width="71" height="71" viewBox="0 0 71 71" fill="none" xmlns="http://www.w3.org/2000/svg">
<path d="M35.5 71C55.0748 71 71 55.0748 71 35.5C71 15.9252 55.0748 0 35.5 0C15.9252 0 0 15.9252 0 35.5C0 55.0748 15.9252 71 35.5 71ZM35.5 3.16561C53.3295 3.16561 67.8344 17.6705 67.8344 35.5C67.8344 53.3295 53.3295 67.8344 35.5 67.8344C17.6705 67.8344 3.16561 53.3295 3.16561 35.5C3.16561 17.6705 17.6705 3.16561 35.5 3.16561Z" fill="#E6E6E6"/>
<path d="M26.7496 32.3097C30.3701 32.3097 33.3043 29.3746 33.3043 25.755C33.3052 22.1345 30.3701 19.1995 26.7496 19.1995C23.1291 19.1995 20.1949 22.1345 20.1949 25.7541C20.1985 29.3729 23.1309 32.3053 26.7496 32.3097ZM26.7496 22.3651C28.6212 22.3651 30.1387 23.8825 30.1387 25.7541C30.1396 27.6266 28.6221 29.1441 26.7496 29.1441C24.878 29.1441 23.3606 27.6266 23.3606 25.7541C23.3623 23.8834 24.8789 22.3677 26.7496 22.3651Z" fill="#534294"/>
<path d="M37.2982 45.6434C37.2982 49.2639 40.2333 52.1981 43.8529 52.1981C47.4734 52.1981 50.4085 49.2639 50.4085 45.6434C50.4085 42.023 47.4734 39.0879 43.8529 39.0879C40.2342 39.0923 37.3026 42.0247 37.2982 45.6434ZM47.2428 45.6434C47.2428 47.5151 45.7254 49.0325 43.8529 49.0325C41.9813 49.0325 40.4638 47.5151 40.4638 45.6434C40.4638 43.7718 41.9813 42.2544 43.8529 42.2535C45.7245 42.2561 47.2402 43.7718 47.2428 45.6434Z" fill="#534294"/>
<path d="M23.4479 53.9795C24.1802 54.4574 25.1615 54.2507 25.6384 53.5185L48.0132 19.2109C48.3232 18.7366 48.3568 18.1333 48.1015 17.6281C47.8454 17.1229 47.3392 16.7925 46.774 16.7625C46.2087 16.7325 45.6699 17.0063 45.3616 17.4815L22.9869 51.7891C22.509 52.5222 22.7157 53.5026 23.4479 53.9795Z" fill="#534294"/>
</svg>
