<svg width="71" height="71" viewBox="0 0 71 71" fill="none" xmlns="http://www.w3.org/2000/svg">
<path d="M23.6667 50.8833H21.3C20.6465 50.8833 20.1167 51.4131 20.1167 52.0666C20.1167 52.7201 20.6465 53.25 21.3 53.25H23.6667C24.3202 53.25 24.85 52.7201 24.85 52.0666C24.85 51.4131 24.3202 50.8833 23.6667 50.8833Z" fill="#534294"/>
<path d="M56.7999 50.8833H28.3999C27.7464 50.8833 27.2166 51.4131 27.2166 52.0666C27.2166 52.7201 27.7464 53.25 28.3999 53.25H56.7999C57.4534 53.25 57.9832 52.7201 57.9832 52.0666C57.9832 51.4131 57.4534 50.8833 56.7999 50.8833Z" fill="#534294"/>
<path d="M23.6667 43.7833H21.3C20.6465 43.7833 20.1167 44.3132 20.1167 44.9667C20.1167 45.6202 20.6465 46.15 21.3 46.15H23.6667C24.3202 46.15 24.85 45.6202 24.85 44.9667C24.85 44.3132 24.3202 43.7833 23.6667 43.7833Z" fill="#534294"/>
<path d="M56.7999 43.7833H28.3999C27.7464 43.7833 27.2166 44.3132 27.2166 44.9667C27.2166 45.6202 27.7464 46.15 28.3999 46.15H56.7999C57.4534 46.15 57.9832 45.6202 57.9832 44.9667C57.9832 44.3132 57.4534 43.7833 56.7999 43.7833Z" fill="#534294"/>
<path d="M23.6667 36.6833H21.3C20.6465 36.6833 20.1167 37.2132 20.1167 37.8667C20.1167 38.5202 20.6465 39.05 21.3 39.05H23.6667C24.3202 39.05 24.85 38.5202 24.85 37.8667C24.85 37.2132 24.3202 36.6833 23.6667 36.6833Z" fill="#534294"/>
<path d="M56.7999 36.6833H28.3999C27.7464 36.6833 27.2166 37.2132 27.2166 37.8667C27.2166 38.5202 27.7464 39.05 28.3999 39.05H56.7999C57.4534 39.05 57.9832 38.5202 57.9832 37.8667C57.9832 37.2132 57.4534 36.6833 56.7999 36.6833Z" fill="#534294"/>
<path d="M23.6667 29.5834H21.3C20.6465 29.5834 20.1167 30.1132 20.1167 30.7667C20.1167 31.4202 20.6465 31.95 21.3 31.95H23.6667C24.3202 31.95 24.85 31.4202 24.85 30.7667C24.85 30.1132 24.3202 29.5834 23.6667 29.5834Z" fill="#534294"/>
<path d="M56.7999 29.5834H28.3999C27.7464 29.5834 27.2166 30.1132 27.2166 30.7667C27.2166 31.4202 27.7464 31.95 28.3999 31.95H56.7999C57.4534 31.95 57.9832 31.4202 57.9832 30.7667C57.9832 30.1132 57.4534 29.5834 56.7999 29.5834Z" fill="#534294"/>
<path d="M23.6667 22.4833H21.3C20.6465 22.4833 20.1167 23.0131 20.1167 23.6666C20.1167 24.3201 20.6465 24.8499 21.3 24.8499H23.6667C24.3202 24.8499 24.85 24.3201 24.85 23.6666C24.85 23.0131 24.3202 22.4833 23.6667 22.4833Z" fill="#534294"/>
<path d="M56.7999 22.4833H28.3999C27.7464 22.4833 27.2166 23.0131 27.2166 23.6666C27.2166 24.3201 27.7464 24.8499 28.3999 24.8499H56.7999C57.4534 24.8499 57.9832 24.3201 57.9832 23.6666C57.9832 23.0131 57.4534 22.4833 56.7999 22.4833Z" fill="#534294"/>
<path d="M65.068 17.6754C65.0621 17.5718 65.0418 17.4694 65.0077 17.3713C64.9947 17.3335 64.9852 17.2968 64.9686 17.2601C64.9111 17.1314 64.8309 17.014 64.732 16.9134L48.1653 0.346717C48.0647 0.24776 47.9473 0.16759 47.8186 0.11005C47.7819 0.0934833 47.7452 0.0840167 47.7085 0.071C47.6096 0.0369792 47.5065 0.0162708 47.402 0.00946667C47.3819 0.0130167 47.3594 0 47.3334 0H14.2001C13.5466 0 13.0167 0.529837 13.0167 1.18333V4.73333H7.10008C6.44659 4.73333 5.91675 5.26317 5.91675 5.91667V69.8167C5.91675 70.4702 6.44659 71 7.10008 71H56.8001C57.4536 71 57.9834 70.4702 57.9834 69.8167V63.9H63.9001C64.5536 63.9 65.0834 63.3702 65.0834 62.7167V17.75C65.0834 17.724 65.0704 17.7015 65.068 17.6754ZM48.5167 4.0399L61.0435 16.5667H48.5167V4.0399ZM55.6167 68.6333H8.28341V7.1H13.0167V62.7167C13.0167 63.3702 13.5466 63.9 14.2001 63.9H55.6167V68.6333ZM62.7167 61.5333H15.3834V2.36667H46.1501V17.75C46.1501 18.4035 46.6799 18.9333 47.3334 18.9333H62.7167V61.5333Z" fill="#E5E5E5"/>
<path d="M28.4 10.6501H21.3C20.6465 10.6501 20.1167 11.18 20.1167 11.8335V18.9335C20.1167 19.587 20.6465 20.1168 21.3 20.1168H28.4C29.0535 20.1168 29.5834 19.587 29.5834 18.9335V11.8335C29.5834 11.18 29.0535 10.6501 28.4 10.6501ZM27.2167 17.7501H22.4834V13.0168H27.2167V17.7501Z" fill="#534294"/>
</svg>
