<svg width="70" height="70" viewBox="0 0 70 70" fill="none" xmlns="http://www.w3.org/2000/svg">
<g clip-path="url(#clip0)">
<path d="M69.5111 40.5842C69.3647 39.9682 68.8143 39.5334 68.181 39.5334C66.3194 39.5334 62.9793 38.6064 60.1547 37.3788V31.4461C60.1547 29.1845 58.3148 27.3446 56.0533 27.3446H53.319V2.73516C53.319 1.22746 52.0924 0.000854492 50.5847 0.000854492H9.57007C8.06237 0.000854492 6.83576 1.22746 6.83576 2.73516V19.1417H2.73431C1.22661 19.1417 0 20.3683 0 21.876V61.5236C0 63.7851 1.83991 65.625 4.10146 65.625H48.5086C50.1168 67.1112 52.0226 68.5297 54.2821 69.8196C54.4921 69.9395 54.726 69.9994 54.9599 69.9994C55.1939 69.9994 55.4277 69.9393 55.6378 69.8196C65.0992 64.4185 68.3738 56.7655 69.4548 51.2964C70.6233 45.3846 69.557 40.7776 69.5111 40.5842ZM9.57007 2.73516H50.5847V27.3446H26.9016L24.61 21.6157C24.0088 20.1128 22.6198 19.1415 21.0714 19.1415H9.57007V2.73516ZM2.73431 61.5236V60.1563H9.84295C10.598 60.1563 11.2101 59.5442 11.2101 58.7891C11.2101 58.034 10.598 57.422 9.84295 57.422H2.73431V21.876H21.0714C21.5534 21.876 21.9209 22.2552 22.0713 22.6312L24.7068 29.2195C24.9144 29.7386 25.4171 30.0789 25.9762 30.0789H56.0535C56.8074 30.0789 57.4207 30.6922 57.4207 31.4461V35.9783C56.8146 35.6032 56.2995 35.2223 55.9213 34.8482C55.3887 34.3215 54.5315 34.3215 53.9987 34.8482C51.7564 37.0655 44.777 39.5333 41.7388 39.5333C41.1056 39.5333 40.5552 39.9681 40.4087 40.5841C40.3627 40.7774 39.2965 45.3845 40.4651 51.2963C41.1331 54.676 42.6399 58.8897 45.9257 62.8907H4.10146C3.34761 62.8907 2.73431 62.2774 2.73431 61.5236ZM66.7723 50.7661C65.4075 57.6704 61.4352 63.1443 54.9598 67.0473C48.5203 63.1656 44.5552 57.7282 43.1691 50.8747C42.3935 47.0394 42.6735 43.7601 42.8977 42.1961C46.4251 41.7992 51.9962 39.8074 54.9599 37.6064C57.9242 39.808 63.4971 41.8001 67.0245 42.1964C67.2479 43.7398 67.5252 46.957 66.7723 50.7661Z" fill="#E5E5E5"/>
<path d="M14.5605 8.20379H45.5947C46.3498 8.20379 46.9619 7.59171 46.9619 6.83664C46.9619 6.08156 46.3498 5.46948 45.5947 5.46948H14.5605C13.8054 5.46948 13.1934 6.08156 13.1934 6.83664C13.1934 7.59171 13.8054 8.20379 14.5605 8.20379Z" fill="#534294"/>
<path d="M46.9619 12.3051C46.9619 11.5501 46.3498 10.938 45.5947 10.938H14.5605C13.8054 10.938 13.1934 11.5501 13.1934 12.3051C13.1934 13.0602 13.8054 13.6723 14.5605 13.6723H45.5947C46.3497 13.6723 46.9619 13.0602 46.9619 12.3051Z" fill="#534294"/>
<path d="M45.5947 16.4066H30.0775C29.3224 16.4066 28.7103 17.0187 28.7103 17.7738C28.7103 18.5288 29.3224 19.1409 30.0775 19.1409H45.5947C46.3498 19.1409 46.9618 18.5288 46.9618 17.7738C46.9618 17.0187 46.3496 16.4066 45.5947 16.4066Z" fill="#534294"/>
<path d="M45.5945 21.8752H37.5283C36.7732 21.8752 36.1611 22.4873 36.1611 23.2424C36.1611 23.9975 36.7732 24.6096 37.5283 24.6096H45.5945C46.3496 24.6096 46.9616 23.9975 46.9616 23.2424C46.9616 22.4873 46.3494 21.8752 45.5945 21.8752Z" fill="#534294"/>
<path d="M60.0669 44.7883C58.9715 44.7883 57.9416 45.215 57.1669 45.9897L53.3936 49.763L52.7524 49.1218C51.9778 48.3472 50.9479 47.9206 49.8524 47.9206C48.7569 47.9206 47.727 48.3473 46.9525 49.1218C46.1779 49.8964 45.7512 50.9263 45.7512 52.0218C45.7512 53.1173 46.1779 54.1472 46.9524 54.9218L50.4936 58.463C51.2931 59.2625 52.3434 59.6621 53.3935 59.6621C54.4436 59.6621 55.494 59.2624 56.2935 58.463L62.9668 51.7897C64.5658 50.1906 64.5658 47.5887 62.9668 45.9898C62.1925 45.215 61.1626 44.7883 60.0669 44.7883ZM61.0335 49.856L54.3603 56.5293C53.8274 57.0622 52.9602 57.0621 52.4273 56.5293L48.8861 52.9881C48.6278 52.73 48.4858 52.3867 48.4858 52.0217C48.4858 51.6565 48.628 51.3133 48.8861 51.0552C49.1442 50.797 49.4875 50.6549 49.8525 50.6549C50.2176 50.6549 50.5609 50.7971 50.819 51.0552L52.4269 52.6631C52.6832 52.9195 53.031 53.0636 53.3936 53.0636C53.7562 53.0636 54.104 52.9195 54.3603 52.6631L59.1004 47.9231C59.3585 47.6648 59.7018 47.5228 60.0668 47.5228C60.432 47.5228 60.7751 47.665 61.0333 47.9231C61.5664 48.456 61.5664 49.323 61.0335 49.856Z" fill="#534294"/>
<path d="M15.9949 57.4218C15.2398 57.4218 14.6277 58.0338 14.6277 58.7889C14.6277 59.544 15.2398 60.1561 15.9949 60.1561H15.9958C16.7509 60.1561 17.3626 59.544 17.3626 58.7889C17.3626 58.0338 16.75 57.4218 15.9949 57.4218Z" fill="#E5E5E5"/>
</g>
<defs>
<clipPath id="clip0">
<rect width="70" height="70" fill="white"/>
</clipPath>
</defs>
</svg>
