<svg width="70" height="70" viewBox="0 0 70 70" fill="none" xmlns="http://www.w3.org/2000/svg">
<path d="M70 52.5V19.8333C69.9962 16.6133 67.3867 14.0038 64.1667 14H51.3333V0H49V26.8333C49 27.4776 49.5224 28 50.1667 28H54.1217L35 39.473L15.8783 28H19.8333C20.4776 28 21 27.4776 21 26.8333V0H18.6667V14H5.83333C2.61333 14.0038 0.00379167 16.6133 0 19.8333V52.5C0.00379167 55.72 2.61333 58.3295 5.83333 58.3333H24.9457L22.6123 63H1.16667C0.522375 63 0 63.5224 0 64.1667C0 70 6.14717 70 8.16667 70H61.8333C63.8528 70 70 70 70 64.1667C70 63.5224 69.4776 63 68.8333 63H47.3877L45.0543 58.3333H64.1667C67.3867 58.3295 69.9962 55.72 70 52.5ZM18.6667 25.6667H11.6667C11.0224 25.6668 10.5001 26.1893 10.5004 26.8338C10.5006 27.2431 10.7151 27.6223 11.066 27.8333L34.3993 41.8333C34.769 42.0554 35.2313 42.0554 35.601 41.8333L58.9343 27.8333C59.4864 27.5012 59.6649 26.7845 59.333 26.2322C59.1221 25.8815 58.7428 25.6668 58.3335 25.6667H51.3335V21H63.0001V49H7V21H18.6667V25.6667ZM67.5255 65.3333C67.1183 66.7695 65.7102 67.6667 61.8333 67.6667H8.16667C4.28983 67.6667 2.88167 66.7695 2.4745 65.3333H67.5255ZM25.221 63L27.5543 58.3333H42.4457L44.779 63H25.221ZM5.83333 56C3.90031 56 2.33333 54.433 2.33333 52.5V19.8333C2.33333 17.9003 3.90031 16.3333 5.83333 16.3333H18.6667V18.6667H5.83333C5.18904 18.6667 4.66667 19.189 4.66667 19.8333V50.1667C4.66667 50.811 5.18904 51.3333 5.83333 51.3333H64.1667C64.811 51.3333 65.3333 50.811 65.3333 50.1667V19.8333C65.3333 19.189 64.811 18.6667 64.1667 18.6667H51.3333V16.3333H64.1667C66.0997 16.3333 67.6667 17.9003 67.6667 19.8333V52.5C67.6667 54.433 66.0997 56 64.1667 56H5.83333Z" fill="#E5E5E5"/>
<path d="M40.0902 17.5536C41.9103 16.1215 43.0302 13.9786 43.1667 11.6666C43.1667 3.95259 38.7252 2.33325 35 2.33325C31.2748 2.33325 26.8333 3.95259 26.8333 11.6666C26.9688 13.9798 28.0888 16.1241 29.9098 17.5571C26.8173 17.9381 24.4955 20.5672 24.5 23.6833V27.9999H26.8333V23.6833C26.8333 21.557 28.5571 19.8333 30.6833 19.8333H39.3167C41.4429 19.8333 43.1667 21.557 43.1667 23.6833V27.9999H45.5V23.6833C45.5063 20.5659 43.184 17.9348 40.0902 17.5536ZM29.2273 10.4311C29.5435 6.52159 31.3833 4.66659 35 4.66659C38.311 4.66659 40.1333 6.23225 40.6548 9.49892L36.7675 7.16559C36.2149 6.83411 35.4983 7.01334 35.1668 7.5659C35.1231 7.63881 35.0875 7.71611 35.0607 7.79675C34.4703 9.56775 31.283 10.2374 29.2273 10.4311ZM35 17.4999C32.3979 17.0567 30.2333 15.2523 29.3288 12.7726V12.7691C31.3262 12.6046 34.9288 12.0003 36.6088 9.78942L40.7785 12.2908C40.3107 15.1514 36.7908 17.4999 35 17.4999Z" fill="#534294"/>
<path d="M58.3332 42.0001V39.6667H55.9998V42.0001H53.6665V44.3334H55.9998V46.6667H58.3332V44.3334H60.6665V42.0001H58.3332Z" fill="#534294"/>
</svg>
