<svg width="46" height="46" viewBox="0 0 46 46" fill="none" xmlns="http://www.w3.org/2000/svg">
<path fill-rule="evenodd" clip-rule="evenodd" d="M23.9566 2.86594C23.4746 2.83035 22.9915 2.81253 22.5082 2.8125V0C23.0609 0.000269515 23.6135 0.0209085 24.1647 0.061875L23.9566 2.86594ZM29.5929 4.13156C28.6913 3.78367 27.7654 3.5026 26.8226 3.29062L27.4385 0.545625C28.5157 0.7875 29.576 1.10812 30.6054 1.5075L29.5929 4.13156ZM33.446 6.12844C33.0439 5.86026 32.632 5.60697 32.2113 5.36906L33.5979 2.92219C34.5595 3.46707 35.4798 4.08185 36.3513 4.76156L34.6216 6.98063C34.2403 6.68315 33.8482 6.39983 33.446 6.13125V6.12844ZM38.6041 11.1628C38.0478 10.3724 37.4339 9.62415 36.7676 8.92406L38.8038 6.98344C39.5632 7.785 40.2663 8.64281 40.9047 9.54281L38.6041 11.1628ZM40.6966 14.9653C40.512 14.5194 40.3113 14.0804 40.0947 13.6491L42.6063 12.3834C43.103 13.3709 43.526 14.3937 43.8719 15.4434L41.2001 16.3237C41.0489 15.8649 40.881 15.4118 40.6966 14.9653ZM42.1872 22.0163C42.1645 21.0497 42.0705 20.0862 41.906 19.1334L44.6763 18.6553C44.8647 19.7409 44.9744 20.8434 45.0026 21.9459L42.1901 22.0163H42.1872ZM41.8188 26.3419C41.9116 25.8638 41.9876 25.3884 42.0466 24.9075L44.8394 25.2534C44.7043 26.3507 44.4881 27.4365 44.1926 28.5019L41.4813 27.7509C41.6107 27.2869 41.7232 26.8172 41.8188 26.3419ZM39.1413 33.0328C39.6588 32.2172 40.1144 31.3622 40.5082 30.4791L43.0788 31.6181C42.6288 32.6306 42.1085 33.6037 41.5179 34.5375L39.1413 33.0328ZM36.4301 36.4219C36.7732 36.0788 37.1022 35.7244 37.4144 35.3587L39.5463 37.1953C39.1853 37.6139 38.8091 38.0192 38.4185 38.4103L36.4301 36.4219Z" fill="#D0D0D0"/>
<path fill-rule="evenodd" clip-rule="evenodd" d="M22.5088 2.8125C19.2713 2.81273 16.0838 3.61138 13.2286 5.1377C10.3734 6.66402 7.93876 8.87091 6.1402 11.5629C4.34163 14.2549 3.23471 17.3489 2.91746 20.5708C2.60021 23.7927 3.08243 27.0432 4.32141 30.0343C5.56039 33.0253 7.51788 35.6647 10.0205 37.7186C12.5231 39.7725 15.4937 41.1775 18.669 41.8091C21.8443 42.4408 25.1264 42.2797 28.2245 41.34C31.3227 40.4003 34.1413 38.711 36.4307 36.4219L38.4191 38.4103C35.8027 41.0281 32.5811 42.9602 29.0395 44.0353C25.498 45.1104 21.746 45.2954 18.1158 44.5739C14.4857 43.8523 11.0896 42.2465 8.22845 39.8988C5.36728 37.551 3.12935 34.5338 1.71298 31.1144C0.296599 27.695 -0.254503 23.979 0.1085 20.2958C0.471503 16.6125 1.7374 13.0756 3.79404 9.99849C5.85067 6.92138 8.63454 4.39906 11.899 2.65501C15.1634 0.910955 18.8077 -0.000980809 22.5088 7.91601e-07V2.8125Z" fill="#D0D0D0"/>
<path fill-rule="evenodd" clip-rule="evenodd" d="M21.1019 8.4375C21.4749 8.4375 21.8326 8.58566 22.0963 8.84938C22.36 9.1131 22.5082 9.47079 22.5082 9.84375V24.4969L31.6432 29.7169C31.9576 29.9065 32.1854 30.2117 32.2778 30.5671C32.3702 30.9224 32.3199 31.2999 32.1378 31.6187C31.9556 31.9375 31.6559 32.1724 31.3028 32.2732C30.9497 32.374 30.5712 32.3327 30.2482 32.1581L20.4044 26.5331C20.1892 26.4102 20.0103 26.2325 19.8858 26.0182C19.7614 25.8038 19.6958 25.5604 19.6957 25.3125V9.84375C19.6957 9.47079 19.8438 9.1131 20.1076 8.84938C20.3713 8.58566 20.729 8.4375 21.1019 8.4375Z" fill="#B3A7E0"/>
</svg>
