<svg width="14" height="14" viewBox="0 0 14 14" fill="none" xmlns="http://www.w3.org/2000/svg">
<path d="M2.20001 0.73083L7.00001 5.53083L11.8 0.745376C11.8945 0.649215 12.0079 0.57371 12.1331 0.523637C12.2583 0.473563 12.3925 0.45001 12.5273 0.454467C12.7917 0.471578 13.0409 0.584345 13.2282 0.771709C13.4156 0.959074 13.5283 1.20823 13.5455 1.47265C13.5468 1.60266 13.5217 1.73158 13.4717 1.8516C13.4217 1.97161 13.3478 2.08022 13.2546 2.17083L8.44001 6.99992L13.2546 11.829C13.4436 12.0123 13.5484 12.2654 13.5455 12.5272C13.5283 12.7916 13.4156 13.0408 13.2282 13.2281C13.0409 13.4155 12.7917 13.5283 12.5273 13.5454C12.3925 13.5498 12.2583 13.5263 12.1331 13.4762C12.0079 13.4261 11.8945 13.3506 11.8 13.2545L7.00001 8.46901L2.21455 13.2545C2.12005 13.3506 2.00661 13.4261 1.88143 13.4762C1.75625 13.5263 1.62203 13.5498 1.48728 13.5454C1.21793 13.5314 0.963316 13.418 0.772597 13.2273C0.581878 13.0366 0.468572 12.782 0.454552 12.5126C0.453236 12.3826 0.478342 12.2537 0.528349 12.1337C0.578355 12.0137 0.652219 11.9051 0.745461 11.8145L5.56001 6.99992L0.730916 2.17083C0.640299 2.079 0.569124 1.96984 0.52164 1.84988C0.474156 1.72992 0.451339 1.60162 0.454552 1.47265C0.471664 1.20823 0.58443 0.959074 0.771795 0.771709C0.959159 0.584345 1.20831 0.471578 1.47273 0.454467C1.60644 0.448116 1.74002 0.469378 1.86514 0.516925C1.99027 0.564473 2.10426 0.637288 2.20001 0.73083Z" fill="white"/>
</svg>
