<svg width="139" height="41" viewBox="0 0 139 41" fill="none" xmlns="http://www.w3.org/2000/svg">
<path fill-rule="evenodd" clip-rule="evenodd" d="M133.85 41H5.15004C2.31164 41 0 38.6893 0 35.875V5.125C0 2.3005 2.31164 0 5.15004 0H133.85C136.686 0 139 2.3005 139 5.125V35.875C139 38.6893 136.686 41 133.85 41Z" fill="#FAFAFA"/>
<path fill-rule="evenodd" clip-rule="evenodd" d="M133.85 0.820511C136.231 0.820511 138.179 2.75549 138.179 5.125V35.875C138.179 38.2445 136.243 40.1795 133.85 40.1795H5.15004C2.76936 40.1795 0.820836 38.2445 0.820836 35.875V5.125C0.820836 2.75549 2.75658 0.820511 5.15004 0.820511H133.85ZM133.85 0H5.15004C2.31164 0 0 2.31072 0 5.125V35.875C0 38.6995 2.31164 41 5.15004 41H133.85C136.686 41 139 38.6995 139 35.875V5.125C139 2.31072 136.686 0 133.85 0Z" fill="#A6A6A6"/>
<path d="M73.2245 13.5626C72.2963 13.5626 71.5138 13.2379 70.895 12.5989C70.2813 11.9778 69.9386 11.1215 69.954 10.2473C69.954 9.31431 70.2711 8.52447 70.895 7.89822C71.5113 7.2592 72.2937 6.93457 73.222 6.93457C74.14 6.93457 74.9225 7.2592 75.5515 7.89822C76.1754 8.54492 76.4925 9.33476 76.4925 10.2473C76.4823 11.1828 76.1652 11.9727 75.5515 12.5963C74.9352 13.2405 74.1528 13.5626 73.2245 13.5626ZM45.6051 13.5626C44.6973 13.5626 43.9097 13.243 43.2653 12.6117C42.626 11.9829 42.3013 11.1879 42.3013 10.2498C42.3013 9.31175 42.626 8.5168 43.2653 7.888C43.8969 7.25664 44.6845 6.93713 45.6051 6.93713C46.0551 6.93713 46.4924 7.02659 46.9118 7.20807C47.3235 7.38445 47.6584 7.62472 47.9065 7.91867L47.9678 7.9928L47.2749 8.67272L47.2033 8.58837C46.812 8.12316 46.2878 7.89567 45.5948 7.89567C44.976 7.89567 44.4365 8.11549 43.9915 8.55003C43.544 8.98712 43.3164 9.55969 43.3164 10.2524C43.3164 10.9451 43.544 11.5177 43.9915 11.9548C44.4365 12.3893 44.976 12.6091 45.5948 12.6091C46.2546 12.6091 46.8095 12.3893 47.2416 11.9548C47.4973 11.6992 47.6559 11.3413 47.7121 10.8889H45.49V9.93288H48.6659L48.6787 10.0198C48.7017 10.1808 48.7248 10.347 48.7248 10.5003C48.7248 11.3822 48.4588 12.0954 47.932 12.6219C47.3337 13.2456 46.5512 13.5626 45.6051 13.5626ZM82.3279 13.4271H81.3485L78.349 8.62927L78.3746 9.49323V13.4245H77.3952V7.0726H78.5127L78.5433 7.12117L81.3638 11.6404L81.3383 10.779V7.0726H82.3279V13.4271ZM65.8651 13.4271H64.873V8.02858H63.152V7.0726H67.5835V8.02858H65.8626V13.4271H65.8651ZM62.344 13.4271H61.3544V7.0726H62.344V13.4271ZM56.7822 13.4271H55.7926V8.02858H54.0717V7.0726H58.5032V8.02858H56.7822V13.4271ZM53.4452 13.4169H49.6504V7.0726H53.4452V8.02858H50.6426V9.77185H53.1716V10.7176H50.6426V12.4609H53.4452V13.4169ZM71.6212 11.942C72.0636 12.3842 72.6006 12.6066 73.2245 12.6066C73.8664 12.6066 74.3906 12.3893 74.8278 11.942C75.2626 11.5074 75.4825 10.9374 75.4825 10.2498C75.4825 9.56225 75.2626 8.98968 74.8304 8.5577C74.388 8.11549 73.8485 7.89311 73.2271 7.89311C72.5852 7.89311 72.061 8.11038 71.6263 8.5577C71.1916 8.99224 70.9717 9.56225 70.9717 10.2498C70.9717 10.9374 71.1891 11.51 71.6212 11.942Z" fill="#1B1B1B"/>
<path fill-rule="evenodd" clip-rule="evenodd" d="M69.8644 22.2998C67.4479 22.2998 65.4891 24.1325 65.4891 26.6605C65.4891 29.1655 67.4607 31.0212 69.8644 31.0212C72.2809 31.0212 74.2396 29.1757 74.2396 26.6605C74.2396 24.1325 72.2809 22.2998 69.8644 22.2998ZM69.8644 29.2933C68.5423 29.2933 67.4044 28.1993 67.4044 26.6503C67.4044 25.0783 68.5449 24.0073 69.8644 24.0073C71.1864 24.0073 72.3243 25.0783 72.3243 26.6503C72.3269 28.2095 71.1864 29.2933 69.8644 29.2933ZM60.3186 22.2998C57.9022 22.2998 55.9434 24.1325 55.9434 26.6605C55.9434 29.1655 57.9149 31.0212 60.3186 31.0212C62.7351 31.0212 64.6939 29.1757 64.6939 26.6605C64.6939 24.1325 62.7326 22.2998 60.3186 22.2998ZM60.3186 29.2933C58.9966 29.2933 57.8587 28.1993 57.8587 26.6503C57.8587 25.0783 58.9992 24.0073 60.3186 24.0073C61.6407 24.0073 62.7786 25.0783 62.7786 26.6503C62.7786 28.2095 61.6407 29.2933 60.3186 29.2933ZM48.9599 23.6315V25.477H53.3914C53.2559 26.5122 52.9132 27.2765 52.389 27.8005C51.7395 28.4498 50.7371 29.1553 48.9701 29.1553C46.2468 29.1553 44.1167 26.957 44.1167 24.2347C44.1167 21.5125 46.2468 19.3142 48.9701 19.3142C50.4405 19.3142 51.5119 19.8945 52.3072 20.6357L53.6164 19.327C52.5117 18.2688 51.0414 17.4585 48.9804 17.4585C45.2444 17.4585 42.1094 20.5003 42.1094 24.2245C42.1094 27.959 45.2419 30.9905 48.9804 30.9905C50.9979 30.9905 52.5117 30.3311 53.7085 29.0888C54.9282 27.8695 55.3144 26.1493 55.3144 24.7613C55.3144 24.3293 55.2811 23.9408 55.2121 23.6111H48.9573C48.9599 23.6085 48.9599 23.6315 48.9599 23.6315ZM95.4203 25.068C95.0546 24.089 93.9499 22.2895 91.6843 22.2895C89.4391 22.2895 87.5724 24.0558 87.5724 26.6503C87.5724 29.099 89.4187 31.011 91.9017 31.011C93.8962 31.011 95.0571 29.7917 95.5353 29.076L94.0548 28.0842C93.5638 28.8127 92.881 29.2907 91.9119 29.2907C90.9325 29.2907 90.2472 28.846 89.792 27.9692L95.6248 25.5537C95.6248 25.5563 95.4203 25.068 95.4203 25.068ZM89.4724 26.525C89.4264 24.8405 90.7816 23.9842 91.7508 23.9842C92.5154 23.9842 93.1521 24.36 93.3694 24.907L89.4724 26.525ZM84.734 30.7503H86.6493V17.939H84.734V30.7503ZM81.5888 23.2685H81.5197C81.0876 22.7548 80.2667 22.2895 79.2183 22.2895C77.0422 22.2895 75.0374 24.2041 75.0374 26.6631C75.0374 29.1118 77.032 31.0033 79.2183 31.0033C80.254 31.0033 81.0876 30.5356 81.5197 30.0116H81.5888V30.6378C81.5888 32.3018 80.6989 33.199 79.2644 33.199C78.0906 33.199 77.3619 32.3555 77.0652 31.65L75.4006 32.3453C75.8787 33.4955 77.1547 34.9193 79.2618 34.9193C81.507 34.9193 83.4095 33.5978 83.4095 30.3745V22.5503H81.599V23.2685C81.6016 23.2685 81.5888 23.2685 81.5888 23.2685ZM79.3897 29.2933C78.0676 29.2933 76.9629 28.189 76.9629 26.6631C76.9629 25.1243 78.0676 24.0098 79.3897 24.0098C80.6989 24.0098 81.7141 25.1371 81.7141 26.6631C81.7269 28.189 80.7015 29.2933 79.3897 29.2933ZM104.388 17.939H99.8083V30.7503H101.724V25.8988H104.391C106.51 25.8988 108.595 24.3626 108.595 21.924C108.595 19.4855 106.518 17.939 104.388 17.939ZM104.444 24.1095H101.721V19.713H104.444C105.879 19.713 106.689 20.8965 106.689 21.9112C106.689 22.9158 105.869 24.1095 104.444 24.1095ZM116.271 22.2768C114.88 22.2768 113.445 22.8928 112.852 24.2347L114.55 24.9402C114.916 24.2347 115.586 23.9945 116.294 23.9945C117.286 23.9945 118.289 24.5875 118.312 25.6457V25.7812C117.969 25.5869 117.217 25.2904 116.317 25.2904C114.484 25.2904 112.625 26.2924 112.625 28.1712C112.625 29.8914 114.128 30.9957 115.803 30.9957C117.089 30.9957 117.798 30.4154 118.24 29.7432H118.309V30.7349H120.155V25.8272C120.155 23.542 118.457 22.2768 116.271 22.2768ZM116.031 29.2933C115.404 29.2933 114.527 28.9866 114.527 28.1993C114.527 27.2075 115.622 26.8318 116.555 26.8318C117.399 26.8318 117.798 27.0132 118.299 27.2637C118.161 28.414 117.189 29.2831 116.031 29.2933ZM126.891 22.5503L124.692 28.1073H124.623L122.344 22.5503H120.283L123.702 30.3183L121.753 34.6356H123.748L129.008 22.5503H126.891ZM109.651 30.7503H111.566V17.939H109.651V30.7503Z" fill="#1B1B1B"/>
<path fill-rule="evenodd" clip-rule="evenodd" d="M10.6999 7.72185C10.4033 8.04136 10.2319 8.52958 10.2319 9.16861V31.8336C10.2319 32.4727 10.4033 32.9609 10.7101 33.2676L10.7894 33.3366L23.4932 20.6379V20.3541L10.7792 7.65283L10.6999 7.72185Z" fill="url(#paint0_linear)"/>
<path fill-rule="evenodd" clip-rule="evenodd" d="M27.7191 24.8837L23.4819 20.6482V20.3517L27.7191 16.1162L27.8111 16.1724L32.8231 19.0199C34.2577 19.8277 34.2577 21.162 32.8231 21.9799L27.8111 24.8274L27.7191 24.8837Z" fill="url(#paint1_linear)"/>
<path fill-rule="evenodd" clip-rule="evenodd" d="M27.8105 24.8275L23.4813 20.5L10.6982 33.278C11.1662 33.779 11.9512 33.8352 12.8283 33.347L27.8105 24.8275Z" fill="url(#paint2_linear)"/>
<path fill-rule="evenodd" clip-rule="evenodd" d="M27.8105 16.1725L12.8283 7.66577C11.9512 7.16477 11.1636 7.23379 10.6982 7.73479L23.4813 20.5L27.8105 16.1725Z" fill="url(#paint3_linear)"/>
<path opacity="0.2" fill-rule="evenodd" clip-rule="evenodd" d="M27.7199 24.7354L12.84 33.1858C12.009 33.6638 11.2674 33.6306 10.7892 33.1961L10.71 33.2753L10.7892 33.3443C11.2674 33.7763 12.009 33.8121 12.84 33.3341L27.8222 24.8274L27.7199 24.7354Z" fill="black"/>
<path opacity="0.12" fill-rule="evenodd" clip-rule="evenodd" d="M32.8226 21.8317L27.7058 24.7355L27.7979 24.8275L32.8098 21.98C33.5284 21.571 33.8813 21.0342 33.8813 20.5C33.8378 20.9908 33.4721 21.456 32.8226 21.8317Z" fill="black"/>
<path opacity="0.25" fill-rule="evenodd" clip-rule="evenodd" d="M12.83 7.8141L32.8241 19.1683C33.4736 19.5339 33.8393 20.0119 33.8955 20.5001C33.8955 19.9658 33.5427 19.4291 32.8241 19.0201L12.83 7.66584C11.3954 6.84533 10.2319 7.53037 10.2319 9.16883V9.31709C10.2319 7.67607 11.3954 7.00381 12.83 7.8141Z" fill="white"/>
<defs>
<linearGradient id="paint0_linear" x1="22.3537" y1="8.92407" x2="2.00546" y2="14.348" gradientUnits="userSpaceOnUse">
<stop stop-color="#00A0FF"/>
<stop offset="0.00657" stop-color="#00A1FF"/>
<stop offset="0.2601" stop-color="#00BEFF"/>
<stop offset="0.5122" stop-color="#00D2FF"/>
<stop offset="0.7604" stop-color="#00DFFF"/>
<stop offset="1" stop-color="#00E3FF"/>
</linearGradient>
<linearGradient id="paint1_linear" x1="34.6939" y1="20.5" x2="9.88226" y2="20.5" gradientUnits="userSpaceOnUse">
<stop stop-color="#FFE000"/>
<stop offset="0.4087" stop-color="#FFBD00"/>
<stop offset="0.7754" stop-color="#FFA500"/>
<stop offset="1" stop-color="#FF9C00"/>
</linearGradient>
<linearGradient id="paint2_linear" x1="25.4564" y1="22.8548" x2="9.12972" y2="50.3449" gradientUnits="userSpaceOnUse">
<stop stop-color="#FF3A44"/>
<stop offset="1" stop-color="#C31162"/>
</linearGradient>
<linearGradient id="paint3_linear" x1="7.47933" y1="0.183255" x2="14.7633" y2="12.4608" gradientUnits="userSpaceOnUse">
<stop stop-color="#32A071"/>
<stop offset="0.0685" stop-color="#2DA771"/>
<stop offset="0.4762" stop-color="#15CF74"/>
<stop offset="0.8009" stop-color="#06E775"/>
<stop offset="1" stop-color="#00F076"/>
</linearGradient>
</defs>
</svg>
