<svg width="16" height="16" viewBox="0 0 16 16" fill="none" xmlns="http://www.w3.org/2000/svg">
<path fill-rule="evenodd" clip-rule="evenodd" d="M8.14592 11.3539C8.09935 11.3075 8.06241 11.2523 8.0372 11.1915C8.012 11.1308 7.99902 11.0657 7.99902 10.9999C7.99902 10.9341 8.012 10.869 8.0372 10.8083C8.06241 10.7475 8.09935 10.6923 8.14592 10.6459L10.7929 7.9999L8.14592 5.3539C8.05203 5.26001 7.99929 5.13268 7.99929 4.9999C7.99929 4.86712 8.05203 4.73979 8.14592 4.6459C8.2398 4.55201 8.36714 4.49927 8.49992 4.49927C8.63269 4.49927 8.76003 4.55201 8.85392 4.6459L11.8539 7.6459C11.9005 7.69234 11.9374 7.74752 11.9626 7.80827C11.9878 7.86901 12.0008 7.93413 12.0008 7.9999C12.0008 8.06567 11.9878 8.13079 11.9626 8.19153C11.9374 8.25228 11.9005 8.30745 11.8539 8.3539L8.85392 11.3539C8.80747 11.4005 8.7523 11.4374 8.69155 11.4626C8.63081 11.4878 8.56568 11.5008 8.49992 11.5008C8.43415 11.5008 8.36903 11.4878 8.30828 11.4626C8.24754 11.4374 8.19236 11.4005 8.14592 11.3539Z" fill="white"/>
<path fill-rule="evenodd" clip-rule="evenodd" d="M1 8C1 7.86739 1.05268 7.74021 1.14645 7.64645C1.24021 7.55268 1.36739 7.5 1.5 7.5H10.5C10.6326 7.5 10.7598 7.55268 10.8536 7.64645C10.9473 7.74021 11 7.86739 11 8C11 8.13261 10.9473 8.25979 10.8536 8.35355C10.7598 8.44732 10.6326 8.5 10.5 8.5H1.5C1.36739 8.5 1.24021 8.44732 1.14645 8.35355C1.05268 8.25979 1 8.13261 1 8Z" fill="white"/>
<path fill-rule="evenodd" clip-rule="evenodd" d="M13.5 14.5C13.8978 14.5 14.2794 14.342 14.5607 14.0607C14.842 13.7794 15 13.3978 15 13V3C15 2.60218 14.842 2.22064 14.5607 1.93934C14.2794 1.65804 13.8978 1.5 13.5 1.5H5.5C5.10218 1.5 4.72064 1.65804 4.43934 1.93934C4.15804 2.22064 4 2.60218 4 3V4.5C4 4.63261 4.05268 4.75979 4.14645 4.85355C4.24021 4.94732 4.36739 5 4.5 5C4.63261 5 4.75979 4.94732 4.85355 4.85355C4.94732 4.75979 5 4.63261 5 4.5V3C5 2.86739 5.05268 2.74021 5.14645 2.64645C5.24021 2.55268 5.36739 2.5 5.5 2.5H13.5C13.6326 2.5 13.7598 2.55268 13.8536 2.64645C13.9473 2.74021 14 2.86739 14 3V13C14 13.1326 13.9473 13.2598 13.8536 13.3536C13.7598 13.4473 13.6326 13.5 13.5 13.5H5.5C5.36739 13.5 5.24021 13.4473 5.14645 13.3536C5.05268 13.2598 5 13.1326 5 13V11.5C5 11.3674 4.94732 11.2402 4.85355 11.1464C4.75979 11.0527 4.63261 11 4.5 11C4.36739 11 4.24021 11.0527 4.14645 11.1464C4.05268 11.2402 4 11.3674 4 11.5V13C4 13.3978 4.15804 13.7794 4.43934 14.0607C4.72064 14.342 5.10218 14.5 5.5 14.5H13.5Z" fill="white"/>
</svg>
