<svg width="29" height="30" viewBox="0 0 29 30" fill="none" xmlns="http://www.w3.org/2000/svg">
<path fill-rule="evenodd" clip-rule="evenodd" d="M29 15C29 18.8456 27.4723 22.5338 24.753 25.253C22.0338 27.9723 18.3456 29.5 14.5 29.5C10.6544 29.5 6.96623 27.9723 4.24695 25.253C1.52767 22.5338 0 18.8456 0 15C0 11.1544 1.52767 7.46623 4.24695 4.74695C6.96623 2.02767 10.6544 0.5 14.5 0.5C18.3456 0.5 22.0338 2.02767 24.753 4.74695C27.4723 7.46623 29 11.1544 29 15ZM15.4062 7.75C15.4062 7.50965 15.3108 7.27914 15.1408 7.10918C14.9709 6.93923 14.7404 6.84375 14.5 6.84375C14.2596 6.84375 14.0291 6.93923 13.8592 7.10918C13.6892 7.27914 13.5938 7.50965 13.5938 7.75V14.0938H7.25C7.00965 14.0938 6.77914 14.1892 6.60918 14.3592C6.43923 14.5291 6.34375 14.7596 6.34375 15C6.34375 15.2404 6.43923 15.4709 6.60918 15.6408C6.77914 15.8108 7.00965 15.9062 7.25 15.9062H13.5938V22.25C13.5938 22.4904 13.6892 22.7209 13.8592 22.8908C14.0291 23.0608 14.2596 23.1562 14.5 23.1562C14.7404 23.1562 14.9709 23.0608 15.1408 22.8908C15.3108 22.7209 15.4062 22.4904 15.4062 22.25V15.9062H21.75C21.9904 15.9062 22.2209 15.8108 22.3908 15.6408C22.5608 15.4709 22.6562 15.2404 22.6562 15C22.6562 14.7596 22.5608 14.5291 22.3908 14.3592C22.2209 14.1892 21.9904 14.0938 21.75 14.0938H15.4062V7.75Z" fill="#534294"/>
</svg>
