<svg width="67" height="67" viewBox="0 0 67 67" fill="none" xmlns="http://www.w3.org/2000/svg">
<path d="M25.6833 22.3333H23.45V24.5666H25.6833V22.3333Z" fill="#534294"/>
<path d="M25.6833 26.8H23.45V29.0334H25.6833V26.8Z" fill="#534294"/>
<path d="M25.6833 31.2666H23.45V33.4999H25.6833V31.2666Z" fill="#534294"/>
<path d="M25.6833 35.7334H23.45V37.9667H25.6833V35.7334Z" fill="#534294"/>
<path d="M30.1498 22.3333H27.9165V24.5666H30.1498V22.3333Z" fill="#534294"/>
<path d="M30.1498 26.8H27.9165V29.0334H30.1498V26.8Z" fill="#534294"/>
<path d="M30.1498 31.2666H27.9165V33.4999H30.1498V31.2666Z" fill="#534294"/>
<path d="M30.1498 35.7334H27.9165V37.9667H30.1498V35.7334Z" fill="#534294"/>
<path d="M34.6166 22.3333H32.3833V24.5666H34.6166V22.3333Z" fill="#534294"/>
<path d="M34.6166 26.8H32.3833V29.0334H34.6166V26.8Z" fill="#534294"/>
<path d="M34.6166 31.2666H32.3833V33.4999H34.6166V31.2666Z" fill="#534294"/>
<path d="M34.6166 35.7334H32.3833V37.9667H34.6166V35.7334Z" fill="#534294"/>
<path d="M39.0834 22.3333H36.8501V24.5666H39.0834V22.3333Z" fill="#534294"/>
<path d="M30.1498 17.8667H27.9165V20.1H30.1498V17.8667Z" fill="#534294"/>
<path d="M34.6166 17.8667H32.3833V20.1H34.6166V17.8667Z" fill="#534294"/>
<path d="M39.0834 17.8667H36.8501V20.1H39.0834V17.8667Z" fill="#534294"/>
<path d="M39.0834 26.8H36.8501V29.0334H39.0834V26.8Z" fill="#534294"/>
<path d="M39.0834 31.2666H36.8501V33.4999H39.0834V31.2666Z" fill="#534294"/>
<path d="M39.0834 35.7334H36.8501V37.9667H39.0834V35.7334Z" fill="#534294"/>
<path d="M43.55 22.3333H41.3167V24.5666H43.55V22.3333Z" fill="#534294"/>
<path d="M43.55 26.8H41.3167V29.0334H43.55V26.8Z" fill="#534294"/>
<path d="M43.55 31.2666H41.3167V33.4999H43.55V31.2666Z" fill="#534294"/>
<path d="M43.55 35.7334H41.3167V37.9667H43.55V35.7334Z" fill="#534294"/>
<path d="M65.8846 16.75C65.8842 16.75 65.8838 16.75 65.8833 16.75H49.1333V1.11667C49.1338 0.500267 48.6343 0.000419013 48.0179 2.63136e-07C48.0175 2.63136e-07 48.0171 2.63136e-07 48.0167 2.63136e-07H18.9833C18.3669 -0.000418487 17.8671 0.499011 17.8667 1.11541C17.8667 1.11583 17.8667 1.11625 17.8667 1.11667V16.75H1.11667C0.500267 16.7496 0.000419013 17.249 2.63136e-07 17.8654C2.63136e-07 17.8658 2.63136e-07 17.8662 2.63136e-07 17.8667V58.0667C-0.000418487 58.6831 0.499011 59.1829 1.11541 59.1833C1.11583 59.1833 1.11625 59.1833 1.11667 59.1833H3.45092C3.38615 59.5521 3.35237 59.9256 3.35 60.3V65.8833C3.34958 66.4997 3.84901 66.9996 4.46541 67C4.46583 67 4.46625 67 4.46667 67H62.5333C63.1497 67.0004 63.6496 66.501 63.65 65.8846C63.65 65.8842 63.65 65.8838 63.65 65.8833V60.3C63.6478 59.9256 63.614 59.5521 63.5491 59.1833H65.8833C66.4997 59.1838 66.9996 58.6843 67 58.0679C67 58.0675 67 58.0671 67 58.0667V17.8667C67.0004 17.2503 66.501 16.7504 65.8846 16.75ZM48.0167 48.0167C48.0167 49.2502 47.0168 50.25 45.7833 50.25C44.5498 50.25 43.55 49.2502 43.55 48.0167C43.55 46.7832 44.5498 45.7833 45.7833 45.7833C47.0161 45.7849 48.0151 46.7839 48.0167 48.0167ZM21.2167 45.7833C22.4502 45.7833 23.45 46.7832 23.45 48.0167C23.45 49.2502 22.4502 50.25 21.2167 50.25C19.9832 50.25 18.9833 49.2502 18.9833 48.0167C18.9849 46.7839 19.9839 45.7849 21.2167 45.7833ZM14.5167 64.7667H5.58333V60.3C5.58333 57.8331 7.58314 55.8333 10.05 55.8333C12.5169 55.8333 14.5167 57.8331 14.5167 60.3V64.7667ZM7.81667 51.3667C7.81667 50.1332 8.8165 49.1333 10.05 49.1333C11.2835 49.1333 12.2833 50.1332 12.2833 51.3667C12.2833 52.6002 11.2835 53.6 10.05 53.6C8.8172 53.5985 7.8182 52.5995 7.81667 51.3667ZM14.6858 55.4739C14.2647 55.0677 13.7925 54.7182 13.2811 54.4342C14.9843 52.6497 14.9185 49.8223 13.1341 48.119C11.3497 46.4156 8.52226 46.4815 6.81893 48.266C5.17142 49.9919 5.17142 52.7081 6.81893 54.434C5.75307 55.0256 4.86755 55.895 4.25645 56.9499H2.23333V18.9833H17.8667V45.0932C16.3332 46.8139 16.385 49.4258 17.9856 51.0842C16.3106 52.0106 15.1103 53.6074 14.6858 55.4739ZM25.6833 64.7667H16.75V56.95C16.75 54.4831 18.7498 52.4833 21.2167 52.4833C23.6835 52.4833 25.6833 54.4831 25.6833 56.95V64.7667ZM39.0833 64.7667H27.9167V56.95C27.9167 53.8665 30.4165 51.3667 33.5 51.3667C36.5835 51.3667 39.0833 53.8665 39.0833 56.95V64.7667ZM30.15 45.7833C30.15 43.9332 31.6498 42.4333 33.5 42.4333C35.3502 42.4333 36.85 43.9332 36.85 45.7833C36.85 47.6335 35.3502 49.1333 33.5 49.1333C31.6507 49.1314 30.152 47.6327 30.15 45.7833ZM40.3008 53.1108C39.553 51.7925 38.4406 50.7184 37.0969 50.0176C39.4555 48.031 39.757 44.5087 37.7706 42.1501C35.784 39.7916 32.2616 39.4901 29.9031 41.4765C27.5445 43.463 27.243 46.9854 29.2294 49.344C29.4344 49.5873 29.6596 49.8125 29.9031 50.0176C28.5594 50.7184 27.447 51.7925 26.6992 53.1108C26.1121 52.2733 25.3422 51.5802 24.4477 51.0842C26.1597 49.3328 26.1279 46.5251 24.3764 44.8131C23.2487 43.7107 21.6205 43.2902 20.1 43.7086V2.23333H46.9V43.7086C46.5361 43.6082 46.1608 43.5549 45.7833 43.55C43.323 43.5434 41.3232 45.5326 41.3167 47.9931C41.3136 49.1444 41.7565 50.2522 42.5523 51.0842C41.6578 51.5802 40.8879 52.2733 40.3008 53.1108ZM50.25 60.3V64.7667H41.3167V56.95C41.3167 54.4831 43.3165 52.4833 45.7833 52.4833C48.2502 52.4833 50.25 54.4831 50.25 56.95V60.3ZM61.4167 64.7667H52.4833V60.3C52.4833 57.8331 54.4831 55.8333 56.95 55.8333C59.4169 55.8333 61.4167 57.8331 61.4167 60.3V64.7667ZM54.7167 51.3667C54.7167 50.1332 55.7165 49.1333 56.95 49.1333C58.1835 49.1333 59.1833 50.1332 59.1833 51.3667C59.1833 52.6002 58.1835 53.6 56.95 53.6C55.7172 53.5985 54.7182 52.5995 54.7167 51.3667ZM64.7667 56.95H62.7435C62.1325 55.8952 61.2469 55.0257 60.1811 54.4342C61.8843 52.6497 61.8185 49.8223 60.0341 48.119C58.2497 46.4158 55.4223 46.4815 53.7189 48.266C52.0714 49.9919 52.0714 52.7081 53.7189 54.434C53.2075 54.7181 52.7351 55.0676 52.3142 55.4738C51.8898 53.6073 50.6894 52.0104 49.0144 51.084C50.615 49.4256 50.6669 46.8137 49.1335 45.0931V18.9833H64.7668V56.95H64.7667Z" fill="#E5E5E5"/>
<path d="M54.7167 25.6833H52.4834V43.55H54.7167V25.6833Z" fill="#534294"/>
<path d="M61.4167 25.6833H59.1833V43.55H61.4167V25.6833Z" fill="#534294"/>
<path d="M7.81683 25.6833H5.5835V43.55H7.81683V25.6833Z" fill="#534294"/>
<path d="M14.5165 25.6833H12.2832V43.55H14.5165V25.6833Z" fill="#534294"/>
<path d="M40.2013 4.46668C40.2009 4.46668 40.2004 4.46668 40.2 4.46668H26.8C26.1836 4.46626 25.6838 4.96569 25.6833 5.58209C25.6833 5.5825 25.6833 5.58292 25.6833 5.58334V14.5167C25.6829 15.1331 26.1824 15.6329 26.7988 15.6333C26.7992 15.6333 26.7996 15.6333 26.8 15.6333H40.2C40.8164 15.6338 41.3163 15.1343 41.3167 14.5179C41.3167 14.5175 41.3167 14.5171 41.3167 14.5167V5.58334C41.3171 4.96694 40.8177 4.46709 40.2013 4.46668ZM39.0833 13.4H27.9167V6.70001H39.0833V13.4Z" fill="#534294"/>
</svg>
