<svg width="67" height="67" viewBox="0 0 67 67" fill="none" xmlns="http://www.w3.org/2000/svg">
<path d="M65.417 31.3495C64.4141 30.4243 63.0498 29.8528 61.6737 29.7813C60.111 29.7005 58.647 30.2577 57.5567 31.3485L50.1069 38.7201C49.9597 38.465 49.7915 38.2242 49.6029 38.0009C48.6864 36.9126 47.3461 36.3135 45.8295 36.3135H35.4006C33.4341 36.3135 31.5157 36.0584 29.699 35.5559C24.9625 34.2458 20.4376 35.2027 16.6125 38.3249C15.0571 39.5947 13.9223 40.9759 13.2046 41.9829L11.3347 40.1682C11.0889 39.9295 10.7556 39.794 10.4126 39.794C10.4095 39.794 10.407 39.794 10.4039 39.794C10.0486 39.7966 9.70511 39.9443 9.45873 40.1999L0.368602 49.6366C0.125285 49.8891 -0.00710799 50.2285 0.000559558 50.5792C0.0082271 50.9304 0.154933 51.2637 0.408984 51.5054L15.7834 66.1448C16.0385 66.3876 16.3657 66.5088 16.6923 66.5088C17.0353 66.5088 17.3783 66.3754 17.6364 66.1106L26.6417 56.8717C26.8876 56.6192 27.0241 56.2742 27.0174 55.9214C27.0108 55.5738 26.8651 55.2385 26.6156 54.9962L25.8315 54.2356L27.6262 54.0337C28.7119 53.9074 29.8161 53.8435 30.9089 53.8435H46.7762C49.3545 53.8435 51.5443 53.2797 53.2854 52.1674C53.2997 52.1582 53.314 52.1485 53.3283 52.1388C53.952 51.7053 54.5178 51.1916 55.0096 50.6124L65.7022 38.0331C67.5322 35.8805 67.4177 33.1943 65.417 31.3495ZM16.658 63.338L3.18668 50.5107L10.4438 42.9766L23.8364 55.9731L16.658 63.338ZM63.6938 36.3258L53.0012 48.9056C52.6618 49.3049 52.2728 49.6596 51.8439 49.9602C50.5368 50.7878 48.8321 51.2079 46.7762 51.2079H30.9084C29.7148 51.2079 28.508 51.278 27.3267 51.4155L23.3815 51.8582L15.121 43.842C15.695 42.9909 16.7506 41.6153 18.2795 40.3671C21.4579 37.7724 25.0637 37.0082 28.9961 38.0964C31.0418 38.6623 33.1964 38.9496 35.4006 38.9496H45.8295C47.7024 38.9496 48.2023 40.572 48.2023 41.5305C48.2023 42.2308 47.9774 42.8974 47.5853 43.3595C47.16 43.8599 46.5553 44.1134 45.7881 44.1134H36.7097C35.9818 44.1134 35.3919 44.7038 35.3919 45.4317C35.3919 46.1596 35.9818 46.7495 36.7097 46.7495H45.7881C47.3206 46.7495 48.6721 46.1515 49.5942 45.0657C50.3615 44.163 50.7991 42.9761 50.8359 41.7074L59.4158 33.2173C60.6421 31.991 62.558 32.2988 63.6299 33.2874C64.184 33.7985 64.9293 34.8725 63.6938 36.3258Z" fill="#E5E5E5"/>
<path d="M32.5994 45.0805C32.4332 44.3715 31.7243 43.9324 31.0153 44.098C30.3068 44.2642 29.8667 44.9732 30.0333 45.6822L30.0456 45.7358C30.1882 46.3431 30.7295 46.7531 31.3276 46.7531C31.4273 46.7531 31.5285 46.7418 31.6297 46.7183C32.3387 46.5522 32.7783 45.8427 32.6122 45.1342L32.5994 45.0805Z" fill="#E5E5E5"/>
<path d="M8.90876 28.3311H21.7514C22.4507 28.3311 23.0978 28.1041 23.6243 27.7207C24.1508 28.1041 24.798 28.3311 25.4972 28.3311H38.3404C39.0397 28.3311 39.6868 28.1041 40.2133 27.7207C40.7398 28.1041 41.3869 28.3311 42.0862 28.3311H54.9288C56.6883 28.3311 58.1196 26.8993 58.1196 25.1398V19.151C58.1196 16.4612 56.6142 14.1246 54.3609 12.972C55.4528 11.6552 56.1102 9.96627 56.1102 8.12606C56.1102 3.93396 52.6996 0.523438 48.5075 0.523438C44.3154 0.523438 40.9049 3.93396 40.9049 8.12606C40.9049 9.96627 41.5623 11.6557 42.6541 12.972C41.6804 13.4709 40.8466 14.1911 40.2133 15.0647C39.58 14.1906 38.7462 13.4703 37.772 12.972C38.8638 11.6557 39.5212 9.96627 39.5212 8.12606C39.5212 3.93396 36.1107 0.523438 31.9186 0.523438C27.7264 0.523438 24.3159 3.93396 24.3159 8.12606C24.3159 9.96627 24.9738 11.6557 26.0657 12.9725C25.0914 13.4709 24.2577 14.1911 23.6243 15.0652C22.991 14.1911 22.1573 13.4709 21.183 12.972C22.2748 11.6557 22.9322 9.96627 22.9322 8.12657C22.9322 3.93396 19.5217 0.523438 15.3296 0.523438C11.138 0.523438 7.72745 3.93396 7.72745 8.12657C7.72745 9.96627 8.38481 11.6557 9.47667 12.9725C7.22343 14.1251 5.71753 16.4622 5.71753 19.1515V25.1398C5.71753 26.8993 7.14932 28.3311 8.90876 28.3311ZM48.508 3.15954C51.2464 3.15954 53.4746 5.38722 53.4746 8.12606C53.4746 10.8644 51.2464 13.0926 48.508 13.0926C45.7692 13.0926 43.5415 10.8649 43.5415 8.12606C43.541 5.38722 45.7692 3.15954 48.508 3.15954ZM45.0837 14.9108C46.1137 15.4327 47.2766 15.7287 48.5075 15.7287C49.7389 15.7287 50.9019 15.4327 51.9314 14.9108C53.9796 15.2676 55.484 17.0327 55.484 19.151V25.1398C55.484 25.446 55.235 25.695 54.9288 25.695H42.0862C41.7805 25.695 41.5316 25.446 41.5316 25.1398V19.151C41.5311 17.0332 43.036 15.2676 45.0837 14.9108ZM31.9191 3.15954C34.6574 3.15954 36.8856 5.38722 36.8856 8.12606C36.8856 10.8644 34.6574 13.0926 31.9191 13.0926C29.1802 13.0926 26.9525 10.8649 26.9525 8.12606C26.9525 5.38722 29.1802 3.15954 31.9191 3.15954ZM28.4952 14.9108C29.5247 15.4327 30.6877 15.7287 31.9191 15.7287C33.1505 15.7287 34.3129 15.4327 35.3429 14.9108C37.3906 15.2676 38.8955 17.0327 38.8955 19.151V25.1398C38.8955 25.446 38.6466 25.695 38.3404 25.695H25.4977C25.1916 25.695 24.9426 25.446 24.9426 25.1398V19.151C24.9426 17.0332 26.4475 15.2676 28.4952 14.9108ZM15.3301 3.15954C18.0684 3.15954 20.2966 5.38722 20.2966 8.12606C20.2966 10.8644 18.0684 13.0926 15.3301 13.0926C12.5917 13.0926 10.3635 10.8644 10.3635 8.12606C10.3635 5.38722 12.5917 3.15954 15.3301 3.15954ZM8.35363 19.151C8.35363 17.0332 9.85851 15.2676 11.9063 14.9108C12.9363 15.4327 14.0987 15.7287 15.3301 15.7287C16.5615 15.7287 17.7239 15.4327 18.7539 14.9108C20.8021 15.2676 22.3065 17.0327 22.3065 19.151V25.1398C22.3065 25.446 22.0576 25.695 21.7514 25.695H8.90876C8.60257 25.695 8.35363 25.446 8.35363 25.1398V19.151Z" fill="#534294"/>
</svg>
