<svg width="32" height="32" viewBox="0 0 32 32" fill="none" xmlns="http://www.w3.org/2000/svg">
<circle cx="16" cy="16" r="15.75" stroke="#B1B1B1" stroke-width="0.5"/>
<path d="M23.9098 20.7595C23.8893 20.7151 23.8701 20.6783 23.8522 20.6488C23.5573 20.1176 22.9937 19.4656 22.1617 18.6926L22.1441 18.6749L22.1353 18.6662L22.1264 18.6573H22.1175C21.7399 18.2973 21.5007 18.0553 21.4006 17.9314C21.2174 17.6954 21.1763 17.4564 21.2765 17.2143C21.3472 17.0314 21.613 16.6451 22.0731 16.055C22.3151 15.7422 22.5068 15.4915 22.6484 15.3026C23.6693 13.9454 24.1119 13.0781 23.9761 12.7004L23.9234 12.6121C23.8879 12.559 23.7965 12.5104 23.6491 12.4661C23.5014 12.4218 23.3127 12.4145 23.0825 12.444L20.5334 12.4616C20.4921 12.447 20.4331 12.4483 20.3563 12.4661C20.2796 12.4838 20.2412 12.4927 20.2412 12.4927L20.1968 12.5149L20.1616 12.5415C20.1321 12.5591 20.0997 12.5901 20.0642 12.6343C20.029 12.6785 19.9995 12.7302 19.9759 12.7892C19.6984 13.5032 19.3829 14.1671 19.0287 14.7807C18.8104 15.1466 18.6099 15.4637 18.4267 15.7322C18.2439 16.0006 18.0904 16.1984 17.9666 16.3252C17.8426 16.4521 17.7307 16.5537 17.6302 16.6305C17.5298 16.7073 17.4532 16.7398 17.4002 16.7279C17.347 16.716 17.297 16.7043 17.2496 16.6925C17.167 16.6393 17.1006 16.5671 17.0505 16.4756C17.0002 16.3842 16.9664 16.2691 16.9487 16.1304C16.9311 15.9916 16.9207 15.8723 16.9177 15.7719C16.9149 15.6717 16.9162 15.5299 16.9222 15.347C16.9283 15.164 16.9311 15.0402 16.9311 14.9753C16.9311 14.751 16.9354 14.5076 16.9442 14.245C16.9531 13.9824 16.9604 13.7744 16.9664 13.6211C16.9724 13.4677 16.9752 13.3054 16.9752 13.1342C16.9752 12.9631 16.9648 12.8289 16.9442 12.7315C16.9239 12.6342 16.8927 12.5398 16.8515 12.4482C16.8101 12.3568 16.7496 12.286 16.6701 12.2358C16.5904 12.1857 16.4914 12.1459 16.3736 12.1163C16.0608 12.0455 15.6625 12.0072 15.1786 12.0013C14.0811 11.9895 13.3759 12.0603 13.0631 12.2138C12.9392 12.2786 12.8271 12.3672 12.7268 12.4792C12.6206 12.6091 12.6058 12.6799 12.6825 12.6916C13.0366 12.7446 13.2872 12.8715 13.4348 13.0721L13.4879 13.1785C13.5293 13.2551 13.5706 13.3909 13.6119 13.5856C13.6532 13.7803 13.6798 13.9957 13.6915 14.2316C13.721 14.6624 13.721 15.0312 13.6915 15.338C13.662 15.6449 13.6341 15.8839 13.6075 16.055C13.5808 16.2261 13.541 16.3648 13.4879 16.471C13.4348 16.5772 13.3994 16.6421 13.3817 16.6657C13.364 16.6892 13.3492 16.7041 13.3375 16.7099C13.2608 16.7393 13.181 16.7543 13.0985 16.7543C13.0158 16.7543 12.9155 16.7129 12.7975 16.6303C12.6796 16.5476 12.5572 16.4341 12.4303 16.2895C12.3034 16.1449 12.1603 15.9428 12.0009 15.6832C11.8416 15.4236 11.6764 15.1167 11.5053 14.7627L11.3637 14.5059C11.2752 14.3408 11.1543 14.1003 11.0008 13.7846C10.8473 13.4689 10.7116 13.1634 10.5937 12.8684C10.5465 12.7445 10.4757 12.6502 10.3813 12.5852L10.337 12.5586C10.3075 12.535 10.2602 12.51 10.1954 12.4834C10.1304 12.4567 10.0627 12.4376 9.99181 12.4259L7.56658 12.4435C7.31876 12.4435 7.15061 12.4996 7.06207 12.6118L7.02663 12.6648C7.00893 12.6944 7 12.7415 7 12.8065C7 12.8714 7.0177 12.9511 7.05314 13.0454C7.40717 13.8775 7.79218 14.68 8.20816 15.453C8.62414 16.226 8.98562 16.8486 9.29238 17.3204C9.5992 17.7925 9.91195 18.2381 10.2306 18.657C10.5493 19.0759 10.7602 19.3444 10.8634 19.4624C10.9667 19.5806 11.0479 19.6689 11.1069 19.7279L11.3282 19.9403C11.4698 20.082 11.6778 20.2516 11.9522 20.4493C12.2266 20.647 12.5305 20.8417 12.8639 21.0336C13.1973 21.2253 13.5853 21.3816 14.0279 21.5026C14.4704 21.6236 14.9012 21.6722 15.3201 21.6488H16.338C16.5445 21.6309 16.7009 21.566 16.8072 21.454L16.8424 21.4096C16.8661 21.3744 16.8883 21.3197 16.9087 21.2461C16.9294 21.1723 16.9397 21.091 16.9397 21.0027C16.9337 20.749 16.953 20.5203 16.9971 20.3168C17.0413 20.1133 17.0915 19.9599 17.1478 19.8565C17.204 19.7533 17.2674 19.6662 17.338 19.5956C17.4087 19.5248 17.4592 19.4819 17.4887 19.4672C17.5181 19.4523 17.5416 19.4422 17.5593 19.4362C17.7009 19.389 17.8676 19.4347 18.0595 19.5735C18.2513 19.7122 18.4312 19.8834 18.5995 20.0869C18.7677 20.2906 18.9698 20.5191 19.2058 20.7728C19.4419 21.0265 19.6484 21.2152 19.8253 21.3393L20.0023 21.4455C20.1205 21.5164 20.2739 21.5813 20.4627 21.6403C20.6513 21.6992 20.8164 21.714 20.9583 21.6845L23.2241 21.6492C23.4482 21.6492 23.6226 21.6121 23.7463 21.5384C23.8702 21.4647 23.9439 21.3834 23.9676 21.295C23.9913 21.2066 23.9926 21.1062 23.9721 20.9939C23.9511 20.882 23.9304 20.8037 23.9098 20.7595Z" fill="#534294"/>
</svg>
