<svg width="70" height="70" viewBox="0 0 70 70" fill="none" xmlns="http://www.w3.org/2000/svg">
<path d="M63.4375 65.625V13.125H65.625C65.9151 13.125 66.1933 13.0097 66.3984 12.8046C66.6035 12.5995 66.7188 12.3213 66.7188 12.0312V4.37496C66.7187 4.22326 66.6872 4.07322 66.6261 3.93438C66.565 3.79554 66.4756 3.67092 66.3638 3.56846C66.2519 3.466 66.12 3.38792 65.9763 3.3392C65.8326 3.29048 65.6804 3.27217 65.5293 3.28545L28.3418 6.5667C28.0693 6.59063 27.8157 6.71577 27.631 6.91745C27.4462 7.11912 27.3438 7.3827 27.3438 7.65621V12.0312C27.3438 12.3213 27.459 12.5995 27.6641 12.8046C27.8692 13.0097 28.1474 13.125 28.4375 13.125H30.625V30.625H32.8125V13.125H61.25V65.625H54.0824C54.481 64.9767 54.6906 64.23 54.6875 63.469C54.6875 61.9048 53.8684 61.0799 53.2704 60.4775C52.736 59.9394 52.5 59.6756 52.5 59.0625C52.5 56.3448 50.9972 53.5937 48.125 53.5937C45.2528 53.5937 43.75 56.3448 43.75 59.0625C43.75 59.6756 43.5139 59.9394 42.9797 60.4775C42.3816 61.0799 41.5625 61.9048 41.5625 63.469C41.5594 64.23 41.7688 64.9767 42.1672 65.625H30.625V51.4062C30.625 51.1161 30.5098 50.8379 30.3046 50.6328C30.0995 50.4277 29.8213 50.3125 29.5312 50.3125H22.9688C22.6787 50.3125 22.4005 50.4277 22.1954 50.6328C21.9902 50.8379 21.875 51.1161 21.875 51.4062V65.625H18.5938V46.311L31.7188 40.5688L44.8438 46.311V52.5H47.0312V47.268L48.7803 48.0336C48.9468 48.1065 49.1288 48.1367 49.3099 48.1216C49.491 48.1064 49.6655 48.0464 49.8176 47.9469C49.9696 47.8474 50.0945 47.7116 50.1809 47.5517C50.2673 47.3918 50.3126 47.2129 50.3125 47.0312V41.5625C50.3125 41.3498 50.2505 41.1418 50.1341 40.9638C50.0177 40.7859 49.852 40.6457 49.6572 40.5604L32.1572 32.9042C32.0189 32.8437 31.8697 32.8125 31.7188 32.8125C31.5678 32.8125 31.4186 32.8437 31.2803 32.9042L13.7803 40.5604C13.5855 40.6457 13.4198 40.7859 13.3034 40.9638C13.187 41.1418 13.125 41.3498 13.125 41.5625V47.0312C13.125 47.2129 13.1703 47.3917 13.2567 47.5516C13.3432 47.7114 13.4681 47.8471 13.6201 47.9466C13.7722 48.046 13.9466 48.106 14.1277 48.1212C14.3088 48.1363 14.4907 48.1061 14.6572 48.0332L16.4062 47.2676V65.625H8.75V47.0312H10.9375V44.8437H4.375V20.7812H28.4375V18.5937H21.2343L17.1797 14.539C17.0781 14.4375 16.9575 14.3569 16.8248 14.302C16.6921 14.247 16.5499 14.2187 16.4062 14.2187H7.65625C7.36617 14.2187 7.08797 14.3339 6.88285 14.5391C6.67773 14.7442 6.5625 15.0224 6.5625 15.3125V18.5937H3.28125C2.99117 18.5937 2.71297 18.7089 2.50785 18.9141C2.30273 19.1192 2.1875 19.3974 2.1875 19.6875V45.9375C2.1875 46.2275 2.30273 46.5057 2.50785 46.7109C2.71297 46.916 2.99117 47.0312 3.28125 47.0312H6.5625V65.625H2.1875V67.8125H67.8125V65.625H63.4375ZM29.5312 8.65767L64.5312 5.56947V10.9375H29.5312V8.65767ZM15.3125 45.3589V42.2778L31.7188 35.1L48.125 42.2778V45.3589L47.0312 44.8804V44.8437H46.9476L32.1572 38.3729C32.0189 38.3125 31.8697 38.2812 31.7188 38.2812C31.5678 38.2812 31.4186 38.3125 31.2803 38.3729L16.4899 44.8437H16.4062V44.8804L15.3125 45.3589ZM8.75 16.4062H15.9533L18.1408 18.5937H8.75V16.4062ZM24.0625 52.5H28.4375V65.625H24.0625V52.5ZM45.9375 65.625C45.3351 65.625 43.75 64.962 43.75 63.469C43.75 62.833 43.9897 62.5648 44.532 62.0186C45.1251 61.4211 45.9375 60.603 45.9375 59.0625C45.9375 56.467 47.3684 55.7812 48.125 55.7812C49.8553 55.7812 50.3125 57.9277 50.3125 59.0625C50.3125 60.603 51.1247 61.4211 51.7178 62.0186C52.2601 62.5655 52.4999 62.833 52.4999 63.469C52.5 64.962 50.9147 65.625 50.3125 65.625H45.9375Z" fill="#E5E5E5"/>
<path d="M33.9062 52.5C33.6162 52.5 33.338 52.6152 33.1329 52.8204C32.9277 53.0255 32.8125 53.3037 32.8125 53.5938V59.0625C32.8125 59.3526 32.9277 59.6308 33.1329 59.8359C33.338 60.041 33.6162 60.1562 33.9062 60.1562H40.4688C40.7588 60.1562 41.037 60.041 41.2421 59.8359C41.4473 59.6308 41.5625 59.3526 41.5625 59.0625V53.5938C41.5625 53.3037 41.4473 53.0255 41.2421 52.8204C41.037 52.6152 40.7588 52.5 40.4688 52.5H33.9062ZM39.375 57.9688H35V54.6875H39.375V57.9688Z" fill="#E5E5E5"/>
<path d="M27.3438 45.9375H25.1562V48.125H27.3438V45.9375Z" fill="#E5E5E5"/>
<path d="M18.5938 36.0937V25.1562H28.4375V22.9688H7.65625C7.36617 22.9688 7.08797 23.084 6.88285 23.2891C6.67773 23.4942 6.5625 23.7724 6.5625 24.0625V41.5625C6.5625 41.8526 6.67773 42.1308 6.88285 42.3359C7.08797 42.541 7.36617 42.6562 7.65625 42.6562H10.9375V40.4687H8.75V25.1562H16.4062V36.0937H18.5938Z" fill="#534294"/>
<path d="M37.1875 25.1562H43.75C44.0401 25.1562 44.3183 25.041 44.5234 24.8359C44.7285 24.6308 44.8438 24.3526 44.8438 24.0625V17.5C44.8438 17.2099 44.7285 16.9317 44.5234 16.7266C44.3183 16.5215 44.0401 16.4062 43.75 16.4062H37.1875C36.8974 16.4062 36.6192 16.5215 36.4141 16.7266C36.209 16.9317 36.0938 17.2099 36.0938 17.5V24.0625C36.0938 24.3526 36.209 24.6308 36.4141 24.8359C36.6192 25.041 36.8974 25.1562 37.1875 25.1562ZM38.2812 18.5938H42.6562V22.9688H38.2812V18.5938Z" fill="#534294"/>
<path d="M50.3125 25.1562H56.875C57.1651 25.1562 57.4433 25.041 57.6484 24.8359C57.8535 24.6308 57.9688 24.3526 57.9688 24.0625V17.5C57.9688 17.2099 57.8535 16.9317 57.6484 16.7266C57.4433 16.5215 57.1651 16.4062 56.875 16.4062H50.3125C50.0224 16.4062 49.7442 16.5215 49.5391 16.7266C49.334 16.9317 49.2188 17.2099 49.2188 17.5V24.0625C49.2188 24.3526 49.334 24.6308 49.5391 24.8359C49.7442 25.041 50.0224 25.1562 50.3125 25.1562ZM51.4062 18.5938H55.7812V22.9688H51.4062V18.5938Z" fill="#534294"/>
<path d="M36.0938 32.8125H38.2812V30.625H42.6562V36.0937H44.8438V29.5312C44.8438 29.2412 44.7285 28.963 44.5234 28.7579C44.3183 28.5527 44.0401 28.4375 43.75 28.4375H37.1875C36.8974 28.4375 36.6192 28.5527 36.4141 28.7579C36.209 28.963 36.0938 29.2412 36.0938 29.5312V32.8125Z" fill="#534294"/>
<path d="M49.2188 36.0937C49.2188 36.3838 49.334 36.662 49.5391 36.8671C49.7442 37.0723 50.0224 37.1875 50.3125 37.1875H56.875C57.1651 37.1875 57.4433 37.0723 57.6484 36.8671C57.8535 36.662 57.9688 36.3838 57.9688 36.0937V29.5312C57.9688 29.2412 57.8535 28.963 57.6484 28.7579C57.4433 28.5527 57.1651 28.4375 56.875 28.4375H50.3125C50.0224 28.4375 49.7442 28.5527 49.5391 28.7579C49.334 28.963 49.2188 29.2412 49.2188 29.5312V36.0937ZM51.4062 30.625H55.7812V35H51.4062V30.625Z" fill="#534294"/>
<path d="M52.5 47.0312V49.2188H56.875C57.1651 49.2188 57.4433 49.1035 57.6484 48.8984C57.8535 48.6933 57.9688 48.4151 57.9688 48.125V41.5625C57.9688 41.2724 57.8535 40.9942 57.6484 40.7891C57.4433 40.584 57.1651 40.4688 56.875 40.4688H52.5V42.6562H55.7812V47.0312H52.5Z" fill="#534294"/>
<path d="M13.125 50.3125H10.9375V52.5H13.125V50.3125Z" fill="#E5E5E5"/>
</svg>
