<svg width="70" height="70" viewBox="0 0 70 70" fill="none" xmlns="http://www.w3.org/2000/svg">
<g clip-path="url(#clip0)">
<path d="M69.5339 67.2843L47.2318 44.9822C51.4836 40.2029 54.0908 33.9305 54.0908 27.0454C54.091 12.1323 41.9587 0 27.0454 0C12.1321 0 0 12.1323 0 27.0454C0 41.9586 12.1323 54.0908 27.0454 54.0908C33.9305 54.0908 40.2028 51.4834 44.9822 47.2318L67.2843 69.5339C67.595 69.8446 68.0022 70 68.4092 70C68.8162 70 69.2232 69.8446 69.5341 69.5339C70.1554 68.9126 70.1554 67.9058 69.5339 67.2843ZM27.0454 50.9091C13.8863 50.9091 3.18177 40.2046 3.18177 27.0454C3.18177 13.8863 13.8863 3.18177 27.0454 3.18177C40.2046 3.18177 50.9091 13.8863 50.9091 27.0454C50.9091 40.2046 40.2046 50.9091 27.0454 50.9091Z" fill="#E5E5E5"/>
<path d="M40.5605 19.473L32.2905 18.5563L29.5654 11.2916C29.1724 10.2476 28.1609 9.54541 27.0454 9.54541C25.93 9.54541 24.9186 10.2476 24.5254 11.2916L21.8004 18.5563L13.5258 19.4745C12.4662 19.5957 11.5745 20.3321 11.2544 21.3575C10.939 22.386 11.2638 23.5 12.0779 24.1944L18.5612 29.7517L16.7077 38.0853C16.4668 39.1635 16.9237 40.2993 17.8512 40.9176C18.771 41.5251 20.0139 41.4987 20.901 40.8617L27.0456 36.4727L33.1887 40.8617C33.6485 41.1895 34.1908 41.3636 34.7562 41.3636C35.2845 41.3636 35.7971 41.2098 36.2477 40.913C37.1675 40.2993 37.6242 39.1636 37.385 38.0869L35.5299 29.7518L42.01 24.1975C42.8272 23.5 43.1519 22.386 42.8335 21.3514C42.5164 20.3322 41.6246 19.5957 40.5605 19.473ZM32.7348 27.9574C32.2874 28.3397 32.0886 28.9363 32.216 29.5094L34.0011 37.5308L27.9699 33.2226C27.6933 33.0253 27.3701 32.9258 27.0454 32.9258C26.7207 32.9258 26.3975 33.0253 26.121 33.2226L20.0898 37.5308L21.8749 29.5094C22.0023 28.9361 21.8035 28.3395 21.3561 27.9574L15.0032 22.512L23.1226 21.6109C23.7177 21.5441 24.2257 21.1494 24.437 20.5886L27.0456 13.6346L29.6542 20.5886C29.8655 21.1494 30.3735 21.5441 30.9686 21.6109L39.0878 22.512L32.7348 27.9574Z" fill="#534294"/>
</g>
<defs>
<clipPath id="clip0">
<rect width="70" height="70" fill="white"/>
</clipPath>
</defs>
</svg>
