<svg width="37" height="41" viewBox="0 0 37 41" fill="none" xmlns="http://www.w3.org/2000/svg">
<g clip-path="url(#clip0)">
<path d="M15.1835 20.8576H11.426C11.3877 20.8576 11.3685 20.8769 11.3493 20.9156C11.2535 22.636 10.9276 24.4724 10.4674 25.9802C10.4674 25.9995 10.4674 26.0188 10.4866 26.0381C10.5058 26.0575 10.525 26.0575 10.5441 26.0575H11.8286C11.8669 26.0575 11.8861 26.0381 11.8861 26.0188C12.2503 24.859 12.5379 23.3512 12.6529 22.0754H13.8799V25.9995C13.8799 26.0381 13.9182 26.0768 13.9566 26.0768H15.1835C15.2218 26.0768 15.2602 26.0381 15.2602 25.9995V20.9156C15.2602 20.8769 15.2218 20.8576 15.1835 20.8576ZM31.0763 20.8576H29.8493C29.811 20.8576 29.7726 20.8962 29.7726 20.9349V24.859C29.5042 24.9363 29.2358 24.975 28.9291 24.975C28.1239 24.975 27.9322 24.7237 27.9322 23.6412V20.9349C27.9322 20.8962 27.8939 20.8576 27.8555 20.8576H26.6478C26.6094 20.8576 26.5711 20.8962 26.5711 20.9349V23.7765C26.5711 25.5549 27.1654 26.2314 28.6799 26.2314C29.5426 26.2314 30.5203 25.9995 31.0954 25.7868C31.1146 25.7675 31.1338 25.7482 31.1338 25.7289V20.9349C31.1529 20.8769 31.1146 20.8576 31.0763 20.8576ZM5.0804 20.8576H3.83429C3.79594 20.8576 3.77677 20.8769 3.77677 20.9156C3.58506 21.6888 3.18247 23.0033 2.64569 24.3757L1.39957 20.9156C1.3804 20.8962 1.36123 20.8769 1.34206 20.8769H0.076774C0.057603 20.8769 0.038432 20.8962 0.0192611 20.9156C9.00668e-05 20.9349 9.00668e-05 20.9542 0.0192611 20.9736L1.89802 26.1541C1.70631 26.5601 1.53377 26.8887 1.36123 27.198C1.22703 27.4299 1.11201 27.6619 0.996981 27.8939C0.97781 27.9132 0.97781 27.9325 0.996981 27.9519C1.01615 27.9712 1.03532 27.9905 1.05449 27.9905H2.41563C2.43481 27.9905 2.47315 27.9712 2.47315 27.9519C2.7032 27.5073 2.99076 26.8887 3.25916 26.2508C4.06434 24.3564 4.69698 22.578 5.17626 20.9542C5.17626 20.9349 5.17626 20.9156 5.15708 20.8962C5.11874 20.8576 5.09957 20.8576 5.0804 20.8576ZM9.54724 24.859C9.54724 24.8397 9.52807 24.8203 9.5089 24.8203H9.45138C9.14465 24.9363 8.58869 25.0136 8.20527 25.0136C7.34258 25.0136 6.93999 24.7817 6.93999 23.4672C6.93999 22.404 7.07418 21.9207 8.20527 21.9207C8.53118 21.9207 8.81874 21.9594 9.20216 22.0754C9.2405 22.0754 9.25968 22.0754 9.27885 22.0367C9.41304 21.7661 9.58558 21.4375 9.77729 21.0315V20.9736C9.77729 20.9542 9.75812 20.9349 9.73895 20.9349C9.2405 20.7802 8.6462 20.6836 8.10942 20.6836C6.32651 20.6836 5.52133 21.5341 5.52133 23.4479C5.52133 25.3809 6.32651 26.2508 8.10942 26.2508C8.55035 26.2508 9.45138 26.1541 9.87315 25.9802C9.91149 25.9608 9.93066 25.9222 9.91149 25.8835L9.54724 24.859ZM21.2224 20.8576H19.9763C19.9379 20.8576 19.9187 20.8769 19.9187 20.9156C19.727 21.7081 19.3244 23.0033 18.7877 24.3757L17.5415 20.9156C17.5224 20.8962 17.5032 20.8769 17.484 20.8769H16.2187C16.1996 20.8769 16.1804 20.8962 16.1612 20.9156C16.1421 20.9349 16.1421 20.9542 16.1612 20.9736L18.04 26.1541C17.8483 26.5601 17.6757 26.8887 17.5032 27.198C17.369 27.4299 17.254 27.6619 17.1389 27.9132C17.1198 27.9325 17.1198 27.9519 17.1389 27.9712C17.1581 27.9905 17.1773 28.0099 17.1965 28.0099H18.5576C18.5768 28.0099 18.6151 27.9905 18.6151 27.9712C18.8452 27.5266 19.1327 26.908 19.4011 26.2701C20.1871 24.3757 20.8389 22.5973 21.3182 20.9736C21.3182 20.9542 21.3182 20.9349 21.2991 20.9156C21.2607 20.8576 21.2415 20.8576 21.2224 20.8576ZM25.8234 20.8576H22.2001C22.1617 20.8576 22.1234 20.8962 22.1234 20.9349V26.0188C22.1234 26.0575 22.1617 26.0961 22.2001 26.0961H23.427C23.4654 26.0961 23.5037 26.0575 23.5037 26.0188V22.0947H25.4016C25.4208 22.0947 25.4592 22.0754 25.4592 22.0561C25.6125 21.7081 25.7467 21.3408 25.9001 20.9736V20.9156C25.8617 20.8576 25.8426 20.8576 25.8234 20.8576Z" fill="#EF4058"/>
<path d="M6.53731 13.0484C4.77357 13.0484 4.08342 13.8216 4.08342 15.774C4.08342 17.7651 4.77357 18.5383 6.53731 18.5383C8.32021 18.5383 9.01036 17.7651 9.01036 15.774C9.01036 13.8023 8.32021 13.0484 6.53731 13.0484ZM6.53731 17.3978C5.73212 17.3978 5.4829 17.1852 5.4829 15.7934C5.4829 14.3242 5.7513 14.1889 6.53731 14.1889C7.34249 14.1889 7.61088 14.3242 7.61088 15.7934C7.61088 17.1852 7.36166 17.3978 6.53731 17.3978ZM13.9181 17.1852C13.9181 17.1658 13.899 17.1465 13.8798 17.1465H13.8223C13.5155 17.2625 12.9596 17.3398 12.5762 17.3398C11.7135 17.3398 11.3109 17.1078 11.3109 15.7934C11.3109 14.7302 11.4451 14.2469 12.5762 14.2469C12.9021 14.2469 13.1896 14.2856 13.5731 14.4016C13.6114 14.4016 13.6306 14.4016 13.6497 14.3629C13.7839 14.0923 13.9565 13.7637 14.1482 13.3577V13.2997C14.1482 13.2804 14.129 13.2611 14.1098 13.2611C13.6114 13.1064 13.0171 13.0098 12.4803 13.0098C10.6974 13.0098 9.89223 13.8603 9.89223 15.774C9.89223 17.7071 10.6974 18.577 12.4803 18.577C12.9212 18.577 13.8223 18.4803 14.244 18.3063C14.2824 18.287 14.3016 18.2483 14.2824 18.2097L13.9181 17.1852ZM3.7 13.1837H0.0766839C0.038342 13.1837 0 13.2224 0 13.2611V18.345C0 18.3836 0.038342 18.4223 0.0766839 18.4223H1.30363C1.34197 18.4223 1.38031 18.3836 1.38031 18.345V14.4016H3.25907C3.27824 14.4016 3.31658 14.3822 3.31658 14.3629C3.46995 14.015 3.60415 13.6477 3.75751 13.2804V13.2224C3.73834 13.2031 3.71917 13.1837 3.7 13.1837Z" fill="#1466AC"/>
<path d="M36.8085 25.5356V25.4583C36.8085 25.4196 36.8085 25.3616 36.8277 25.323C36.8852 24.6077 36.9236 23.7379 36.9619 22.7327V22.6554C36.9811 21.9788 37.0003 21.2442 37.0003 20.4903C37.0003 19.7364 36.9811 19.0019 36.9619 18.3253V18.248C36.9236 17.2621 36.8852 16.3729 36.8277 15.6577C36.8277 15.619 36.8277 15.5611 36.8085 15.5224V15.4451C36.8085 15.3678 36.7894 15.3098 36.7894 15.2324V15.1551C36.7319 14.4012 36.6935 13.9373 36.6744 13.8986C36.6744 13.8213 36.6552 13.744 36.6552 13.686V13.628C36.636 13.4927 36.6168 13.3767 36.5785 13.2414C36.5785 13.2221 36.5785 13.2027 36.5593 13.1834C36.2334 11.6176 35.3707 9.89722 34.2971 8.60207C33.8754 8.09948 33.4345 7.65488 32.9743 7.30693C32.936 7.26827 32.3992 6.88166 31.5557 6.28241C30.578 5.60585 29.1785 4.65865 27.5873 3.73079C24.75 2.04903 22.2386 0.869873 21.8935 0.734559C21.8743 0.734559 21.8743 0.715229 21.8743 0.715229C21.1267 0.38661 20.2256 0.154644 19.2479 0.0579915C19.0562 0.038661 18.8645 0.0193305 18.6728 0.0193305C18.4811 0 18.3085 0 18.136 0H17.8676C16.564 0.038661 15.3562 0.270627 14.3977 0.715229C14.2635 0.77322 11.7137 1.95238 8.81891 3.6728L8.70388 3.73079C5.73238 5.48986 3.41269 7.22961 3.31684 7.30693C2.58834 7.84818 1.93653 8.54408 1.34223 9.43329C1.20803 9.62659 1.20803 10.1292 1.78316 10.1292H3.25932C3.89197 10.1292 4.04533 9.74257 4.75466 9.22065C5.54067 8.64074 7.09352 7.48091 9.93083 5.77982C11.9821 4.562 13.8992 3.59547 14.8386 3.15087C14.8578 3.15087 14.8769 3.13154 14.8961 3.13154C14.8961 3.13154 14.9153 3.13154 14.9153 3.11221C14.9153 3.11221 14.9345 3.11221 14.9345 3.09288C14.9536 3.09288 14.9728 3.07355 14.9728 3.07355C14.992 3.07355 15.0111 3.05422 15.0303 3.05422C15.2604 2.93824 15.4137 2.88025 15.4137 2.88025C16.0655 2.59029 16.9857 2.39698 17.9635 2.37765H18.3469C18.6345 2.37765 18.922 2.39698 19.1904 2.43564C19.7847 2.51297 20.3215 2.62895 20.7624 2.82225C20.8008 2.84158 20.8583 2.86091 20.8966 2.88025C20.8966 2.88025 20.9158 2.89958 20.9733 2.91891C21.4142 3.11221 23.7914 4.25271 26.3795 5.77982C27.9132 6.68835 29.2743 7.59689 30.2137 8.25413C31.0381 8.83404 31.5365 9.20132 31.5557 9.22065C31.9199 9.49128 32.2842 9.87789 32.6293 10.3032C33.492 11.4243 34.2013 12.9514 34.3163 14.1306C34.3163 14.1499 34.3738 14.6139 34.4313 15.4064C34.4313 15.4644 34.4313 15.5031 34.4505 15.5611V15.677C34.4505 15.7544 34.4697 15.8124 34.4697 15.8897V15.967C34.4697 16.0057 34.4697 16.0637 34.4889 16.1023C34.4889 16.199 34.508 16.2956 34.508 16.3923C34.508 16.4503 34.508 16.5083 34.5272 16.5662V16.6049C34.5272 16.6822 34.5272 16.7402 34.5464 16.8175V16.9722C34.6039 17.9774 34.6422 19.1759 34.6422 20.4323C34.6422 21.6888 34.6039 22.8873 34.5464 23.8925V24.0471C34.5464 24.1245 34.5464 24.1825 34.5272 24.2598V24.2984C34.5272 24.3564 34.5272 24.4144 34.508 24.4724C34.508 24.5691 34.4889 24.6657 34.4889 24.7624C34.4889 24.8204 34.4889 24.859 34.4697 24.8977V24.975C34.4697 25.0523 34.4505 25.1103 34.4505 25.1876V25.3036C34.4505 25.3616 34.4505 25.4196 34.4313 25.4583C34.3738 26.2508 34.3163 26.7341 34.3163 26.7341C34.2013 27.9132 33.492 29.4404 32.6293 30.5615C32.2842 31.0061 31.9199 31.3734 31.5557 31.644C31.5365 31.644 31.0381 32.0306 30.2137 32.6106C29.2743 33.2678 27.894 34.1763 26.3795 35.0849C23.7914 36.6313 21.3951 37.7525 20.9733 37.9458L20.8966 37.9844C20.8583 38.0038 20.8008 38.0231 20.7624 38.0424C20.3215 38.2164 19.7847 38.3517 19.1904 38.429C18.922 38.4677 18.6345 38.487 18.3469 38.487H17.9635C16.9857 38.4677 16.0655 38.2937 15.4137 37.9844C15.4137 37.9844 15.2795 37.9265 15.0303 37.8105C15.0111 37.7911 14.9728 37.7911 14.9536 37.7718C14.9345 37.7525 14.9153 37.7525 14.8961 37.7331C14.8769 37.7331 14.8769 37.7138 14.8578 37.7138C14.8386 37.7138 14.8194 37.6945 14.8003 37.6945C14.7811 37.6752 14.7619 37.6752 14.7236 37.6558H14.7044C13.7267 37.2692 11.8863 36.3413 9.93083 35.1815C7.07435 33.4998 5.54067 32.3206 4.75466 31.7407C4.04533 31.2188 3.89197 30.8322 3.25932 30.8322H1.78316C1.20803 30.8322 1.20803 31.3347 1.34223 31.5281C1.93653 32.4173 2.58834 33.1132 3.31684 33.6544C3.41269 33.7317 5.75155 35.4715 8.70388 37.2306C8.85725 37.3272 9.01062 37.4239 9.18316 37.5012C11.9246 39.0863 14.2826 40.1688 14.4168 40.2461C15.3562 40.6714 16.5832 40.9227 17.8868 40.9613H18.1552C18.3277 40.9613 18.5003 40.9613 18.6728 40.942C18.8645 40.942 19.0562 40.9227 19.2479 40.9033C20.2256 40.8067 21.1459 40.5747 21.8743 40.2461C21.8743 40.2461 21.8935 40.2461 21.8935 40.2268C22.2194 40.0721 24.75 38.893 27.5681 37.2306C29.1593 36.2834 30.5588 35.3555 31.5365 34.6789C32.38 34.0797 32.9168 33.6931 32.9552 33.6544C33.4153 33.3065 33.8562 32.8619 34.278 32.3593C35.3516 31.0641 36.2142 29.3437 36.5402 27.7779C36.5402 27.7586 36.5401 27.7393 36.5593 27.7199C36.5785 27.5846 36.6168 27.4493 36.636 27.3333V27.2753C36.6552 27.198 36.6552 27.1207 36.6552 27.0627C36.6552 27.024 36.7127 26.5601 36.7702 25.8062V25.7289C36.8085 25.6709 36.8085 25.6129 36.8085 25.5356Z" fill="url(#paint0_linear)"/>
</g>
<defs>
<linearGradient id="paint0_linear" x1="19.134" y1="0" x2="19.134" y2="40.9967" gradientUnits="userSpaceOnUse">
<stop offset="0.398" stop-color="#1466AC"/>
<stop offset="0.659" stop-color="#EF4058"/>
</linearGradient>
<clipPath id="clip0">
<rect width="37" height="41" fill="white"/>
</clipPath>
</defs>
</svg>
