<svg width="61" height="61" viewBox="0 0 61 61" fill="none" xmlns="http://www.w3.org/2000/svg">
<path d="M61 45.75V17.2833C60.9967 14.4773 58.7227 12.2033 55.9167 12.2H44.7333V0H42.7V23.3833C42.7 23.9448 43.1552 24.4 43.7167 24.4H47.1632L30.5 34.3979L13.8368 24.4H17.2833C17.8448 24.4 18.3 23.9448 18.3 23.3833V0H16.2667V12.2H5.08333C2.27733 12.2033 0.00330417 14.4773 0 17.2833V45.75C0.00330417 48.556 2.27733 50.83 5.08333 50.8333H21.7384L19.705 54.9H1.01667C0.455212 54.9 0 55.3552 0 55.9167C0 61 5.35682 61 7.11667 61H53.8833C55.6432 61 61 61 61 55.9167C61 55.3552 60.5448 54.9 59.9833 54.9H41.295L39.2616 50.8333H55.9167C58.7227 50.83 60.9967 48.556 61 45.75ZM16.2667 22.3667H10.1667C9.60521 22.3668 9.15013 22.8221 9.15038 23.3837C9.15051 23.7404 9.33745 24.0709 9.64321 24.2547L29.9765 36.4547C30.2987 36.6483 30.7016 36.6483 31.0237 36.4547L51.357 24.2547C51.8382 23.9654 51.9937 23.3408 51.7045 22.8595C51.5207 22.5539 51.1902 22.3668 50.8335 22.3667H44.7335V18.3H54.9001V42.7H6.1V18.3H16.2667V22.3667ZM58.8437 56.9333C58.4888 58.1848 57.2617 58.9667 53.8833 58.9667H7.11667C3.73828 58.9667 2.51117 58.1848 2.15635 56.9333H58.8437ZM21.9783 54.9L24.0116 50.8333H36.9884L39.0217 54.9H21.9783ZM5.08333 48.8C3.39884 48.8 2.03333 47.4345 2.03333 45.75V17.2833C2.03333 15.5988 3.39884 14.2333 5.08333 14.2333H16.2667V16.2667H5.08333C4.52188 16.2667 4.06667 16.7219 4.06667 17.2833V43.7167C4.06667 44.2781 4.52188 44.7333 5.08333 44.7333H55.9167C56.4781 44.7333 56.9333 44.2781 56.9333 43.7167V17.2833C56.9333 16.7219 56.4781 16.2667 55.9167 16.2667H44.7333V14.2333H55.9167C57.6012 14.2333 58.9667 15.5988 58.9667 17.2833V45.75C58.9667 47.4345 57.6012 48.8 55.9167 48.8H5.08333Z" fill="#E5E5E5"/>
<path d="M34.9356 15.2968C36.5217 14.0488 37.4976 12.1814 37.6165 10.1667C37.6165 3.44446 33.7461 2.03333 30.4999 2.03333C27.2536 2.03333 23.3832 3.44446 23.3832 10.1667C23.5013 12.1825 24.4773 14.0511 26.0641 15.2998C23.3692 15.6319 21.3459 17.9229 21.3499 20.6383V24.4H23.3832V20.6383C23.3832 18.7854 24.8853 17.2833 26.7382 17.2833H34.2615C36.1144 17.2833 37.6165 18.7854 37.6165 20.6383V24.4H39.6499V20.6383C39.6553 17.9218 37.6316 15.629 34.9356 15.2968ZM25.4694 9.09001C25.7449 5.68316 27.3482 4.06666 30.4999 4.06666C33.3852 4.06666 34.9732 5.43103 35.4276 8.27769L32.0401 6.24436C31.5586 5.9555 30.9341 6.11168 30.6452 6.5932C30.6071 6.65674 30.5761 6.7241 30.5527 6.79438C30.0383 8.33768 27.2608 8.92124 25.4694 9.09001ZM30.4999 15.25C28.2323 14.8638 26.346 13.2914 25.5578 11.1305V11.1274C27.2984 10.9841 30.4378 10.4574 31.9018 8.53084L35.5354 10.7106C35.1277 13.2034 32.0604 15.25 30.4999 15.25Z" fill="#534294"/>
<path d="M50.8333 36.6V34.5667H48.7999V36.6H46.7666V38.6333H48.7999V40.6666H50.8333V38.6333H52.8666V36.6H50.8333Z" fill="#534294"/>
</svg>
