<svg width="67" height="67" viewBox="0 0 67 67" fill="none" xmlns="http://www.w3.org/2000/svg">
<path d="M61.7656 2.09387H32.4531C31.6209 2.09636 30.8235 2.42804 30.2351 3.01649C29.6466 3.60493 29.315 4.40232 29.3125 5.2345V20.4456C26.8508 18.4666 23.8797 17.2239 20.7421 16.861C17.6045 16.4981 14.4282 17.0298 11.5797 18.3946C8.73131 19.7595 6.32683 21.9019 4.64376 24.5747C2.96069 27.2474 2.06763 30.3416 2.06763 33.5001C2.06763 36.6587 2.96069 39.7528 4.64376 42.4256C6.32683 45.0984 8.73131 47.2408 11.5797 48.6056C14.4282 49.9704 17.6045 50.5021 20.7421 50.1392C23.8797 49.7763 26.8508 48.5337 29.3125 46.5547V61.7657C29.315 62.5979 29.6466 63.3953 30.2351 63.9838C30.8235 64.5722 31.6209 64.9039 32.4531 64.9064H61.7656C62.5978 64.9039 63.3952 64.5722 63.9836 63.9838C64.5721 63.3953 64.9037 62.5979 64.9062 61.7657V5.2345C64.9037 4.40232 64.5721 3.60493 63.9836 3.01649C63.3952 2.42804 62.5978 2.09636 61.7656 2.09387ZM57.285 4.18762L56.7615 6.28137H37.4572L36.9337 4.18762H57.285ZM18.8437 48.1564C15.945 48.1564 13.1114 47.2968 10.7011 45.6863C8.29094 44.0759 6.41241 41.7869 5.30311 39.1088C4.19381 36.4307 3.90357 33.4839 4.46908 30.6408C5.0346 27.7978 6.43047 25.1863 8.48019 23.1366C10.5299 21.0869 13.1414 19.691 15.9844 19.1255C18.8275 18.56 21.7743 18.8502 24.4524 19.9595C27.1305 21.0688 29.4195 22.9473 31.0299 25.3575C32.6404 27.7678 33.5 30.6014 33.5 33.5001C33.4958 37.3859 31.9503 41.1114 29.2027 43.8591C26.455 46.6067 22.7295 48.1522 18.8437 48.1564ZM62.8125 61.7657C62.8125 62.0434 62.7022 62.3097 62.5058 62.506C62.3095 62.7023 62.0432 62.8126 61.7656 62.8126H32.4531C32.1754 62.8126 31.9092 62.7023 31.7128 62.506C31.5165 62.3097 31.4062 62.0434 31.4062 61.7657V44.5447C34.1041 41.4982 35.5937 37.5695 35.5937 33.5001C35.5937 29.4307 34.1041 25.5021 31.4062 22.4556V5.2345C31.4062 4.95685 31.5165 4.69057 31.7128 4.49424C31.9092 4.29792 32.1754 4.18762 32.4531 4.18762H34.7772L35.6251 7.5795C35.6812 7.80646 35.8117 8.00811 35.9957 8.15231C36.1798 8.2965 36.4068 8.37494 36.6406 8.37512H57.5781C57.8119 8.37494 58.0389 8.2965 58.2229 8.15231C58.407 8.00811 58.5375 7.80646 58.5936 7.5795L59.4415 4.18762H61.7656C62.0432 4.18762 62.3095 4.29792 62.5058 4.49424C62.7022 4.69057 62.8125 4.95685 62.8125 5.2345V61.7657Z" fill="#E5E5E5"/>
<path d="M26.1717 5.23437H12.5624V3.14062C12.5627 2.94152 12.5062 2.74646 12.3996 2.57831C12.293 2.41016 12.1406 2.27591 11.9604 2.19129C11.7802 2.10667 11.5796 2.07521 11.3821 2.10058C11.1846 2.12594 10.9985 2.2071 10.8455 2.33453L4.56423 7.5689C4.44568 7.66713 4.35025 7.7903 4.28476 7.92964C4.21926 8.06897 4.1853 8.22103 4.1853 8.37499C4.1853 8.52895 4.21926 8.68102 4.28476 8.82035C4.35025 8.95968 4.44568 9.08285 4.56423 9.18109L10.8455 14.4155C11.0338 14.5715 11.2709 14.6567 11.5155 14.6562C11.6671 14.6563 11.8169 14.6242 11.9552 14.562C12.1369 14.4779 12.2907 14.3435 12.3983 14.1746C12.5059 14.0058 12.5628 13.8096 12.5624 13.6094V11.5156H26.1717C26.4494 11.5156 26.7157 11.4053 26.912 11.209C27.1083 11.0127 27.2186 10.7464 27.2186 10.4687V6.28124C27.2186 6.0036 27.1083 5.73732 26.912 5.54099C26.7157 5.34466 26.4494 5.23437 26.1717 5.23437ZM25.1249 9.42187H11.5155C11.2378 9.42187 10.9716 9.53216 10.7752 9.72849C10.5789 9.92482 10.4686 10.1911 10.4686 10.4687V11.3795L6.86735 8.37499L10.4686 5.37046V6.28124C10.4686 6.55889 10.5789 6.82517 10.7752 7.0215C10.9716 7.21782 11.2378 7.32812 11.5155 7.32812H25.1249V9.42187Z" fill="#E5E5E5"/>
<path d="M26.8419 57.8189L20.5606 52.5845C20.4076 52.4571 20.2215 52.3759 20.024 52.3506C19.8265 52.3252 19.6259 52.3567 19.4457 52.4413C19.2655 52.5259 19.1131 52.6602 19.0065 52.8283C18.8999 52.9965 18.8434 53.1915 18.8438 53.3906V55.4844H5.23438C4.95673 55.4844 4.69045 55.5947 4.49412 55.791C4.2978 55.9873 4.1875 56.2536 4.1875 56.5312V60.7188C4.1875 60.9964 4.2978 61.2627 4.49412 61.459C4.69045 61.6553 4.95673 61.7656 5.23438 61.7656H18.8438V63.8594C18.8433 64.0596 18.9002 64.2558 19.0078 64.4246C19.1154 64.5935 19.2692 64.7279 19.4509 64.812C19.5892 64.8742 19.739 64.9063 19.8906 64.9063C20.1352 64.9067 20.3723 64.8215 20.5606 64.6655L26.8419 59.4311C26.9604 59.3329 27.0558 59.2097 27.1213 59.0704C27.1868 58.931 27.2208 58.779 27.2208 58.625C27.2208 58.471 27.1868 58.319 27.1213 58.1796C27.0558 58.0403 26.9604 57.9171 26.8419 57.8189ZM20.9375 61.6295V60.7188C20.9375 60.4411 20.8272 60.1748 20.6309 59.9785C20.4346 59.7822 20.1683 59.6719 19.8906 59.6719H6.28125V57.5781H19.8906C20.1683 57.5781 20.4346 57.4678 20.6309 57.2715C20.8272 57.0752 20.9375 56.8089 20.9375 56.5312V55.6205L24.5387 58.625L20.9375 61.6295Z" fill="#E5E5E5"/>
<path d="M9.96115 24.6172C7.60873 26.9749 6.2876 30.1694 6.2876 33.4999C6.2876 36.8305 7.60873 40.025 9.96115 42.3827L11.4414 40.9024C9.48102 38.9376 8.38003 36.2754 8.38003 33.4999C8.38003 30.7244 9.48102 28.0622 11.4414 26.0975L9.96115 24.6172Z" fill="#534294"/>
<path d="M27.7264 24.6172L26.2461 26.0975C28.2065 28.0622 29.3075 30.7244 29.3075 33.4999C29.3075 36.2754 28.2065 38.9376 26.2461 40.9024L27.7264 42.3827C30.0788 40.025 31.3999 36.8305 31.3999 33.4999C31.3999 30.1694 30.0788 26.9749 27.7264 24.6172Z" fill="#534294"/>
<path d="M54.85 27.3035L47.5219 24.1629C47.3914 24.1074 47.2511 24.0789 47.1094 24.0789C46.9677 24.0789 46.8274 24.1074 46.6969 24.1629L39.3688 27.3035C39.1805 27.3842 39.0201 27.5184 38.9073 27.6894C38.7945 27.8604 38.7344 28.0608 38.7344 28.2656V31.9454C38.7319 32.9081 38.9203 33.8618 39.2887 34.7512C39.657 35.6407 40.1981 36.4483 40.8805 37.1274L46.3693 42.6151C46.5656 42.8114 46.8318 42.9216 47.1094 42.9216C47.387 42.9216 47.6532 42.8114 47.8495 42.6151L53.3383 37.1274C54.0207 36.4483 54.5618 35.6407 54.9301 34.7512C55.2985 33.8618 55.4869 32.9081 55.4844 31.9454V28.2656C55.4844 28.0608 55.4243 27.8604 55.3115 27.6894C55.1987 27.5184 55.0383 27.3842 54.85 27.3035ZM53.3907 31.9454C53.3923 32.633 53.2577 33.3142 52.9947 33.9496C52.7316 34.5849 52.3453 35.1619 51.858 35.6471L47.1094 40.3947L42.3618 35.6471C41.8742 35.1621 41.4876 34.5852 41.2243 33.9498C40.9611 33.3144 40.8264 32.6331 40.8281 31.9454V28.9555L47.1094 26.264L53.3907 28.9555V31.9454Z" fill="#534294"/>
<path d="M45.7559 31.7129L44.2756 33.1932L46.3694 35.2869C46.5657 35.4832 46.8319 35.5934 47.1095 35.5934C47.3871 35.5934 47.6534 35.4832 47.8497 35.2869L52.0372 31.0994L50.5569 29.6191L47.1095 33.0665L45.7559 31.7129Z" fill="#534294"/>
<path fill-rule="evenodd" clip-rule="evenodd" d="M19 38C21.2091 38 23 36.2091 23 34C23 31.7909 21.2091 30 19 30C16.7909 30 15 31.7909 15 34C15 36.2091 16.7909 38 19 38ZM19 40C22.3137 40 25 37.3137 25 34C25 30.6863 22.3137 28 19 28C15.6863 28 13 30.6863 13 34C13 37.3137 15.6863 40 19 40Z" fill="#534294"/>
</svg>
