<svg width="23" height="23" viewBox="0 0 23 23" fill="none" xmlns="http://www.w3.org/2000/svg">
<circle cx="11.0743" cy="11.0743" r="10.5743" stroke="#828282"/>
<g clip-path="url(#clip0)">
<path d="M17.0009 8.06608C16.6946 8.525 16.3188 8.91621 15.8735 9.2397C15.8779 9.32646 15.8801 9.42452 15.8801 9.53389C15.8801 10.1415 15.7921 10.7499 15.6162 11.359C15.4403 11.9681 15.1716 12.5511 14.8101 13.1081C14.4486 13.665 14.018 14.1584 13.5183 14.5883C13.0186 15.0182 12.4179 15.3609 11.7162 15.6166C11.0146 15.8722 10.2626 16 9.46028 16C8.20814 16 7.05504 15.6595 6.00098 14.9786C6.18806 14.9995 6.36749 15.01 6.53926 15.01C7.58533 15.01 8.51963 14.6855 9.34218 14.0364C8.85444 14.0274 8.41764 13.8762 8.03177 13.5828C7.64589 13.2893 7.38035 12.9143 7.23512 12.4579C7.37867 12.4854 7.52034 12.4992 7.66014 12.4992C7.86138 12.4992 8.05939 12.4727 8.25419 12.4199C7.73368 12.3149 7.30188 12.0537 6.95878 11.6365C6.61569 11.2193 6.44414 10.7377 6.44414 10.1918V10.1637C6.76363 10.3418 7.10442 10.4366 7.4665 10.448C7.15815 10.2409 6.91368 9.97094 6.73309 9.638C6.55248 9.30505 6.46218 8.94475 6.46218 8.55708C6.46218 8.14822 6.56389 7.7675 6.76733 7.41491C7.33337 8.11455 8.01924 8.67373 8.82495 9.09244C9.63067 9.51115 10.4951 9.74369 11.4181 9.79006C11.3787 9.6248 11.359 9.45235 11.3589 9.2727C11.3589 8.64542 11.5793 8.10982 12.0201 7.66589C12.4609 7.22196 12.9927 7 13.6154 7C14.2675 7 14.8167 7.23913 15.2631 7.7174C15.7731 7.61564 16.2506 7.4316 16.6957 7.16526C16.5242 7.7088 16.1938 8.1281 15.7045 8.42317C16.1542 8.36934 16.5864 8.25031 17.0009 8.06608H17.0009Z" fill="#828282"/>
</g>
<defs>
<clipPath id="clip0">
<rect width="11" height="9" fill="white" transform="translate(6 7)"/>
</clipPath>
</defs>
</svg>
