<svg width="13" height="13" viewBox="0 0 13 13" fill="none" xmlns="http://www.w3.org/2000/svg">
<circle cx="6.5" cy="6.5" r="6.5" fill="#C4C4C4"/>
<path d="M7.3545 2.78564L7.21777 8.29635H5.78219L5.64547 2.78564H7.3545ZM6.49998 11.1428C6.24173 11.1428 6.02145 11.0555 5.83916 10.8809C5.66066 10.7101 5.57141 10.4995 5.57141 10.249C5.57141 9.99852 5.66066 9.78598 5.83916 9.6114C6.02145 9.44062 6.24173 9.35522 6.49998 9.35522C6.75824 9.35522 6.97851 9.44062 7.16081 9.6114C7.3393 9.78598 7.42855 9.99852 7.42855 10.249C7.42855 10.4995 7.3393 10.7101 7.16081 10.8809C6.97851 11.0555 6.75824 11.1428 6.49998 11.1428Z" fill="white"/>
</svg>
