<svg width="71" height="71" viewBox="0 0 71 71" fill="none" xmlns="http://www.w3.org/2000/svg">
<g clip-path="url(#clip0)">
<path d="M15.7065 18.1743C16.2834 18.1743 16.7511 17.7067 16.7511 17.1297V3.47953C16.7511 3.22145 16.9572 3.01171 17.2107 3.01171H53.7894C54.3663 3.01171 54.834 2.54417 54.834 1.96716C54.834 1.39015 54.3663 0.922607 53.7894 0.922607H17.2107C15.8054 0.922607 14.662 2.06966 14.662 3.47953V17.1297C14.662 17.7066 15.1297 18.1743 15.7065 18.1743Z" fill="#E5E5E5"/>
<path d="M25.4406 17.8218H51.751C52.9657 17.8218 53.9538 16.8335 53.9538 15.6189V11.229C53.9538 10.0143 52.9656 9.02612 51.751 9.02612H25.4406C24.2258 9.02612 23.2377 10.0144 23.2377 11.229V15.6189C23.2375 16.8336 24.2258 17.8218 25.4406 17.8218ZM25.3266 11.229C25.3266 11.1662 25.3777 11.1152 25.4404 11.1152H51.7508C51.8136 11.1152 51.8646 11.1662 51.8646 11.229V15.6189C51.8646 15.6817 51.8135 15.7327 51.7508 15.7327H25.4406C25.3777 15.7327 25.3268 15.6817 25.3268 15.6189V11.229H25.3266Z" fill="#534294"/>
<path d="M24.2823 25.9258H51.4806C52.0575 25.9258 52.5251 25.4582 52.5251 24.8812C52.5251 24.3042 52.0575 23.8367 51.4806 23.8367H24.2823C23.7055 23.8367 23.2378 24.3042 23.2378 24.8812C23.2378 25.4582 23.7055 25.9258 24.2823 25.9258Z" fill="#534294"/>
<path d="M24.2823 37.802H39.3466C39.9234 37.802 40.3911 37.3344 40.3911 36.7574C40.3911 36.1804 39.9234 35.7129 39.3466 35.7129H24.2823C23.7055 35.7129 23.2378 36.1804 23.2378 36.7574C23.2378 37.3344 23.7055 37.802 24.2823 37.802Z" fill="#534294"/>
<path d="M24.2823 32.0732H51.4806C52.0575 32.0732 52.5251 31.6057 52.5251 31.0287C52.5251 30.4517 52.0575 29.9841 51.4806 29.9841H24.2823C23.7055 29.9841 23.2378 30.4517 23.2378 31.0287C23.2378 31.6057 23.7055 32.0732 24.2823 32.0732Z" fill="#534294"/>
<path d="M70.4675 21.7197C69.9959 20.8791 69.2607 20.2239 68.3692 19.8386L68.6614 18.9035C69.115 17.452 68.2578 15.8824 66.7503 15.4044L66.0246 15.1743C65.2718 14.9359 64.48 15.0009 63.7948 15.358C63.2082 15.6637 62.7657 16.1556 62.5275 16.7546V3.47953C62.5275 2.06966 61.3854 0.922607 59.9816 0.922607H58.5686C57.9966 0.922607 57.4978 1.36341 57.4807 1.93512C57.463 2.52662 57.9372 3.01171 58.5248 3.01171H59.9816C60.2336 3.01171 60.4384 3.22159 60.4384 3.47953V23.4054L58.419 29.8671C58.4184 29.8689 58.4176 29.8706 58.417 29.8724C58.4163 29.8745 58.4161 29.8767 58.4154 29.8789L56.376 36.4043C56.3754 36.4061 56.3746 36.4079 56.3739 36.4097C56.3732 36.412 56.3728 36.4142 56.3722 36.4164L55.4696 39.3045C55.0933 40.5084 55.6208 41.7917 56.6714 42.4678L56.0132 44.5739C55.8454 45.1108 56.1055 45.7084 56.6327 45.9047C56.7537 45.9497 56.877 45.9708 56.9978 45.9708C57.4425 45.9708 57.8548 45.6845 57.9945 45.2376L58.6467 43.1503C58.7676 43.1653 58.8886 43.1749 59.0092 43.1749C59.4688 43.1749 59.9219 43.0657 60.3358 42.8499C60.3713 42.8313 60.4042 42.8096 60.4387 42.7898V56.5303H51.9068C50.5258 56.5303 49.4023 57.6518 49.4023 59.0304V67.9885H17.2111C16.9579 67.9885 16.7518 67.7782 16.7518 67.5198V64.2867C16.7518 64.2776 16.7506 64.2688 16.7504 64.2599H22.237C23.5963 64.2599 24.7022 63.1664 24.7022 61.8224V50.5325H25.464C26.0379 50.5325 26.5825 50.2281 26.8424 49.7165C27.1421 49.1262 27.0237 48.4258 26.5599 47.9688L16.7519 38.3016V21.8172C16.7519 21.2452 16.3112 20.7465 15.7395 20.7294C15.148 20.7115 14.6628 21.1858 14.6628 21.7735V36.2427L14.2518 35.8376C13.644 35.2386 12.8344 35.373 12.4528 36.1362V36.1363L0.447452 47.9686C-0.0166062 48.4257 -0.134988 49.1261 0.164867 49.7163C0.424751 50.228 0.96931 50.5325 1.54325 50.5325H2.30508V61.8224C2.30508 63.1664 3.41091 64.2599 4.77022 64.2599H14.6641C14.6638 64.269 14.6627 64.2776 14.6627 64.2867V67.5198C14.6627 68.9302 15.8058 70.0777 17.2111 70.0777H50.5253C50.789 70.0777 51.5149 69.6533 51.639 69.5256L62.1168 58.7382C62.2959 58.5539 62.4113 58.3265 62.4592 58.0858C62.5029 57.9705 62.528 57.8461 62.528 57.7155V38.5284L62.5752 38.3775C62.5753 38.377 62.5756 38.3765 62.5757 38.3761C62.576 38.3751 62.5762 38.3743 62.5764 38.3733L64.6183 31.8399C64.6185 31.8396 64.6186 31.8393 64.6187 31.8389C64.6189 31.8384 64.619 31.8378 64.6192 31.8371L67.7393 21.8537C68.121 22.0622 68.4351 22.3668 68.6449 22.7407C68.9189 23.2307 68.9826 23.7797 68.8242 24.2865L67.1855 29.5302C67.0135 30.0809 67.3204 30.6666 67.8709 30.8388C67.9747 30.8712 68.0795 30.8867 68.1829 30.8867C68.6276 30.8867 69.0398 30.6004 69.1795 30.1534L70.8184 24.9098C71.1497 23.8494 71.0253 22.7168 70.4675 21.7197ZM15.8915 62.1707H11.1158V55.5686H15.8915V62.1707ZM13.5038 38.0335L24.0656 48.4432H2.94184L13.5038 38.0335ZM4.39418 61.8222V50.5323H22.6132V61.8222C22.6132 62.0144 22.4446 62.1707 22.2372 62.1707H17.9806V55.1693C17.9806 54.2375 17.2168 53.4795 16.2781 53.4795H10.7293C9.7906 53.4795 9.02683 54.2374 9.02683 55.1693V62.1707H4.77022C4.56298 62.1707 4.39418 62.0144 4.39418 61.8222ZM64.4515 17.5686C64.5122 17.3741 64.653 17.2666 64.7604 17.2106C64.8707 17.1531 64.9964 17.124 65.1257 17.124C65.2145 17.124 65.3051 17.1379 65.3931 17.1658L66.1189 17.3959C66.5328 17.527 66.7787 17.9238 66.6673 18.2804L62.9388 30.2105L60.7203 29.5071L64.4515 17.5686ZM60.8958 36.7476L58.6773 36.0443L60.0972 31.501L62.3157 32.2045L60.8958 36.7476ZM59.3706 40.9972C59.1846 41.0943 58.9539 41.1106 58.7381 41.0421L58.0123 40.812C57.5985 40.681 57.3526 40.2842 57.4638 39.9276L58.0544 38.0382L60.2729 38.7416L59.6798 40.6392C59.6188 40.8337 59.478 40.9413 59.3706 40.9972ZM51.4915 66.679V59.0302C51.4915 58.8036 51.6779 58.6192 51.907 58.6192H59.3199L51.4915 66.679Z" fill="#E5E5E5"/>
<path d="M33.7704 53.2693C33.8887 53.3125 34.0097 53.3329 34.1288 53.3329C34.5549 53.3329 34.9552 53.07 35.11 52.6464L35.9705 50.2906C36.0928 50.7937 36.2028 51.215 36.2992 51.548C36.5191 52.3086 36.7684 53.1707 37.6642 53.1707C38.1623 53.1707 38.4306 53.1705 41.5697 49.4862C42.6256 50.6469 44.4382 52.2786 46.1403 52.0848C47.1692 51.9662 47.9759 51.2913 48.6874 50.6956C49.9306 49.6553 50.0228 49.751 50.4116 50.1535C52.3697 52.1821 54.7617 51.4909 55.7529 50.8415C56.2355 50.5255 56.3706 49.8781 56.0547 49.3954C55.7387 48.9128 55.0912 48.7777 54.6086 49.0937C54.5506 49.1315 53.1747 50.0079 51.9148 48.7025C50.9069 47.6584 49.8969 47.6872 49.2274 47.8954C48.5126 48.1177 47.9199 48.6137 47.3468 49.0934C46.8364 49.5205 46.3085 49.9622 45.9014 50.009C45.1372 50.0962 43.4786 48.6443 42.4079 47.2332C42.2162 46.9798 41.9197 46.8275 41.602 46.8191C41.2859 46.8108 40.9805 46.9475 40.7757 47.1904C39.8808 48.2534 38.8549 49.4333 38.1123 50.2479C37.8458 49.1955 37.5116 47.6942 37.2418 46.361C37.1489 45.9027 36.7629 45.5619 36.2966 45.5268C35.8307 45.4907 35.3973 45.7708 35.2368 46.2099L33.1477 51.9292C32.9497 52.4715 33.2285 53.0714 33.7704 53.2693Z" fill="#534294"/>
</g>
<defs>
<clipPath id="clip0">
<rect width="71" height="71" fill="white"/>
</clipPath>
</defs>
</svg>
