<svg width="71" height="71" viewBox="0 0 71 71" fill="none" xmlns="http://www.w3.org/2000/svg">
<g clip-path="url(#clip0)">
<path d="M70.6958 32.6045C70.2899 32.1982 69.6313 32.1978 69.2249 32.6038L65.2945 36.5302L49.1891 20.1017L67.5376 1.77731C67.9441 1.37142 67.9445 0.712868 67.5386 0.30656C67.1327 -0.0998877 66.4742 -0.100442 66.0679 0.305589L43.5358 22.8079C42.4709 23.8715 41.9295 25.2988 42.0223 26.804H40.6325C38.5368 26.804 36.5331 27.699 35.1356 29.2596L34.9346 29.4841C33.0183 28.5248 30.9113 27.9857 28.7684 27.9095C29.2729 26.0984 28.7481 24.1158 27.3995 22.8034L4.64357 0.386712C4.23421 -0.0165459 3.57565 -0.011415 3.17281 0.397806C2.76969 0.807027 2.77455 1.46544 3.18391 1.86856L22.6157 21.0107L8.60653 35.3005C8.20438 35.7107 8.2109 36.3693 8.62109 36.7713C9.03114 37.1732 9.68956 37.1671 10.0918 36.7567L24.0974 22.4703L25.9422 24.2876C26.5417 24.8742 26.8742 25.659 26.8785 26.4971C26.8828 27.3352 26.5584 28.1234 25.9651 28.7161L14.1308 40.5385C12.9142 41.7539 10.9344 41.7541 9.71757 40.5385L1.775 32.6038C1.36869 32.1979 0.710138 32.1982 0.304107 32.6045C-0.101786 33.0109 -0.101508 33.6694 0.3048 34.0754L8.24737 42.0099C9.2612 43.0228 10.5925 43.5289 11.9241 43.5289C12.4063 43.5289 12.8882 43.4615 13.3553 43.3287C13.3814 44.034 13.458 44.7368 13.5833 45.4334C13.112 45.6499 12.6704 45.9515 12.2827 46.339L9.99963 48.6197C9.14804 49.4703 8.6792 50.6012 8.6792 51.8043C8.6792 53.0076 9.14804 54.1384 9.99963 54.989C10.9806 55.9677 12.3003 56.4059 13.6016 56.2862C13.4782 57.6188 13.9505 58.938 14.9024 59.8869C15.7809 60.7646 16.9347 61.2034 18.0888 61.2034C18.2274 61.2034 18.3661 61.1967 18.5042 61.1839C18.3808 62.5166 18.8542 63.8348 19.8051 64.7847C20.7852 65.7637 22.1058 66.2012 23.407 66.0818C23.2836 67.4145 23.7559 68.7336 24.7079 69.6827C25.5863 70.5604 26.7402 70.9991 27.8943 70.9991C29.0482 70.9991 30.2022 70.5604 31.0808 69.6827L32.5829 68.1822L34.085 69.6827C34.9635 70.5604 36.1174 70.9991 37.2714 70.9991C38.4254 70.9991 39.5794 70.5602 40.4579 69.6826C41.407 68.7343 41.88 67.4121 41.7588 66.0818C43.0648 66.2021 44.3772 65.7672 45.3607 64.7847C46.3099 63.8366 46.7828 62.5142 46.6616 61.1839C47.9674 61.304 49.28 60.8694 50.2636 59.8868C51.2126 58.9387 51.6855 57.6163 51.5643 56.286C52.8702 56.4061 54.1827 55.9711 55.1662 54.9888C56.0178 54.1382 56.4866 53.0073 56.4866 51.8042C56.4866 50.6009 56.0177 49.47 55.1663 48.6194L53.907 47.3614C54.7961 46.6832 55.6089 45.9123 56.3312 45.0569C56.7936 44.5092 57.2182 43.9259 57.6011 43.3166C58.0816 43.4576 58.5786 43.5284 59.0756 43.5284C60.4071 43.5284 61.7387 43.0221 62.7523 42.0094L70.6949 34.075C71.1014 33.6693 71.1016 33.0109 70.6958 32.6045ZM14.9025 53.5176C13.9562 54.4632 12.4164 54.4631 11.47 53.5176C11.0119 53.0598 10.7596 52.4515 10.7596 51.8044C10.7596 51.1574 11.0118 50.549 11.47 50.0913L13.7531 47.8106C14.2262 47.3378 14.8477 47.1015 15.4693 47.1015C16.0908 47.1015 16.7125 47.3378 17.1856 47.8106C17.6436 48.2683 17.896 48.8767 17.896 49.5237C17.896 50.1708 17.6438 50.7791 17.1856 51.2369L14.9025 53.5176ZM16.3726 58.4155C15.9145 57.9577 15.6623 57.3494 15.6623 56.7023C15.6623 56.0553 15.9145 55.4468 16.3727 54.9892L18.6558 52.7084C19.6022 51.7633 21.1422 51.7633 22.0886 52.7084C22.5467 53.1662 22.799 53.7746 22.799 54.4216C22.799 55.0686 22.5468 55.677 22.0886 56.1348L19.8055 58.4156C18.859 59.3608 17.319 59.3608 16.3726 58.4155ZM21.2753 63.3132C20.8173 62.8555 20.5649 62.2471 20.5649 61.6001C20.5649 60.9531 20.8171 60.3447 21.2753 59.8869L23.5584 57.6061C24.0317 57.1333 24.6532 56.897 25.2747 56.897C25.8963 56.897 26.5179 57.1335 26.9911 57.6061C27.4493 58.0638 27.7015 58.6722 27.7015 59.3192C27.7015 59.9663 27.4493 60.5747 26.9911 61.0324L24.708 63.3131C23.7617 64.2586 22.2219 64.2586 21.2753 63.3132ZM31.8941 65.9304L29.611 68.2113C28.6646 69.1565 27.1246 69.1565 26.1782 68.2113C25.7202 67.7535 25.4678 67.145 25.4678 66.498C25.4678 65.8509 25.72 65.2426 26.1782 64.7848L28.4613 62.5041C28.9344 62.0314 29.5561 61.7951 30.1776 61.7951C30.7992 61.7951 31.4208 62.0314 31.894 62.5041C32.3521 62.9618 32.6044 63.5702 32.6044 64.2172C32.6044 64.8643 32.3521 65.4726 31.8941 65.9304ZM54.4068 51.8044C54.4068 52.4515 54.1546 53.0598 53.6964 53.5176C52.7501 54.4631 51.2101 54.4632 50.2638 53.5176L42.8116 46.0729C42.4053 45.667 41.7468 45.6671 41.3407 46.0736C40.9348 46.48 40.9351 47.1386 41.3414 47.5443L48.7936 54.989C49.2517 55.4468 49.5041 56.0552 49.5041 56.7022C49.5041 57.3492 49.2518 57.9577 48.7936 58.4154C47.8475 59.3604 46.3079 59.3605 45.3615 58.4158L37.9089 50.9705C37.5026 50.5644 36.844 50.5649 36.438 50.9712C36.0321 51.3776 36.0324 52.0362 36.4387 52.4419L43.891 59.8868C44.3491 60.3446 44.6015 60.9529 44.6015 61.6C44.6015 62.2471 44.3492 62.8555 43.891 63.3131C42.9445 64.2584 41.4045 64.2584 40.4584 63.3131L33.0061 55.8684C32.5998 55.4623 31.9413 55.4628 31.5352 55.8691C31.1293 56.2755 31.1296 56.9341 31.5359 57.3398L38.9883 64.7846C39.4463 65.2423 39.6987 65.8507 39.6987 66.4977C39.6987 67.1449 39.4465 67.7534 38.9883 68.211C38.0417 69.1563 36.5018 69.1562 35.5556 68.211L33.9795 66.6364C34.438 65.9201 34.6849 65.0877 34.6847 64.2168C34.6847 63.0137 34.2159 61.8828 33.3645 61.0322C32.3804 60.049 31.0507 59.6168 29.7626 59.735C29.7751 59.5974 29.7821 59.4589 29.7821 59.3191C29.7821 58.116 29.3133 56.985 28.4617 56.1343C27.4777 55.1513 26.148 54.7192 24.8598 54.8373C24.8723 54.6998 24.8794 54.5611 24.8794 54.4213C24.8794 53.2181 24.4105 52.0872 23.559 51.2366C22.5749 50.2535 21.2452 49.8214 19.9571 49.9396C19.9696 49.802 19.9767 49.6634 19.9767 49.5236C19.9767 48.3203 19.5078 47.1894 18.6564 46.3388C17.817 45.5001 16.726 45.0632 15.624 45.0257C15.4565 44.0797 15.3952 43.1208 15.4414 42.1618C15.4955 42.1121 15.5491 42.0621 15.6016 42.0096L27.4358 30.1874C27.4984 30.125 27.559 30.0612 27.6179 29.9963C29.6339 29.8978 31.6516 30.2816 33.4876 31.1003L26.9114 38.443C25.7681 39.7196 25.8222 41.6684 27.0346 42.8794C29.3355 45.178 33.0789 45.178 35.3796 42.8794L40.1938 38.0701C40.5991 37.6652 41.2586 37.6652 41.6638 38.0701L51.5617 47.9581L53.6969 50.0912C54.1544 50.549 54.4068 51.1573 54.4068 51.8044ZM54.7421 43.7153C54.0574 44.5264 53.279 45.2512 52.4214 45.8775L43.1333 36.5987C41.9173 35.3842 39.939 35.384 38.723 36.5988L33.9089 41.4081C32.4188 42.8964 29.9943 42.8967 28.5041 41.4081C28.0731 40.9775 28.0539 40.2847 28.4603 39.831L36.6851 30.6474C37.6887 29.5268 39.1274 28.8842 40.6325 28.8842H42.5981C42.8405 29.3479 43.154 29.7774 43.5348 30.1579L55.3989 42.0099C55.5142 42.1251 55.6342 42.2329 55.7573 42.3351C55.4475 42.8163 55.11 43.2797 54.7421 43.7153ZM61.2823 40.5383C60.0657 41.7539 58.0859 41.7539 56.8691 40.5383L45.005 28.6862C44.4158 28.0975 44.0914 27.315 44.0916 26.4828C44.0917 25.6507 44.4162 24.8681 45.0055 24.2797L47.7173 21.5716L63.8229 38.0002L61.2823 40.5383Z" fill="#E5E5E5"/>
<path fill-rule="evenodd" clip-rule="evenodd" d="M35.4999 20.9999C40.7466 20.9999 44.9999 16.7466 44.9999 11.4999C44.9999 6.25317 40.7466 1.99988 35.4999 1.99988C30.2532 1.99988 25.9999 6.25317 25.9999 11.4999C25.9999 16.7466 30.2532 20.9999 35.4999 20.9999ZM35.4999 22.9999C41.8512 22.9999 46.9999 17.8512 46.9999 11.4999C46.9999 5.1486 41.8512 -0.00012207 35.4999 -0.00012207C29.1486 -0.00012207 23.9999 5.1486 23.9999 11.4999C23.9999 17.8512 29.1486 22.9999 35.4999 22.9999Z" fill="#534294"/>
<path fill-rule="evenodd" clip-rule="evenodd" d="M41.6895 8.27586C42.0895 8.65675 42.1049 9.28973 41.724 9.68966L35.0574 16.6897C34.8686 16.8878 34.6069 17 34.3332 17C34.0595 17 33.7978 16.8878 33.6091 16.6897L30.2757 13.1897C29.8949 12.7897 29.9103 12.1567 30.3102 11.7759C30.7102 11.395 31.3431 11.4104 31.724 11.8103L34.3332 14.55L40.2757 8.31035C40.6566 7.91042 41.2896 7.89498 41.6895 8.27586Z" fill="#534294"/>
</g>
<defs>
<clipPath id="clip0">
<rect width="71" height="71" fill="white"/>
</clipPath>
</defs>
</svg>
