<svg width="71" height="71" viewBox="0 0 71 71" fill="none" xmlns="http://www.w3.org/2000/svg">
<path d="M19.5861 63.655H17.1378V66.1033H19.5861V63.655Z" fill="#E5E5E5"/>
<path d="M69.7759 0H15.9138C15.2378 0 14.6897 0.548108 14.6897 1.22414V44.069H12.2414C11.5653 44.069 11.0172 44.6171 11.0172 45.2931V46.5172H0V48.9655H11.0172V66.1034H0V68.5517H11.0172V69.7759C11.0172 70.4519 11.5653 71 12.2414 71H24.4828C25.1588 71 25.7069 70.4519 25.7069 69.7759V68.5517H29.0953C32.4162 70.1579 36.0564 70.9948 39.7453 71H52.0259C54.3888 71.0032 56.3068 69.0903 56.31 66.7275C56.3116 65.5703 55.8444 64.462 55.0152 63.6552C55.6847 62.9972 56.118 62.1365 56.2479 61.2069H69.7759C70.4519 61.2069 71 60.6588 71 59.9828V1.22414C71 0.548108 70.4519 0 69.7759 0ZM23.2586 68.5517H13.4655V46.5172H23.2586V68.5517ZM52.0259 52.6379C53.0399 52.6379 53.8621 53.4601 53.8621 54.4741C53.8621 55.4882 53.0399 56.3103 52.0259 56.3103H48.9655V58.7586H52.0259C53.0399 58.7586 53.8621 59.5808 53.8621 60.5948C53.8621 61.6089 53.0399 62.431 52.0259 62.431H48.9655V64.8793H52.0259C53.0399 64.8793 53.8621 65.7015 53.8621 66.7155C53.8621 67.7296 53.0399 68.5517 52.0259 68.5517H39.7502C36.3399 68.5458 32.9774 67.7496 29.9265 66.2259C29.756 66.1432 29.5687 66.1013 29.3793 66.1034H25.7069V48.9655H29.3793C29.6756 48.9655 29.9617 48.8581 30.1848 48.6632L32.3809 46.7413C36.986 42.7328 39.1952 36.631 38.2237 30.6034H38.4685C40.4803 30.5969 42.2366 31.965 42.7224 33.9172C43.5698 37.2762 43.3293 40.8173 42.0357 44.031L42.0161 44.069H39.1724V46.5172H52.0259C53.0399 46.5172 53.8621 47.3394 53.8621 48.3534C53.8621 49.3675 53.0399 50.1897 52.0259 50.1897H48.9655V52.6379H52.0259ZM68.5517 58.7586H55.8807C55.666 58.3031 55.3731 57.8887 55.0152 57.5345C56.7054 55.8949 56.7464 53.1957 55.1069 51.5054C55.0767 51.4744 55.0463 51.4439 55.0152 51.4138C56.7088 49.7661 56.746 47.0574 55.0981 45.3638C54.2913 44.5344 53.1828 44.0673 52.0259 44.069H44.6137C45.8181 40.6109 45.9846 36.8761 45.0923 33.3247C44.3369 30.2843 41.6051 28.151 38.4722 28.1552H36.7241C36.0481 28.1553 35.5002 28.7036 35.5003 29.3796C35.5003 29.4794 35.5125 29.5787 35.5367 29.6756C36.9431 35.2425 35.1003 41.1272 30.7699 44.8977L28.919 46.5172H25.7069V45.2931C25.7069 44.6171 25.1588 44.069 24.4828 44.069H17.1379V2.44828H68.5517V58.7586Z" fill="#E5E5E5"/>
<path d="M39.1723 7.34473H22.0344V9.793H39.1723V7.34473Z" fill="#534294"/>
<path d="M63.6551 14.6897H22.0344V17.138H63.6551V14.6897Z" fill="#534294"/>
<path d="M63.6551 22.0344H22.0344V24.4827H63.6551V22.0344Z" fill="#534294"/>
<path d="M63.6552 29.3794H50.1897V31.8277H63.6552V29.3794Z" fill="#534294"/>
<path d="M63.6552 36.7241H50.1897V39.1724H63.6552V36.7241Z" fill="#534294"/>
</svg>
