<svg width="137" height="41" viewBox="0 0 137 41" fill="none" xmlns="http://www.w3.org/2000/svg">
<path d="M132.126 41H4.79906C2.15344 41 0 38.8188 0 36.1487V4.84415C0 2.173 2.15344 0 4.79906 0H132.126C134.77 0 137 2.173 137 4.84415V36.1487C137 38.8188 134.77 41 132.126 41Z" fill="#A6A6A6"/>
<path d="M136.018 36.1496C136.018 38.3185 134.278 40.0753 132.127 40.0753H4.79895C2.64856 40.0753 0.903076 38.3185 0.903076 36.1496V4.84298C0.903076 2.67511 2.64856 0.912109 4.79895 0.912109H132.126C134.278 0.912109 136.017 2.67511 136.017 4.84298L136.018 36.1496Z" fill="#FAFAFA"/>
<path d="M30.5744 20.2786C30.5449 16.975 33.2525 15.3678 33.3763 15.293C31.8429 13.0349 29.4662 12.7264 28.631 12.7018C26.6349 12.4896 24.6986 13.9082 23.6818 13.9082C22.6446 13.9082 21.0787 12.7223 19.3911 12.7572C17.2194 12.791 15.1877 14.061 14.0735 16.0331C11.7739 20.0541 13.489 25.9633 15.6921 29.2135C16.7942 30.8054 18.082 32.5827 19.7676 32.5202C21.4167 32.4515 22.0327 31.4583 24.0227 31.4583C25.9945 31.4583 26.573 32.5202 28.2921 32.4802C30.0619 32.4515 31.1762 30.8812 32.2397 29.275C33.5133 27.4505 34.0247 25.6537 34.045 25.5615C34.0034 25.5471 30.6079 24.2382 30.5744 20.2786Z" fill="#1B1B1B"/>
<path d="M27.3269 10.5638C28.2139 9.44346 28.8207 7.91928 28.6523 6.37256C27.3685 6.42996 25.7631 7.26943 24.8386 8.36516C24.0207 9.33071 23.29 10.9133 23.4788 12.4016C24.9208 12.5103 26.4014 11.6667 27.3269 10.5638Z" fill="#1B1B1B"/>
<path d="M54.4398 32.2916H52.1351L50.8727 28.2849H46.4846L45.2821 32.2916H43.0383L47.3858 18.6509H50.071L54.4398 32.2916ZM50.4921 26.6039L49.3505 23.042C49.2297 22.6781 49.0034 21.8212 48.6695 20.4723H48.6289C48.496 21.0525 48.2819 21.9094 47.9876 23.042L46.8662 26.6039H50.4921Z" fill="#1B1B1B"/>
<path d="M65.6201 27.2528C65.6201 28.9256 65.1726 30.2479 64.2775 31.2186C63.4758 32.0826 62.4803 32.5142 61.2919 32.5142C60.0092 32.5142 59.0877 32.0488 58.5265 31.1181H58.4859V36.2995H56.3224V25.6938C56.3224 24.6422 56.295 23.5628 56.2422 22.4558H58.145L58.2657 24.0149H58.3063C59.0279 22.8402 60.1228 22.2539 61.5923 22.2539C62.7411 22.2539 63.7001 22.7121 64.4673 23.6295C65.2365 24.5479 65.6201 25.7553 65.6201 27.2528ZM63.4159 27.3328C63.4159 26.3754 63.2028 25.5862 62.7746 24.965C62.3067 24.3172 61.6785 23.9933 60.8911 23.9933C60.3573 23.9933 59.8722 24.1737 59.4389 24.5294C59.0045 24.8882 58.7204 25.3566 58.5874 25.9367C58.5204 26.2073 58.487 26.4287 58.487 26.603V28.243C58.487 28.9584 58.7041 29.5622 59.1385 30.0552C59.5728 30.5482 60.137 30.7942 60.8312 30.7942C61.6461 30.7942 62.2803 30.4765 62.734 29.843C63.1886 29.2085 63.4159 28.3721 63.4159 27.3328Z" fill="#1B1B1B"/>
<path d="M76.8205 27.2528C76.8205 28.9256 76.373 30.2479 75.4769 31.2186C74.6762 32.0826 73.6806 32.5142 72.4923 32.5142C71.2096 32.5142 70.2881 32.0488 69.7279 31.1181H69.6874V36.2995H67.5238V25.6938C67.5238 24.6422 67.4964 23.5628 67.4436 22.4558H69.3464L69.4671 24.0149H69.5077C70.2282 22.8402 71.3232 22.2539 72.7937 22.2539C73.9415 22.2539 74.9005 22.7121 75.6697 23.6295C76.4359 24.5479 76.8205 25.7553 76.8205 27.2528ZM74.6163 27.3328C74.6163 26.3754 74.4022 25.5862 73.9739 24.965C73.5061 24.3172 72.88 23.9933 72.0915 23.9933C71.5566 23.9933 71.0726 24.1737 70.6382 24.5294C70.2039 24.8882 69.9208 25.3566 69.7878 25.9367C69.7219 26.2073 69.6874 26.4287 69.6874 26.603V28.243C69.6874 28.9584 69.9045 29.5622 70.3368 30.0552C70.7712 30.5472 71.3354 30.7942 72.0316 30.7942C72.8465 30.7942 73.4807 30.4765 73.9344 29.843C74.389 29.2085 74.6163 28.3721 74.6163 27.3328Z" fill="#1B1B1B"/>
<path d="M89.3434 28.4664C89.3434 29.6267 88.9446 30.5708 88.1439 31.2995C87.264 32.096 86.0392 32.4937 84.4652 32.4937C83.012 32.4937 81.847 32.2108 80.9651 31.6439L81.4664 29.8225C82.4163 30.4027 83.4585 30.6938 84.5941 30.6938C85.409 30.6938 86.0432 30.5072 86.4989 30.1362C86.9525 29.7651 87.1788 29.267 87.1788 28.6458C87.1788 28.0923 86.9921 27.6259 86.6176 27.2477C86.2452 26.8695 85.6231 26.5179 84.7544 26.193C82.3899 25.3023 81.2086 23.9974 81.2086 22.2816C81.2086 21.1602 81.6227 20.2408 82.4518 19.5254C83.2779 18.8089 84.3799 18.4512 85.7581 18.4512C86.987 18.4512 88.0079 18.6674 88.8228 19.099L88.2819 20.8804C87.5208 20.4622 86.6602 20.2531 85.6972 20.2531C84.9361 20.2531 84.3414 20.4427 83.9152 20.8199C83.5549 21.1572 83.3743 21.5682 83.3743 22.0551C83.3743 22.5942 83.5803 23.0401 83.9943 23.3906C84.3546 23.7145 85.0091 24.0651 85.959 24.4433C87.121 24.9158 87.9744 25.4683 88.5234 26.1018C89.0704 26.7332 89.3434 27.5234 89.3434 28.4664Z" fill="#1B1B1B"/>
<path d="M96.4967 24.0957H94.1119V28.8711C94.1119 30.0858 94.5321 30.6926 95.3743 30.6926C95.761 30.6926 96.0817 30.6587 96.3354 30.5911L96.3952 32.2506C95.969 32.4115 95.4078 32.4925 94.7127 32.4925C93.8582 32.4925 93.1905 32.229 92.7084 31.7032C92.2284 31.1764 91.9869 30.2928 91.9869 29.0515V24.0936H90.5662V22.4536H91.9869V20.6527L94.1119 20.0049V22.4536H96.4967V24.0957Z" fill="#1B1B1B"/>
<path d="M107.257 27.2928C107.257 28.8046 106.828 30.0459 105.974 31.0166C105.078 32.016 103.889 32.5141 102.406 32.5141C100.977 32.5141 99.8395 32.0354 98.9911 31.0781C98.1427 30.1207 97.7185 28.9123 97.7185 27.4557C97.7185 25.9316 98.1549 24.6831 99.0307 23.7124C99.9044 22.7407 101.084 22.2549 102.566 22.2549C103.995 22.2549 105.145 22.7336 106.013 23.6919C106.843 24.6216 107.257 25.8219 107.257 27.2928ZM105.012 27.3635C105.012 26.4564 104.82 25.6784 104.431 25.0296C103.978 24.2444 103.329 23.8529 102.489 23.8529C101.619 23.8529 100.959 24.2454 100.505 25.0296C100.117 25.6794 99.9247 26.4697 99.9247 27.4045C99.9247 28.3116 100.117 29.0896 100.505 29.7374C100.973 30.5225 101.627 30.9141 102.47 30.9141C103.296 30.9141 103.944 30.5143 104.412 29.7169C104.811 29.0558 105.012 28.2696 105.012 27.3635Z" fill="#1B1B1B"/>
<path d="M114.289 24.3777C114.075 24.3377 113.847 24.3172 113.607 24.3172C112.846 24.3172 112.258 24.6073 111.844 25.1885C111.483 25.701 111.303 26.3488 111.303 27.1309V32.2917H109.14L109.161 25.5534C109.161 24.4197 109.133 23.3876 109.079 22.4569H110.964L111.043 24.3388H111.103C111.331 23.692 111.691 23.1713 112.185 22.7808C112.667 22.4292 113.187 22.2539 113.749 22.2539C113.948 22.2539 114.129 22.2683 114.289 22.2939V24.3777Z" fill="#1B1B1B"/>
<path d="M123.966 26.9083C123.966 27.2999 123.941 27.6299 123.887 27.8995H117.396C117.421 28.8712 117.735 29.6143 118.338 30.1268C118.885 30.585 119.592 30.8146 120.461 30.8146C121.422 30.8146 122.299 30.6598 123.087 30.3492L123.426 31.8663C122.505 32.2722 121.417 32.4741 120.161 32.4741C118.651 32.4741 117.466 32.0251 116.603 31.1282C115.743 30.2314 115.312 29.027 115.312 27.5161C115.312 26.033 115.712 24.7979 116.515 23.8128C117.355 22.7612 118.491 22.2354 119.92 22.2354C121.323 22.2354 122.386 22.7612 123.107 23.8128C123.679 24.6482 123.966 25.6814 123.966 26.9083ZM121.903 26.3415C121.917 25.6937 121.776 25.134 121.483 24.6615C121.108 24.0537 120.533 23.7503 119.758 23.7503C119.051 23.7503 118.476 24.0465 118.036 24.641C117.676 25.1136 117.462 25.6804 117.396 26.3405H121.903V26.3415Z" fill="#1B1B1B"/>
<path d="M49.7766 10.2592C49.7766 11.4656 49.4184 12.3737 48.7029 12.9836C48.0403 13.5463 47.0985 13.8282 45.8787 13.8282C45.2739 13.8282 44.7563 13.8016 44.323 13.7483V7.15649C44.8882 7.06424 45.4971 7.01709 46.1547 7.01709C47.3167 7.01709 48.1925 7.27231 48.7831 7.78276C49.4448 8.35984 49.7766 9.18496 49.7766 10.2592ZM48.6552 10.2889C48.6552 9.50681 48.4503 8.90719 48.0403 8.48899C47.6303 8.07181 47.0315 7.86271 46.243 7.86271C45.9081 7.86271 45.623 7.88526 45.3865 7.93241V12.9436C45.5174 12.9641 45.7569 12.9734 46.105 12.9734C46.9189 12.9734 47.5471 12.7448 47.9895 12.2876C48.432 11.8305 48.6552 11.1642 48.6552 10.2889Z" fill="#1B1B1B"/>
<path d="M55.7225 11.3127C55.7225 12.0559 55.5124 12.6647 55.0923 13.1424C54.6519 13.6333 54.0684 13.8783 53.3397 13.8783C52.6375 13.8783 52.0783 13.6436 51.6612 13.1721C51.2451 12.7016 51.0371 12.1081 51.0371 11.3927C51.0371 10.6444 51.2512 10.0305 51.6815 9.55383C52.1118 9.0772 52.6902 8.83838 53.4189 8.83838C54.1211 8.83838 54.6854 9.0731 55.1126 9.54358C55.5185 10.0007 55.7225 10.5911 55.7225 11.3127ZM54.6194 11.3476C54.6194 10.9017 54.524 10.5194 54.3342 10.2006C54.111 9.8152 53.7933 9.6225 53.3803 9.6225C52.9531 9.6225 52.6283 9.8152 52.4051 10.2006C52.2143 10.5194 52.1199 10.9079 52.1199 11.3671C52.1199 11.8129 52.2153 12.1953 52.4051 12.514C52.6354 12.8994 52.9561 13.0921 53.3702 13.0921C53.7761 13.0921 54.0947 12.8964 54.3241 12.5038C54.521 12.1789 54.6194 11.7935 54.6194 11.3476Z" fill="#1B1B1B"/>
<path d="M63.6949 8.93701L62.198 13.7689H61.2238L60.6037 11.6707C60.4464 11.1469 60.3186 10.6262 60.2191 10.1096H60.1998C60.1075 10.6406 59.9796 11.1602 59.8152 11.6707L59.1566 13.7689H58.1712L56.7637 8.93701H57.8566L58.3975 11.234C58.5284 11.7773 58.636 12.2949 58.7223 12.7849H58.7415C58.8207 12.381 58.9516 11.8665 59.1363 11.2443L59.8152 8.93804H60.6819L61.3324 11.1951C61.4897 11.7455 61.6175 12.2754 61.716 12.7859H61.7454C61.8174 12.2888 61.926 11.7588 62.0701 11.1951L62.6506 8.93804H63.6949V8.93701Z" fill="#1B1B1B"/>
<path d="M69.2083 13.7688H68.1448V11.0013C68.1448 10.1485 67.8241 9.72207 67.1807 9.72207C66.8651 9.72207 66.6104 9.83892 66.4125 10.0736C66.2167 10.3084 66.1172 10.5851 66.1172 10.9018V13.7677H65.0537V10.3176C65.0537 9.89325 65.0405 9.43302 65.0151 8.93487H65.9498L65.9995 9.6903H66.0289C66.1527 9.45557 66.3374 9.26185 66.58 9.10707C66.8682 8.92667 67.1909 8.83545 67.544 8.83545C67.9906 8.83545 68.362 8.981 68.6573 9.27312C69.0247 9.63085 69.2083 10.1649 69.2083 10.8742V13.7688Z" fill="#1B1B1B"/>
<path d="M72.1411 13.7687H71.0786V6.71973H72.1411V13.7687Z" fill="#1B1B1B"/>
<path d="M78.4024 11.3127C78.4024 12.0559 78.1924 12.6647 77.7722 13.1424C77.3318 13.6333 76.7473 13.8783 76.0197 13.8783C75.3164 13.8783 74.7572 13.6436 74.3411 13.1721C73.9251 12.7016 73.717 12.1081 73.717 11.3927C73.717 10.6444 73.9312 10.0305 74.3615 9.55383C74.7917 9.0772 75.3702 8.83838 76.0978 8.83838C76.8011 8.83838 77.3643 9.0731 77.7925 9.54358C78.1985 10.0007 78.4024 10.5911 78.4024 11.3127ZM77.2983 11.3476C77.2983 10.9017 77.2029 10.5194 77.0132 10.2006C76.7909 9.8152 76.4723 9.6225 76.0602 9.6225C75.632 9.6225 75.3073 9.8152 75.085 10.2006C74.8942 10.5194 74.7998 10.9079 74.7998 11.3671C74.7998 11.8129 74.8952 12.1953 75.085 12.514C75.3154 12.8994 75.6361 13.0921 76.0501 13.0921C76.456 13.0921 76.7737 12.8964 77.003 12.5038C77.2009 12.1789 77.2983 11.7935 77.2983 11.3476Z" fill="#1B1B1B"/>
<path d="M83.5496 13.7686H82.5947L82.5155 13.2121H82.4861C82.1593 13.6559 81.6935 13.8783 81.0887 13.8783C80.6371 13.8783 80.2718 13.7317 79.9968 13.4406C79.7471 13.1762 79.6223 12.8472 79.6223 12.4566C79.6223 11.8662 79.8659 11.4163 80.356 11.1047C80.8452 10.7931 81.5332 10.6403 82.4191 10.6475V10.5573C82.4191 9.92078 82.0883 9.60303 81.4256 9.60303C80.9537 9.60303 80.5377 9.72295 80.1784 9.96075L79.9623 9.25555C80.4068 8.97778 80.9558 8.83838 81.6032 8.83838C82.8535 8.83838 83.4806 9.50463 83.4806 10.8371V12.6165C83.4806 13.0993 83.504 13.4837 83.5496 13.7686ZM82.4455 12.1081V11.363C81.2724 11.3425 80.6858 11.6674 80.6858 12.3367C80.6858 12.5889 80.7528 12.7775 80.8898 12.9035C81.0268 13.0296 81.2014 13.0921 81.4094 13.0921C81.6428 13.0921 81.861 13.0173 82.0599 12.8687C82.2598 12.719 82.3826 12.5294 82.4283 12.2967C82.4394 12.2445 82.4455 12.1809 82.4455 12.1081Z" fill="#1B1B1B"/>
<path d="M89.5928 13.7687H88.649L88.5993 12.9927H88.5698C88.2684 13.5831 87.755 13.8783 87.0334 13.8783C86.457 13.8783 85.977 13.6498 85.5964 13.1926C85.2159 12.7355 85.0261 12.142 85.0261 11.4132C85.0261 10.6311 85.2321 9.99768 85.6462 9.51388C86.047 9.06288 86.5382 8.83738 87.1227 8.83738C87.7651 8.83738 88.2147 9.0557 88.4704 9.49338H88.4907V6.71973H89.5552V12.4669C89.5552 12.9374 89.5674 13.371 89.5928 13.7687ZM88.4907 11.731V10.9253C88.4907 10.7859 88.4805 10.6732 88.4613 10.5871C88.4014 10.3288 88.2725 10.1115 88.0766 9.93618C87.8788 9.7609 87.6403 9.67275 87.3653 9.67275C86.9685 9.67275 86.6579 9.83163 86.4296 10.1504C86.2033 10.4692 86.0886 10.8761 86.0886 11.3732C86.0886 11.8509 86.1972 12.2383 86.4154 12.5366C86.6458 12.8544 86.9563 13.0132 87.345 13.0132C87.6941 13.0132 87.9731 12.881 88.1852 12.6155C88.3902 12.3706 88.4907 12.0754 88.4907 11.731Z" fill="#1B1B1B"/>
<path d="M98.6886 11.3127C98.6886 12.0559 98.4785 12.6647 98.0584 13.1424C97.6179 13.6333 97.0354 13.8783 96.3058 13.8783C95.6046 13.8783 95.0454 13.6436 94.6273 13.1721C94.2112 12.7016 94.0032 12.1081 94.0032 11.3927C94.0032 10.6444 94.2173 10.0305 94.6476 9.55383C95.0779 9.0772 95.6563 8.83838 96.386 8.83838C97.0872 8.83838 97.6524 9.0731 98.0787 9.54358C98.4846 10.0007 98.6886 10.5911 98.6886 11.3127ZM97.5865 11.3476C97.5865 10.9017 97.4911 10.5194 97.3013 10.2006C97.077 9.8152 96.7604 9.6225 96.3464 9.6225C95.9202 9.6225 95.5954 9.8152 95.3711 10.2006C95.1804 10.5194 95.086 10.9079 95.086 11.3671C95.086 11.8129 95.1814 12.1953 95.3711 12.514C95.6015 12.8994 95.9222 13.0921 96.3362 13.0921C96.7422 13.0921 97.0618 12.8964 97.2912 12.5038C97.487 12.1789 97.5865 11.7935 97.5865 11.3476Z" fill="#1B1B1B"/>
<path d="M104.407 13.7688H103.345V11.0013C103.345 10.1485 103.024 9.72207 102.379 9.72207C102.064 9.72207 101.809 9.83892 101.612 10.0736C101.415 10.3084 101.317 10.5851 101.317 10.9018V13.7677H100.252V10.3176C100.252 9.89325 100.24 9.43302 100.215 8.93487H101.148L101.198 9.6903H101.228C101.352 9.45557 101.537 9.26185 101.779 9.10707C102.068 8.92667 102.39 8.83545 102.744 8.83545C103.189 8.83545 103.561 8.981 103.856 9.27312C104.224 9.63085 104.407 10.1649 104.407 10.8742V13.7688Z" fill="#1B1B1B"/>
<path d="M111.565 9.74137H110.394V12.0886C110.394 12.6852 110.602 12.9834 111.014 12.9834C111.204 12.9834 111.363 12.967 111.488 12.9332L111.515 13.7481C111.305 13.828 111.029 13.868 110.689 13.868C110.269 13.868 109.942 13.7389 109.706 13.4806C109.468 13.2223 109.35 12.7877 109.35 12.1778V9.74137H108.651V8.93675H109.35V8.05115L110.393 7.7334V8.93572H111.564V9.74137H111.565Z" fill="#1B1B1B"/>
<path d="M117.195 13.7687H116.13V11.0217C116.13 10.1555 115.81 9.72195 115.167 9.72195C114.674 9.72195 114.337 9.97308 114.153 10.4753C114.121 10.5809 114.103 10.7101 114.103 10.8618V13.7676H113.04V6.71973H114.103V9.63175H114.123C114.458 9.10183 114.938 8.83738 115.56 8.83738C116 8.83738 116.365 8.98293 116.654 9.27505C117.014 9.63893 117.195 10.1801 117.195 10.8956V13.7687Z" fill="#1B1B1B"/>
<path d="M123.003 11.1241C123.003 11.3168 122.988 11.4787 122.963 11.611H119.773C119.788 12.0886 119.94 12.4525 120.235 12.7046C120.505 12.9301 120.853 13.0429 121.279 13.0429C121.751 13.0429 122.182 12.967 122.569 12.8143L122.736 13.5605C122.282 13.7594 121.748 13.8588 121.13 13.8588C120.389 13.8588 119.806 13.6384 119.384 13.1977C118.96 12.7569 118.75 12.1655 118.75 11.4234C118.75 10.6946 118.945 10.0878 119.34 9.604C119.752 9.0874 120.309 8.8291 121.013 8.8291C121.701 8.8291 122.223 9.0874 122.576 9.604C122.862 10.014 123.003 10.5214 123.003 11.1241ZM121.988 10.8463C121.996 10.5275 121.926 10.2528 121.782 10.0212C121.597 9.7229 121.316 9.57325 120.935 9.57325C120.588 9.57325 120.305 9.7188 120.089 10.0109C119.912 10.2436 119.808 10.5214 119.773 10.8463H121.988Z" fill="#1B1B1B"/>
</svg>
