<svg width="38" height="45" viewBox="0 0 38 45" fill="none" xmlns="http://www.w3.org/2000/svg">
<path d="M15.554 7.71994C14.0577 7.71994 12.595 8.16366 11.3508 8.99498C10.1066 9.8263 9.13693 11.0079 8.56431 12.3903C7.99168 13.7728 7.84186 15.294 8.13378 16.7616C8.4257 18.2291 9.14626 19.5772 10.2043 20.6353C11.2624 21.6934 12.6105 22.4139 14.0781 22.7058C15.5456 22.9978 17.0668 22.8479 18.4493 22.2753C19.8317 21.7027 21.0133 20.733 21.8446 19.4888C22.676 18.2446 23.1197 16.7819 23.1197 15.2856C23.1197 13.279 22.3226 11.3547 20.9037 9.93586C19.4849 8.51703 17.5606 7.71994 15.554 7.71994ZM15.554 20.2105C14.58 20.2105 13.6278 19.9217 12.8179 19.3805C12.008 18.8393 11.3768 18.0702 11.004 17.1703C10.6312 16.2703 10.5337 15.2801 10.7237 14.3248C10.9138 13.3694 11.3828 12.4919 12.0716 11.8031C12.7604 11.1144 13.6379 10.6453 14.5932 10.4553C15.5486 10.2653 16.5388 10.3628 17.4387 10.7355C18.3386 11.1083 19.1078 11.7395 19.649 12.5494C20.1901 13.3593 20.479 14.3115 20.479 15.2856C20.4755 16.5895 19.955 17.8387 19.0318 18.7595C18.1086 19.6802 16.8579 20.1973 15.554 20.1973V20.2105Z" fill="#D0D0D0"/>
<path d="M31.0945 16.6582C30.1986 16.6333 29.3103 16.4867 28.4538 16.2225V16.9751C28.4538 22.3358 25.2586 27.1022 22.9216 30.588L22.4462 31.2878C20.1752 34.6943 17.1648 38.5101 15.5408 40.3982C13.9828 38.5101 10.9063 34.6943 8.63532 31.2878L8.1864 30.5352C5.84937 27.0494 2.64091 22.2829 2.64091 16.9223C2.64892 14.7021 3.2298 12.5216 4.32736 10.5917C5.42492 8.66179 7.00201 7.04782 8.90603 5.90594C10.8101 4.76405 12.9766 4.13291 15.196 4.07358C17.4153 4.01425 19.6125 4.52873 21.5748 5.56726C21.6799 4.6594 21.911 3.77061 22.2614 2.92655C19.8903 1.78139 17.2668 1.25855 14.6379 1.40728C12.009 1.556 9.46117 2.37139 7.23439 3.77666C5.00762 5.18193 3.17516 7.13084 1.90956 9.43986C0.643964 11.7489 -0.0131153 14.342 0.000198364 16.9751C0.000198364 23.1412 3.45953 28.3038 5.99461 32.0668L6.45673 32.7534C8.97898 36.4089 11.6848 39.9344 14.5637 43.3162L15.5672 44.4913L16.5706 43.3162C19.4492 39.9341 22.155 36.4086 24.6776 32.7534L25.1397 32.0536C27.6616 28.2906 31.121 23.1412 31.121 16.9751C31.1078 16.8695 31.0945 16.7639 31.0945 16.6582Z" fill="#D0D0D0"/>
<path d="M31.3983 13.3708C35.0443 13.3708 38.0001 10.4151 38.0001 6.76901C38.0001 3.12295 35.0443 0.167236 31.3983 0.167236C27.7522 0.167236 24.7965 3.12295 24.7965 6.76901C24.7965 10.4151 27.7522 13.3708 31.3983 13.3708Z" fill="#B3A7E0"/>
</svg>
