<svg width="145" height="46" viewBox="0 0 145 46" fill="none" xmlns="http://www.w3.org/2000/svg">
<path d="M31.1089 6.38527C29.7335 4.30028 27.7687 2.67139 25.2145 1.6289C22.6603 0.521246 19.5822 0 16.1111 0H9.3654H0V38.2465H4.38799V8.27479H16.635V27.8215C19.9097 27.7564 22.7913 27.2351 25.2145 26.1275C27.7687 25.0198 29.7335 23.3909 31.1743 21.2408C32.5497 19.1558 33.2701 16.6147 33.2701 13.7479C33.1391 10.9462 32.4842 8.53541 31.1089 6.38527Z" fill="#C0C7D0"/>
<path d="M13.0984 46.0001L4.38794 38.7027V8.2749L13.0984 15.5072V46.0001Z" fill="#534294"/>
<path d="M10.7407 27.9519C11.2109 27.9519 11.5921 27.5726 11.5921 27.1048C11.5921 26.637 11.2109 26.2578 10.7407 26.2578C10.2705 26.2578 9.88928 26.637 9.88928 27.1048C9.88928 27.5726 10.2705 27.9519 10.7407 27.9519Z" fill="white"/>
<path d="M54.556 11.4023C55.5384 11.4023 56.4553 11.663 57.3067 12.1842C58.1581 12.7055 58.7475 13.4222 59.2715 14.2692C59.7299 15.1814 59.9919 16.1587 59.9919 17.3315C59.9919 18.4392 59.7299 19.4817 59.2715 20.3287C58.813 21.2409 58.1581 21.8924 57.3067 22.4137C56.5208 22.8698 55.5384 23.1304 54.556 23.1304C53.8356 23.1304 53.1807 23.0001 52.5258 22.7395C51.9363 22.4788 51.3469 22.1531 50.8884 21.6318V26.323H47.5483V11.663H50.8884V12.9009C51.3469 12.4448 51.9363 12.0539 52.5258 11.7933C53.1152 11.5327 53.8356 11.4023 54.556 11.4023ZM53.7701 20.2635C54.294 20.2635 54.818 20.1332 55.2109 19.8726C55.6694 19.612 55.9969 19.2862 56.1933 18.8301C56.4553 18.374 56.5208 17.8528 56.5208 17.3315C56.5208 16.7451 56.3898 16.2239 56.1933 15.7678C55.9314 15.3117 55.6039 14.9859 55.2109 14.7253C54.818 14.4647 54.294 14.3344 53.7701 14.3344C53.1807 14.3344 52.7222 14.4647 52.2638 14.6601C51.8053 14.9208 51.4779 15.2465 51.2159 15.7026C50.9539 16.1587 50.823 16.68 50.823 17.2664C50.823 17.8528 50.9539 18.374 51.2159 18.8301C51.4779 19.2862 51.8053 19.612 52.2638 19.8726C52.6567 20.1332 53.1807 20.2635 53.7701 20.2635Z" fill="#2E2E2E"/>
<path d="M67.4571 23.1304C66.2782 23.1304 65.1648 22.8698 64.1824 22.4137C63.2001 21.8925 62.4796 21.2409 61.9557 20.3287C61.4318 19.4166 61.1698 18.4392 61.1698 17.3316C61.1698 16.2239 61.4318 15.1814 61.9557 14.3344C62.4796 13.4222 63.2001 12.7707 64.117 12.2494C65.0338 11.7282 66.0817 11.5327 67.3261 11.5327C68.374 11.5327 69.3563 11.7933 70.2077 12.2494C71.0591 12.7055 71.7141 13.3571 72.238 14.1389C72.6964 14.9208 72.9584 15.833 72.9584 16.8103C72.9584 17.071 72.9584 17.2664 72.8929 17.527C72.8929 17.7877 72.8274 18.0483 72.7619 18.3741H64.5099C64.5754 18.8302 64.7719 19.1559 65.0993 19.4817C65.3613 19.8075 65.7543 20.0681 66.2127 20.1984C66.6712 20.3939 67.1296 20.4591 67.6535 20.4591C68.243 20.4591 68.7014 20.3939 69.1599 20.1984C69.5528 20.003 69.9458 19.7423 70.3387 19.3514L72.369 21.1106C71.7795 21.7622 71.0591 22.2183 70.2732 22.544C69.3563 22.935 68.5049 23.1304 67.4571 23.1304ZM69.6838 16.2239C69.6183 15.7678 69.4873 15.3769 69.2908 15.0511C69.0944 14.7253 68.8324 14.4647 68.4394 14.3344C68.112 14.2041 67.719 14.0738 67.2606 14.0738C66.8021 14.0738 66.4092 14.1389 66.0162 14.3344C65.6233 14.5299 65.3613 14.7253 65.0993 15.0511C64.8374 15.3769 64.7064 15.7678 64.5754 16.1588H69.6838V16.2239Z" fill="#2E2E2E"/>
<path d="M78.1323 11.6631V22.8699H74.7922V11.6631H78.1323ZM88.1527 20.2637V22.8699H77.019V20.2637H88.1527ZM84.2231 11.6631V22.8699H80.883V11.6631H84.2231ZM86.9083 22.935V11.6631H90.3139V22.8699H86.9083V22.935Z" fill="#2E2E2E"/>
<path d="M98.5005 23.1304C97.3216 23.1304 96.2083 22.8698 95.2259 22.4137C94.2435 21.8925 93.5231 21.2409 92.9992 20.3287C92.4752 19.4166 92.2133 18.4392 92.2133 17.3316C92.2133 16.2239 92.4752 15.1814 92.9992 14.3344C93.5231 13.4222 94.2435 12.7707 95.1604 12.2494C96.0773 11.7282 97.1252 11.5327 98.3695 11.5327C99.4174 11.5327 100.4 11.7933 101.251 12.2494C102.103 12.7055 102.758 13.3571 103.281 14.1389C103.74 14.9208 104.002 15.833 104.002 16.8103C104.002 17.071 104.002 17.2664 103.936 17.527C103.936 17.7877 103.871 18.0483 103.805 18.3741H95.5534C95.6188 18.8302 95.8153 19.1559 96.1428 19.4817C96.4048 19.8075 96.7977 20.0681 97.2562 20.1984C97.7146 20.3939 98.1731 20.4591 98.697 20.4591C99.2864 20.4591 99.7449 20.3939 100.203 20.1984C100.662 20.003 100.989 19.7423 101.382 19.3514L103.412 21.1106C102.823 21.7622 102.103 22.2183 101.317 22.544C100.4 22.935 99.4829 23.1304 98.5005 23.1304ZM100.662 16.2239C100.596 15.7678 100.465 15.3769 100.269 15.0511C100.072 14.7253 99.8104 14.4647 99.4174 14.3344C99.0899 14.2041 98.697 14.0738 98.2385 14.0738C97.7801 14.0738 97.3871 14.1389 96.9942 14.3344C96.6012 14.5299 96.3393 14.7253 96.0773 15.0511C95.8153 15.3769 95.6843 15.7678 95.5534 16.1588H100.662V16.2239Z" fill="#2E2E2E"/>
<path d="M109.11 22.935H105.77V11.6631H109.11V22.935ZM115.201 18.5696H107.669V15.8982H115.201V18.5696ZM113.695 11.6631H117.1V22.935H113.695V11.6631Z" fill="#2E2E2E"/>
<path d="M131.116 22.935H127.776V16.8104L122.274 22.935H119.655V11.6631H123.06V17.6574L128.496 11.6631H131.181V22.935H131.116Z" fill="#2E2E2E"/>
<path d="M139.302 23.1304C138.123 23.1304 137.01 22.8698 136.028 22.4137C135.045 21.8925 134.325 21.2409 133.801 20.3287C133.277 19.4166 133.015 18.4392 133.015 17.3316C133.015 16.2239 133.277 15.1814 133.801 14.3344C134.325 13.4222 135.045 12.7707 135.962 12.2494C136.879 11.7282 137.927 11.5327 139.171 11.5327C140.219 11.5327 141.201 11.7933 142.053 12.2494C142.904 12.7055 143.559 13.3571 144.083 14.1389C144.542 14.9208 144.804 15.833 144.804 16.8103C144.804 17.071 144.804 17.2664 144.738 17.527C144.738 17.7877 144.673 18.0483 144.607 18.3741H136.355C136.42 18.8302 136.617 19.1559 136.944 19.4817C137.206 19.8075 137.599 20.0681 138.058 20.1984C138.516 20.3939 138.975 20.4591 139.499 20.4591C140.088 20.4591 140.547 20.3939 141.005 20.1984C141.398 20.003 141.791 19.7423 142.184 19.3514L144.214 21.1106C143.625 21.7622 142.904 22.2183 142.118 22.544C141.201 22.935 140.35 23.1304 139.302 23.1304ZM141.529 16.2239C141.463 15.7678 141.332 15.3769 141.136 15.0511C140.939 14.7253 140.677 14.4647 140.285 14.3344C139.957 14.2041 139.564 14.0738 139.106 14.0738C138.647 14.0738 138.254 14.1389 137.861 14.3344C137.468 14.5299 137.206 14.7253 136.944 15.0511C136.682 15.3769 136.486 15.7678 136.42 16.1588H141.529V16.2239Z" fill="#2E2E2E"/>
<path d="M50.0361 33.6205H49.6432V31.4053L47.8094 33.6205H47.4819V30.8188H47.8749V33.0341L49.7742 30.8188H50.1016V33.6205H50.0361Z" fill="#2E2E2E"/>
<path d="M51.2805 33.6205H50.8876V30.8188H51.2805V33.6205ZM53.0488 31.1446H51.215V30.8188H53.0488V31.1446ZM53.0488 30.8188H53.4418V33.6205H53.0488V30.8188Z" fill="#2E2E2E"/>
<path d="M55.603 33.6857C55.341 33.6857 55.0791 33.6205 54.8171 33.4902C54.6206 33.3599 54.4241 33.1644 54.2932 32.969C54.1622 32.7735 54.0967 32.5129 54.0967 32.1871C54.0967 31.9265 54.1622 31.6658 54.2932 31.4704C54.4241 31.2749 54.6206 31.0794 54.8171 30.9491C55.0136 30.8188 55.2755 30.7537 55.603 30.7537C55.865 30.7537 56.1269 30.8188 56.3889 30.9491C56.5854 31.0794 56.7819 31.2749 56.9129 31.4704C57.0438 31.6658 57.1093 31.9265 57.1093 32.1871C57.1093 32.4477 57.0438 32.7083 56.9129 32.969C56.7819 33.1644 56.5854 33.3599 56.3889 33.4902C56.1269 33.6205 55.865 33.6857 55.603 33.6857ZM55.603 33.3599C55.7995 33.3599 55.996 33.2947 56.1924 33.2296C56.3889 33.1644 56.5199 33.0341 56.5854 32.8386C56.6509 32.6432 56.7164 32.4477 56.7164 32.2522C56.7164 32.0568 56.6509 31.8613 56.5854 31.6658C56.5199 31.4704 56.3889 31.3401 56.1924 31.2749C55.996 31.2098 55.865 31.1446 55.603 31.1446C55.4065 31.1446 55.2101 31.2098 55.0136 31.2749C54.8171 31.3401 54.6861 31.4704 54.6206 31.6658C54.5551 31.8613 54.4896 32.0568 54.4896 32.2522C54.4896 32.4477 54.5551 32.6432 54.6206 32.8386C54.6861 33.0341 54.8171 33.1644 55.0136 33.2296C55.2101 33.2947 55.341 33.3599 55.603 33.3599Z" fill="#2E2E2E"/>
<path d="M59.729 31.1446H57.3058V30.7537H59.729V31.1446ZM58.2882 31.1446H58.6811V33.6857H58.2882V31.1446Z" fill="#2E2E2E"/>
<path d="M61.4319 33.6856C61.1699 33.6856 60.9079 33.6205 60.646 33.4902C60.4495 33.3599 60.253 33.1644 60.122 32.9689C59.991 32.7735 59.9255 32.5128 59.9255 32.1871C59.9255 31.9264 59.991 31.6658 60.122 31.4052C60.253 31.2097 60.384 31.0143 60.646 30.8839C60.8424 30.7536 61.1044 30.6885 61.4319 30.6885C61.6938 30.6885 61.8903 30.7536 62.0868 30.8839C62.2833 31.0143 62.4143 31.1446 62.5452 31.34C62.6762 31.5355 62.7417 31.7961 62.7417 32.0568C62.7417 32.1219 62.7417 32.1219 62.7417 32.1871C62.7417 32.2522 62.7417 32.2522 62.7417 32.3174H60.384C60.384 32.5128 60.4495 32.6432 60.5805 32.8386C60.646 32.9689 60.7769 33.0992 60.9734 33.1644C61.1044 33.2296 61.3009 33.2947 61.4974 33.2947C61.6938 33.2947 61.8248 33.2947 61.9558 33.2296C62.0868 33.1644 62.2178 33.0992 62.3488 32.9689L62.6107 33.2296C62.4797 33.3599 62.2833 33.4902 62.0868 33.5553C61.8248 33.6205 61.6283 33.6856 61.4319 33.6856ZM62.2833 32.0568C62.2833 31.8613 62.2178 31.731 62.1523 31.5355C62.0868 31.4052 61.9558 31.2749 61.8248 31.2097C61.6938 31.1446 61.5628 31.0794 61.3664 31.0794C61.1699 31.0794 61.0389 31.1446 60.8424 31.2097C60.7114 31.2749 60.5805 31.4052 60.4495 31.5355C60.384 31.6658 60.3185 31.8613 60.253 31.9916H62.2833V32.0568Z" fill="#2E2E2E"/>
<path d="M63.724 30.8188V33.6205H63.3311V30.8188H63.724ZM63.6585 32.3826V32.0568H64.3134L65.2303 30.8188H65.6888L64.4444 32.3826H63.6585ZM64.3134 32.3826L64.5754 32.122L65.8198 33.6205H65.3613L64.3134 32.3826Z" fill="#2E2E2E"/>
<path d="M68.243 32.9038C68.1775 33.0341 68.112 33.0993 68.0465 33.2296C67.981 33.3599 67.85 33.4251 67.6535 33.5554C67.5226 33.6205 67.3261 33.6857 67.1296 33.6857C66.9331 33.6857 66.7366 33.6205 66.6057 33.5554C66.4747 33.4902 66.3437 33.3599 66.2782 33.2296C66.2127 33.0993 66.1472 32.969 66.1472 32.7735C66.1472 32.5781 66.2127 32.4477 66.2782 32.3174C66.3437 32.1871 66.4747 32.0568 66.6712 31.9917C66.8676 31.9265 67.0641 31.8613 67.2606 31.8613C67.4571 31.8613 67.588 31.8613 67.7845 31.8613C67.981 31.8613 68.112 31.8613 68.3085 31.9265L68.243 32.2523C68.112 32.2523 67.981 32.1871 67.85 32.1871C67.719 32.1871 67.5226 32.1871 67.3916 32.1871C67.1296 32.1871 66.9331 32.2523 66.8021 32.3174C66.6712 32.3826 66.6057 32.5781 66.6057 32.7084C66.6057 32.9038 66.6712 33.0341 66.8021 33.0993C66.9331 33.1645 67.1296 33.2296 67.3261 33.2296C67.5226 33.2296 67.6535 33.1645 67.85 33.0993C67.981 33.0341 68.112 32.9038 68.1775 32.7735C68.243 32.6432 68.3085 32.5129 68.3085 32.3174L68.243 32.9038ZM68.1775 31.8613C68.1775 31.6007 68.112 31.4053 67.981 31.2749C67.85 31.1446 67.6535 31.0795 67.3261 31.0795C67.1951 31.0795 66.9986 31.0795 66.8676 31.1446C66.7366 31.2098 66.6057 31.2749 66.4747 31.4053L66.2782 31.1446C66.4092 31.0143 66.6057 30.9492 66.8021 30.884C66.9986 30.8188 67.1951 30.8188 67.3916 30.8188C67.7845 30.8188 68.112 30.884 68.3085 31.0795C68.5049 31.2749 68.6359 31.5356 68.6359 31.9265V33.6857H68.243V31.8613H68.1775Z" fill="#2E2E2E"/>
<path d="M69.5529 33.6858C69.4874 33.6858 69.4219 33.6858 69.3564 33.6206C69.2909 33.5555 69.2909 33.4903 69.2909 33.4251C69.2909 33.36 69.2909 33.2948 69.3564 33.2948C69.3564 33.2297 69.4219 33.2297 69.4874 33.1645C69.5529 33.1645 69.5529 33.0994 69.6184 33.0994C69.6838 33.0994 69.7493 33.0994 69.8148 33.1645C69.8803 33.2297 69.8803 33.2948 69.8803 33.36C69.8803 33.4251 69.8803 33.4251 69.8148 33.4903C69.8148 33.5555 69.7493 33.5555 69.6838 33.6206C69.6838 33.6858 69.6183 33.6858 69.5529 33.6858Z" fill="#2E2E2E"/>
<path d="M72.369 33.6205H71.9761V30.8188H72.369V33.6205ZM74.3338 32.3826H72.238V32.0568H74.3338V32.3826ZM74.1373 30.8188H74.5303V33.6205H74.1373V30.8188Z" fill="#2E2E2E"/>
<path d="M76.6915 33.6856C76.4295 33.6856 76.1676 33.6205 75.9056 33.4902C75.7091 33.3599 75.5126 33.1644 75.3817 32.9689C75.2507 32.7735 75.1852 32.5128 75.1852 32.1871C75.1852 31.9264 75.2507 31.6658 75.3817 31.4052C75.5126 31.2097 75.6436 31.0143 75.9056 30.8839C76.1021 30.7536 76.364 30.6885 76.6915 30.6885C76.9535 30.6885 77.1499 30.7536 77.3464 30.8839C77.5429 31.0143 77.6739 31.1446 77.8049 31.34C77.9359 31.5355 78.0013 31.7961 78.0013 32.0568C78.0013 32.1219 78.0013 32.1219 78.0013 32.1871C78.0013 32.2522 78.0013 32.2522 78.0013 32.3174H75.6436C75.6436 32.5128 75.7091 32.6432 75.8401 32.8386C75.9056 32.9689 76.0366 33.0992 76.2331 33.1644C76.364 33.2296 76.5605 33.2947 76.757 33.2947C76.9535 33.2947 77.0845 33.2947 77.2154 33.2296C77.3464 33.1644 77.4774 33.0992 77.6084 32.9689L77.8704 33.2296C77.7394 33.3599 77.5429 33.4902 77.3464 33.5553C77.1499 33.6205 76.888 33.6856 76.6915 33.6856ZM77.5429 32.0568C77.5429 31.8613 77.4774 31.731 77.4119 31.5355C77.3464 31.4052 77.2154 31.2749 77.0845 31.2097C76.9535 31.1446 76.8225 31.0794 76.626 31.0794C76.4295 31.0794 76.2985 31.1446 76.1021 31.2097C75.9711 31.2749 75.8401 31.4052 75.7091 31.5355C75.6436 31.6658 75.5781 31.8613 75.5126 31.9916H77.5429V32.0568Z" fill="#2E2E2E"/>
<path d="M78.7218 34.0766H78.3289V33.3599H78.7218V34.0766ZM78.4598 33.3599C78.5253 33.3599 78.5908 33.3599 78.5908 33.2948C78.6563 33.2296 78.6563 33.1645 78.7218 33.0341C78.7873 32.9038 78.7873 32.7735 78.7873 32.5781L78.8528 30.884H79.2458L79.1803 32.5781C79.1803 32.8387 79.1148 33.0341 79.0493 33.2296C78.9838 33.3599 78.9183 33.4902 78.7873 33.5554C78.6563 33.6205 78.5253 33.6857 78.3943 33.6857L78.4598 33.3599ZM78.4598 33.6205L78.3943 33.2948H80.5556V33.6205H78.4598ZM78.9838 33.3599V33.6857H78.6563V33.3599H78.9838ZM79.1148 31.1446V30.8188H80.5556V31.1446H79.1148ZM80.4901 33.3599H80.8176V33.6857H80.4901V33.3599ZM80.4901 33.6205V30.8188H80.8831V33.6205H80.4901ZM80.7521 34.0766V33.3599H81.145V34.0766H80.7521Z" fill="#2E2E2E"/>
<path d="M81.9309 33.6205V30.8188H83.3062C83.6337 30.8188 83.8302 30.884 84.0267 31.0143C84.2231 31.1446 84.2886 31.3401 84.2886 31.5356C84.2886 31.6659 84.2886 31.7962 84.2231 31.8613C84.1576 31.9917 84.0922 32.0568 83.9612 32.122C83.8302 32.1871 83.6992 32.2523 83.5682 32.2523V32.1871C83.8302 32.1871 84.0922 32.2523 84.2231 32.3826C84.3541 32.5129 84.4851 32.7084 84.4851 32.9038C84.4851 33.0341 84.4196 33.1645 84.3541 33.2948C84.2886 33.4251 84.1576 33.4902 83.9612 33.5554C83.8302 33.6205 83.6337 33.6205 83.3717 33.6205H81.9309ZM82.3239 32.3826V31.9917H83.3062C83.4372 31.9917 83.5682 31.9917 83.6337 31.9265C83.6992 31.8613 83.7647 31.8613 83.8302 31.7962C83.8957 31.731 83.8957 31.6659 83.8957 31.5356C83.8957 31.4053 83.8302 31.2749 83.7647 31.2098C83.6337 31.1446 83.5027 31.0795 83.3062 31.0795H82.3894V33.2296H83.3717C83.5027 33.2296 83.6337 33.2296 83.7647 33.1645C83.8957 33.0993 83.9612 33.0993 83.9612 33.0341C84.0267 32.969 84.0267 32.9038 84.0267 32.7735C84.0267 32.6432 83.9612 32.5129 83.8302 32.4477C83.6992 32.3826 83.5682 32.3174 83.3717 32.3174H82.3239V32.3826Z" fill="#2E2E2E"/>
<path d="M87.6287 33.6205H87.2358V31.4053L85.3365 33.6205H85.009V30.8188H85.402V33.0341L87.3013 30.8188H87.6287V33.6205Z" fill="#2E2E2E"/>
<path d="M88.3491 33.6205L89.528 32.1219L89.79 32.3826L88.8076 33.6205H88.3491ZM89.7245 32.3826L88.4801 30.8188H88.9386L89.8554 32.0568H90.5104V32.4477H89.7245V32.3826ZM90.2484 33.6205V30.8188H90.6414V33.6205H90.2484ZM90.4449 32.3826V31.9916H91.0998L92.0167 30.7537H92.4751L91.2308 32.3174H90.4449V32.3826ZM92.0167 33.6205L91.0343 32.3826L91.2963 32.1219L92.4751 33.6205H92.0167Z" fill="#2E2E2E"/>
<path d="M95.8152 33.6205H95.4223V31.4053L93.523 33.6205H93.1956V30.8188H93.5885V33.0341L95.4878 30.8188H95.8152V33.6205Z" fill="#2E2E2E"/>
<path d="M96.6012 33.6205V30.8188H96.9942L98.2385 32.5781H98.173L99.3519 30.8188H99.7448V33.6205H99.3519V31.4704L98.2385 33.0341H98.1075L96.9942 31.4704V33.6205H96.6012Z" fill="#2E2E2E"/>
<path d="M101.906 33.6857C101.644 33.6857 101.382 33.6205 101.12 33.4902C100.924 33.3599 100.727 33.1644 100.596 32.969C100.465 32.7735 100.4 32.5129 100.4 32.1871C100.4 31.9265 100.465 31.6658 100.596 31.4704C100.727 31.2749 100.924 31.0794 101.12 30.9491C101.317 30.8188 101.579 30.7537 101.906 30.7537C102.233 30.7537 102.43 30.8188 102.692 30.9491C102.888 31.0794 103.085 31.2749 103.216 31.4704C103.347 31.6658 103.412 31.9265 103.412 32.1871C103.412 32.4477 103.347 32.7083 103.216 32.969C103.085 33.1644 102.888 33.3599 102.692 33.4902C102.43 33.6205 102.168 33.6857 101.906 33.6857ZM101.906 33.3599C102.102 33.3599 102.299 33.2947 102.495 33.2296C102.692 33.1644 102.823 33.0341 102.888 32.8386C102.954 32.6432 103.019 32.4477 103.019 32.2522C103.019 32.0568 102.954 31.8613 102.888 31.6658C102.823 31.4704 102.692 31.3401 102.495 31.2749C102.299 31.2098 102.168 31.1446 101.906 31.1446C101.71 31.1446 101.513 31.2098 101.317 31.2749C101.12 31.3401 100.989 31.4704 100.924 31.6658C100.858 31.8613 100.793 32.0568 100.793 32.2522C100.793 32.4477 100.858 32.6432 100.924 32.8386C100.989 33.0341 101.12 33.1644 101.317 33.2296C101.448 33.2947 101.644 33.3599 101.906 33.3599Z" fill="#2E2E2E"/>
<path d="M105.377 33.6856C105.115 33.6856 104.853 33.6205 104.591 33.4902C104.395 33.3599 104.198 33.1644 104.067 32.9689C103.936 32.7735 103.871 32.5128 103.871 32.1871C103.871 31.9264 103.936 31.6658 104.067 31.4052C104.198 31.2097 104.395 31.0143 104.591 30.8839C104.788 30.7536 105.05 30.6885 105.377 30.6885C105.574 30.6885 105.77 30.7536 105.967 30.8188C106.163 30.8839 106.294 31.0143 106.491 31.1446L106.229 31.4052C106.098 31.2749 105.967 31.2097 105.836 31.1446C105.705 31.0794 105.574 31.0794 105.377 31.0794C105.181 31.0794 104.984 31.1446 104.788 31.2097C104.591 31.2749 104.526 31.4052 104.395 31.6007C104.329 31.7961 104.264 31.9916 104.264 32.1871C104.264 32.3825 104.329 32.578 104.395 32.7735C104.46 32.9689 104.591 33.0992 104.788 33.1644C104.984 33.2296 105.115 33.2947 105.377 33.2947C105.574 33.2947 105.705 33.2947 105.836 33.2296C105.967 33.1644 106.098 33.0992 106.229 32.9689L106.491 33.2296C106.36 33.3599 106.163 33.4902 106.032 33.5553C105.77 33.6856 105.574 33.6856 105.377 33.6856Z" fill="#2E2E2E"/>
<path d="M109.045 31.1446H106.621V30.7537H109.045V31.1446ZM107.669 31.1446H108.062V33.6857H107.669V31.1446Z" fill="#2E2E2E"/>
<path d="M109.438 30.8188H109.831V33.6205H109.438V30.8188ZM110.616 31.731C110.878 31.731 111.075 31.7962 111.271 31.8613C111.468 31.9265 111.599 32.0568 111.73 32.1871C111.861 32.3174 111.861 32.5129 111.861 32.7084C111.861 32.9038 111.795 33.0993 111.73 33.2296C111.599 33.3599 111.468 33.4902 111.271 33.5554C111.075 33.6205 110.878 33.6857 110.616 33.6857H109.503L109.831 33.3599H110.616C110.813 33.3599 110.944 33.3599 111.075 33.2948C111.206 33.2296 111.271 33.1645 111.337 33.0993C111.402 33.0341 111.468 32.9038 111.468 32.7735C111.468 32.5781 111.402 32.3826 111.271 32.3174C111.14 32.1871 110.878 32.122 110.616 32.122H109.831V31.7962H110.616V31.731Z" fill="#2E2E2E"/>
<path d="M112.712 33.6858C112.647 33.6858 112.581 33.6858 112.516 33.6206C112.45 33.5555 112.45 33.4903 112.45 33.4251C112.45 33.36 112.45 33.2948 112.516 33.2948C112.516 33.2297 112.581 33.2297 112.647 33.1645C112.712 33.1645 112.712 33.0994 112.778 33.0994C112.843 33.0994 112.909 33.0994 112.974 33.1645C113.04 33.2297 113.04 33.2948 113.04 33.36C113.04 33.4251 113.04 33.4251 112.974 33.4903C112.974 33.5555 112.909 33.5555 112.843 33.6206C112.778 33.6858 112.778 33.6858 112.712 33.6858Z" fill="#2E2E2E"/>
<path d="M115.921 33.6856C115.725 33.6856 115.528 33.6205 115.332 33.5553C115.136 33.4902 115.005 33.3599 114.874 33.2296L115.136 32.9689C115.266 33.0992 115.397 33.1644 115.528 33.2296C115.659 33.2947 115.79 33.2947 115.987 33.2947C116.183 33.2947 116.38 33.2296 116.576 33.1644C116.773 33.0992 116.904 32.9689 116.969 32.7735C117.035 32.578 117.1 32.3825 117.1 32.1871C117.1 31.9916 117.035 31.7961 116.969 31.6007C116.904 31.4052 116.773 31.2749 116.576 31.2097C116.38 31.1446 116.249 31.0794 115.987 31.0794C115.856 31.0794 115.659 31.0794 115.528 31.1446C115.397 31.2097 115.266 31.2749 115.136 31.4052L114.874 31.1446C115.005 31.0143 115.201 30.8839 115.397 30.8188C115.594 30.7536 115.79 30.6885 115.987 30.6885C116.249 30.6885 116.511 30.7536 116.773 30.8839C116.969 31.0143 117.166 31.2097 117.297 31.4052C117.428 31.6007 117.493 31.8613 117.493 32.1871C117.493 32.4477 117.428 32.7083 117.297 32.9689C117.166 33.1644 116.969 33.3599 116.773 33.4902C116.445 33.6205 116.183 33.6856 115.921 33.6856ZM115.659 32.3825V32.0568H117.297V32.3825H115.659Z" fill="#2E2E2E"/>
<path d="M118.476 30.8188V33.6205H118.083V30.8188H118.476ZM118.41 32.3826V32.0568H119.065L119.982 30.8188H120.44L119.196 32.3826H118.41ZM119.065 32.3826L119.327 32.122L120.571 33.6205H120.113L119.065 32.3826Z" fill="#2E2E2E"/>
<path d="M122.143 33.6856C121.881 33.6856 121.619 33.6205 121.357 33.4902C121.161 33.3599 120.964 33.1644 120.833 32.9689C120.702 32.7735 120.637 32.5128 120.637 32.1871C120.637 31.9264 120.702 31.6658 120.833 31.4052C120.964 31.2097 121.161 31.0143 121.357 30.8839C121.554 30.7536 121.816 30.6885 122.143 30.6885C122.34 30.6885 122.536 30.7536 122.733 30.8188C122.929 30.8839 123.06 31.0143 123.257 31.1446L122.995 31.4052C122.864 31.2749 122.733 31.2097 122.602 31.1446C122.471 31.0794 122.34 31.0794 122.143 31.0794C121.947 31.0794 121.75 31.1446 121.554 31.2097C121.357 31.2749 121.292 31.4052 121.161 31.6007C121.095 31.7961 121.03 31.9916 121.03 32.1871C121.03 32.3825 121.095 32.578 121.161 32.7735C121.226 32.9689 121.357 33.0992 121.554 33.1644C121.75 33.2296 121.881 33.2947 122.143 33.2947C122.34 33.2947 122.471 33.2947 122.602 33.2296C122.733 33.1644 122.864 33.0992 122.995 32.9689L123.257 33.2296C123.126 33.3599 122.929 33.4902 122.798 33.5553C122.536 33.6856 122.34 33.6856 122.143 33.6856Z" fill="#2E2E2E"/>
<path d="M124.173 33.6205H123.781V30.8188H124.173V33.6205ZM125.942 31.1446H124.108V30.8188H125.942V31.1446ZM125.942 30.8188H126.335V33.6205H125.942V30.8188Z" fill="#2E2E2E"/>
<path d="M128.43 33.6856C128.168 33.6856 127.906 33.6205 127.644 33.4902C127.448 33.3599 127.252 33.1644 127.121 32.9689C126.99 32.7735 126.924 32.5128 126.924 32.1871C126.924 31.9264 126.99 31.6658 127.121 31.4052C127.252 31.2097 127.383 31.0143 127.644 30.8839C127.841 30.7536 128.103 30.6885 128.43 30.6885C128.692 30.6885 128.889 30.7536 129.085 30.8839C129.282 31.0143 129.413 31.1446 129.544 31.34C129.675 31.5355 129.74 31.7961 129.74 32.0568C129.74 32.1219 129.74 32.1219 129.74 32.1871C129.74 32.2522 129.74 32.2522 129.74 32.3174H127.383C127.383 32.5128 127.448 32.6432 127.579 32.8386C127.644 32.9689 127.775 33.0992 127.972 33.1644C128.103 33.2296 128.299 33.2947 128.496 33.2947C128.692 33.2947 128.823 33.2947 128.954 33.2296C129.085 33.1644 129.216 33.0992 129.347 32.9689L129.609 33.2296C129.478 33.3599 129.282 33.4902 129.085 33.5553C128.889 33.6205 128.692 33.6856 128.43 33.6856ZM129.347 32.0568C129.347 31.8613 129.282 31.731 129.216 31.5355C129.151 31.4052 129.02 31.2749 128.889 31.2097C128.758 31.1446 128.627 31.0794 128.43 31.0794C128.234 31.0794 128.103 31.1446 127.906 31.2097C127.71 31.2749 127.644 31.4052 127.514 31.5355C127.448 31.6658 127.383 31.8613 127.317 31.9916H129.347V32.0568Z" fill="#2E2E2E"/>
<path d="M131.902 30.7537C132.164 30.7537 132.36 30.8188 132.622 30.9491C132.818 31.0794 133.015 31.2749 133.146 31.4704C133.277 31.6658 133.342 31.9265 133.342 32.2522C133.342 32.5129 133.277 32.7735 133.146 33.0341C133.015 33.2296 132.884 33.425 132.622 33.5554C132.426 33.6857 132.164 33.7508 131.902 33.7508C131.64 33.7508 131.443 33.6857 131.247 33.5554C131.05 33.425 130.919 33.2947 130.788 33.0993V34.5327H130.395V30.8188H130.788V31.4052C130.919 31.2098 131.05 31.0794 131.247 30.9491C131.443 30.8188 131.705 30.7537 131.902 30.7537ZM131.902 33.3599C132.098 33.3599 132.295 33.2947 132.426 33.2296C132.556 33.1644 132.687 33.0341 132.818 32.8386C132.884 32.6432 132.949 32.5129 132.949 32.2522C132.949 32.0568 132.884 31.8613 132.818 31.6658C132.753 31.4704 132.622 31.3401 132.426 31.2749C132.295 31.2098 132.098 31.1446 131.902 31.1446C131.705 31.1446 131.509 31.2098 131.312 31.2749C131.116 31.3401 131.05 31.4704 130.919 31.6658C130.854 31.8613 130.788 32.0568 130.788 32.2522C130.788 32.4477 130.854 32.6432 130.919 32.8386C130.985 33.0341 131.116 33.1644 131.312 33.2296C131.443 33.2947 131.64 33.3599 131.902 33.3599Z" fill="#2E2E2E"/>
<path d="M135.962 31.1446H133.539V30.7537H135.962V31.1446ZM134.521 31.1446H134.914V33.6857H134.521V31.1446Z" fill="#2E2E2E"/>
<path d="M138.909 33.6205H138.516V31.4053L136.617 33.6205H136.29V30.8188H136.683V33.0341L138.582 30.8188H138.909V33.6205Z" fill="#2E2E2E"/>
<path d="M140.678 33.6857C140.416 33.6857 140.219 33.6205 139.957 33.5554C139.761 33.4902 139.564 33.3599 139.433 33.2947L139.564 32.969C139.695 33.0341 139.892 33.1644 140.023 33.2296C140.219 33.2947 140.416 33.2947 140.612 33.2947C140.743 33.2947 140.94 33.2947 141.005 33.2296C141.136 33.1644 141.202 33.0993 141.267 33.0341C141.333 32.969 141.333 32.8386 141.333 32.7735C141.333 32.6432 141.267 32.5129 141.136 32.4477C141.005 32.3826 140.809 32.3174 140.612 32.3174H140.154V32.0568H140.743C140.94 32.0568 141.136 31.9916 141.267 31.9265C141.398 31.8613 141.463 31.731 141.463 31.6007C141.463 31.4704 141.398 31.3401 141.267 31.2098C141.136 31.1446 140.94 31.0794 140.678 31.0794C140.481 31.0794 140.35 31.0794 140.219 31.1446C140.088 31.2098 139.892 31.2749 139.761 31.3401L139.63 31.0794C139.761 30.9491 139.957 30.884 140.154 30.8188C140.35 30.7537 140.547 30.7537 140.743 30.7537C140.94 30.7537 141.136 30.7537 141.333 30.8188C141.529 30.884 141.66 30.9491 141.725 31.0794C141.791 31.2098 141.856 31.3401 141.856 31.5355C141.856 31.6658 141.791 31.7962 141.725 31.9265C141.66 32.0568 141.529 32.1219 141.398 32.1871C141.529 32.2522 141.66 32.3174 141.791 32.4477C141.856 32.578 141.922 32.7083 141.922 32.8386C141.922 33.0341 141.856 33.1644 141.791 33.2947C141.66 33.425 141.529 33.4902 141.398 33.5554C141.071 33.6857 140.94 33.6857 140.678 33.6857Z" fill="#2E2E2E"/>
<path d="M144.411 32.9038C144.345 33.0341 144.28 33.0993 144.214 33.2296C144.149 33.3599 144.018 33.4251 143.821 33.5554C143.69 33.6205 143.494 33.6857 143.297 33.6857C143.101 33.6857 142.904 33.6205 142.773 33.5554C142.642 33.4902 142.511 33.3599 142.446 33.2296C142.38 33.0993 142.315 32.969 142.315 32.7735C142.315 32.5781 142.38 32.4477 142.446 32.3174C142.511 32.1871 142.642 32.0568 142.839 31.9917C143.035 31.9265 143.232 31.8613 143.428 31.8613C143.625 31.8613 143.756 31.8613 143.952 31.8613C144.149 31.8613 144.28 31.8613 144.476 31.9265L144.411 32.2523C144.28 32.2523 144.149 32.1871 144.018 32.1871C143.887 32.1871 143.69 32.1871 143.559 32.1871C143.297 32.1871 143.101 32.2523 142.97 32.3174C142.839 32.3826 142.773 32.5781 142.773 32.7084C142.773 32.9038 142.839 33.0341 142.97 33.0993C143.101 33.1645 143.297 33.2296 143.494 33.2296C143.69 33.2296 143.821 33.1645 144.018 33.0993C144.149 33.0341 144.28 32.9038 144.345 32.7735C144.411 32.6432 144.476 32.5129 144.476 32.3174L144.411 32.9038ZM144.345 31.8613C144.345 31.6007 144.28 31.4053 144.149 31.2749C144.018 31.1446 143.821 31.0795 143.494 31.0795C143.363 31.0795 143.166 31.0795 143.035 31.1446C142.904 31.2098 142.773 31.2749 142.642 31.4053L142.446 31.1446C142.577 31.0143 142.773 30.9492 142.97 30.884C143.166 30.8188 143.363 30.8188 143.559 30.8188C143.952 30.8188 144.28 30.884 144.476 31.0795C144.673 31.2749 144.804 31.5356 144.804 31.9265V33.6857H144.411V31.8613H144.345Z" fill="#2E2E2E"/>
</svg>
