<svg width="16" height="16" viewBox="0 0 16 16" fill="none" xmlns="http://www.w3.org/2000/svg">
<path fill-rule="evenodd" clip-rule="evenodd" d="M2.26705 0.980217C2.43105 0.816198 2.62805 0.688926 2.84499 0.606844C3.06192 0.524763 3.29383 0.489747 3.52533 0.504121C3.75683 0.518495 3.98263 0.58193 4.18774 0.690218C4.39286 0.798505 4.5726 0.94917 4.71505 1.13222L6.39605 3.29422C6.70505 3.69022 6.81405 4.20722 6.69205 4.69422L6.17905 6.74722C6.15237 6.85375 6.15373 6.96537 6.183 7.07121C6.21226 7.17706 6.26844 7.27353 6.34605 7.35122L8.65005 9.65422C8.72774 9.73183 8.82421 9.78801 8.93005 9.81727C9.0359 9.84654 9.14752 9.8479 9.25405 9.82122L11.3061 9.30822C11.5467 9.24811 11.7979 9.24352 12.0407 9.2948C12.2834 9.34608 12.5113 9.45189 12.7071 9.60422L14.8691 11.2852C15.6461 11.8892 15.7181 13.0382 15.0221 13.7332L14.0521 14.7032C13.3591 15.3962 12.3221 15.7012 11.3551 15.3612C8.88146 14.4906 6.6356 13.0742 4.78405 11.2172C2.92669 9.36576 1.51 7.1199 0.639051 4.64622C0.299051 3.67922 0.604051 2.64222 1.29705 1.94822L2.26705 0.979217V0.980217Z" fill="#828282"/>
</svg>
