<svg width="67" height="67" viewBox="0 0 67 67" fill="none" xmlns="http://www.w3.org/2000/svg">
<path d="M61.5968 15.129H60.5161V0H6.48387V15.129H5.40323C2.42406 15.129 0 17.5531 0 20.5323V55.1129C0 58.0921 2.42406 60.5161 5.40323 60.5161H19.4516V64.8387H15.129V67H51.871V64.8387H47.5484V60.5161H61.5968C64.5759 60.5161 67 58.0921 67 55.1129V20.5323C67 17.5531 64.5759 15.129 61.5968 15.129ZM8.64516 10.8065H58.3548V45.3871H8.64516V10.8065ZM58.3548 2.16129V8.64516H8.64516V2.16129H58.3548ZM5.40323 17.2903H6.48387V47.5484H60.5161V17.2903H61.5968C63.384 17.2903 64.8387 18.7451 64.8387 20.5323V49.7097H2.16129V20.5323C2.16129 18.7451 3.61605 17.2903 5.40323 17.2903ZM45.3871 64.8387H21.6129V60.5161H45.3871V64.8387ZM61.5968 58.3548H5.40323C3.61605 58.3548 2.16129 56.9001 2.16129 55.1129V51.871H64.8387V55.1129C64.8387 56.9001 63.384 58.3548 61.5968 58.3548Z" fill="#E5E5E5"/>
<path d="M6.48389 54.0322H8.64518V56.1935H6.48389V54.0322Z" fill="#E5E5E5"/>
<path d="M10.8064 54.0322H12.9677V56.1935H10.8064V54.0322Z" fill="#E5E5E5"/>
<path d="M15.1289 54.0322H17.2902V56.1935H15.1289V54.0322Z" fill="#E5E5E5"/>
<path d="M10.8064 4.32251H12.9677V6.4838H10.8064V4.32251Z" fill="#E5E5E5"/>
<path d="M15.1289 4.32251H17.2902V6.4838H15.1289V4.32251Z" fill="#E5E5E5"/>
<path d="M19.4517 4.32251H21.613V6.4838H19.4517V4.32251Z" fill="#E5E5E5"/>
<path d="M28.5009 26.1613L24.8548 25.1208V24.8332C26.2014 23.8185 27.0161 22.2223 27.0161 20.5333V18.5968C27.0161 15.692 24.8537 13.2305 22.0925 12.9904C20.5797 12.8596 19.0743 13.3688 17.9625 14.3887C16.8481 15.4087 16.2096 16.8613 16.2096 18.371V20.5322C16.2096 22.2213 17.0243 23.8185 18.3709 24.8321V25.1197L14.7248 26.1613C12.4179 26.8214 10.8064 28.9579 10.8064 31.3572V34.5806H32.4193V31.3572C32.4193 28.9579 30.8078 26.8214 28.5009 26.1613ZM30.258 32.4193H12.9677V31.3572C12.9677 29.9166 13.9349 28.635 15.3189 28.2392L20.5322 26.7502V23.6338L19.995 23.3214C18.9782 22.7294 18.3709 21.6862 18.3709 20.5322V18.371C18.3709 17.4655 18.7545 16.5933 19.4236 15.9807C20.1001 15.3591 20.9797 15.0588 21.9068 15.1422C23.5589 15.2857 24.8548 16.8017 24.8548 18.5957V20.5322C24.8548 21.6862 24.2474 22.7294 23.2306 23.3214L22.6935 23.6338V26.7502L27.9068 28.2392C29.2908 28.636 30.258 29.9177 30.258 31.3572V32.4193Z" fill="#534294"/>
<path d="M10.8064 36.7419H32.4193V38.9032H10.8064V36.7419Z" fill="#534294"/>
<path d="M10.8064 41.0645H32.4193V43.2257H10.8064V41.0645Z" fill="#534294"/>
<path d="M34.5806 43.2259H56.1935V25.9355H34.5806V43.2259ZM36.7419 28.0968H54.0322V41.0646H36.7419V28.0968Z" fill="#534294"/>
<path d="M34.5806 12.9678H56.1935V15.1291H34.5806V12.9678Z" fill="#534294"/>
<path d="M34.5806 17.2903H56.1935V19.4516H34.5806V17.2903Z" fill="#534294"/>
<path d="M34.5806 21.6129H49.7096V23.7742H34.5806V21.6129Z" fill="#534294"/>
</svg>
