<svg width="67" height="67" viewBox="0 0 67 67" fill="none" xmlns="http://www.w3.org/2000/svg">
<path d="M48.6462 46.3493L47.9647 46.2132L47.5826 44.6848C52.1155 43.5353 55.4844 39.4326 55.4844 34.5469V32.4531H56.5312C59.4175 32.4531 61.7656 30.105 61.7656 27.2188V12.997C63.0847 10.832 63.8594 8.29963 63.8594 5.58403C63.8594 4.2367 62.7633 3.14062 61.417 3.14062C60.6528 3.14062 59.921 3.50598 59.4625 4.11841L58.2492 5.73688C57.5007 6.7335 56.3104 7.32812 55.0656 7.32812C54.2114 7.32812 53.3634 7.04547 52.6787 6.5325L50.428 4.84389C47.1628 2.39525 43.1176 1.04688 39.0359 1.04688H37.1641C32.0522 1.04688 27.2596 3.66092 24.4676 7.91333C22.9998 7.54483 21.4714 7.32812 19.8906 7.32812C9.50039 7.32812 1.04688 15.7816 1.04688 26.1719C1.04688 36.5621 9.50039 45.0156 19.8906 45.0156C23.9923 45.0156 27.7799 43.684 30.8776 41.45C32.2814 43.0444 34.1292 44.1708 36.1664 44.689L35.7853 46.2132L35.1038 46.3493C26.2881 48.1123 19.8906 55.9167 19.8906 64.9062V65.9531H63.8594V64.9062C63.8594 55.9167 57.4619 48.1123 48.6462 46.3493ZM40.2325 52.1815L36.4616 54.694L35.8272 48.3395L36.2973 48.2452L40.2325 52.1815ZM40.8281 54.2993L41.875 53.601L42.9219 54.2993V59.2385L41.875 60.2853L40.8281 59.2385V54.2993ZM43.5175 52.1815L47.4527 48.2463L47.9228 48.3405L47.2884 54.695L43.5175 52.1815ZM56.5312 30.3594H55.4844V24.0781H56.5312C58.2628 24.0781 59.6719 25.4872 59.6719 27.2188C59.6719 28.9503 58.2628 30.3594 56.5312 30.3594ZM59.6719 23.0585C58.7946 22.3937 57.7142 21.9844 56.5312 21.9844H55.4844V18.5862C57.0495 17.8691 58.4701 16.8903 59.6719 15.6864V23.0585ZM37.1641 3.14062H39.0359C42.6675 3.14062 46.2656 4.34034 49.1717 6.51889L51.4225 8.2075C52.4662 8.99056 53.7612 9.42188 55.0656 9.42188C56.9657 9.42188 58.782 8.51423 59.9242 6.99312L61.1375 5.37466C61.3165 5.13178 61.7656 5.28044 61.7656 5.58298C61.7656 12.3186 56.2873 17.7969 49.5517 17.7969C45.9808 17.7969 42.4895 17.1237 39.173 15.7973L34.5165 13.935C34.3731 13.8774 34.2223 13.847 34.0737 13.8041C32.0564 11.4936 29.4894 9.68569 26.5749 8.57495C29.0204 5.20402 32.9598 3.14062 37.1641 3.14062ZM3.14062 26.1719C3.14062 16.9363 10.6551 9.42188 19.8906 9.42188C29.1262 9.42188 36.6406 16.9363 36.6406 26.1719C36.6406 35.4074 29.1262 42.9219 19.8906 42.9219C10.6551 42.9219 3.14062 35.4074 3.14062 26.1719ZM32.5013 40.133C36.3182 36.6825 38.7344 31.7098 38.7344 26.1719C38.7344 22.7978 37.8309 19.6352 36.2711 16.8924L38.3962 17.7424C41.9598 19.1683 45.7139 19.8906 49.5517 19.8906C50.8834 19.8906 52.1668 19.6938 53.3906 19.3525V34.5469C53.3906 39.1646 49.6334 42.9219 45.0156 42.9219H38.7344C36.3485 42.9219 34.081 41.8917 32.5013 40.133ZM38.7344 45.0156H45.0156C45.18 45.0156 45.3391 44.9989 45.5014 44.9915L45.9505 46.788L41.875 50.8635L37.7995 46.788L38.2497 44.9863C38.4119 44.9936 38.5711 45.0156 38.7344 45.0156ZM22.0168 63.8594C22.4502 56.9113 27.1779 50.9367 33.7743 48.8608L34.7248 58.3685L38.7344 55.6958V60.1053L41.875 63.2459L45.0156 60.1053V55.6958L49.0241 58.3685L49.9747 48.8608C56.571 50.9367 61.2987 56.9113 61.7321 63.8594H22.0168Z" fill="#E5E5E5"/>
<path d="M48.1562 29.3125C49.8878 29.3125 51.2969 27.9034 51.2969 26.1719C51.2969 24.4403 49.8878 23.0312 48.1562 23.0312C46.4247 23.0312 45.0156 24.4403 45.0156 26.1719C45.0156 27.9034 46.4247 29.3125 48.1562 29.3125ZM48.1562 25.125C48.7341 25.125 49.2031 25.595 49.2031 26.1719C49.2031 26.7487 48.7341 27.2188 48.1562 27.2188C47.5784 27.2188 47.1094 26.7487 47.1094 26.1719C47.1094 25.595 47.5784 25.125 48.1562 25.125Z" fill="#E5E5E5"/>
<path d="M48.1562 34.5469H46.0625C46.0625 35.7016 45.1235 36.6406 43.9688 36.6406H37.6875V38.7344H43.9688C46.2782 38.7344 48.1562 36.8563 48.1562 34.5469Z" fill="#E5E5E5"/>
<path d="M34.3584 26.7707L34.7761 26.1719L34.3595 25.5731C30.9676 20.704 25.5584 17.7969 19.8906 17.7969C14.2229 17.7969 8.81366 20.704 5.42283 25.5731L5.00513 26.1719L5.42178 26.7707C8.81366 31.6397 14.2229 34.5469 19.8906 34.5469C25.5584 34.5469 30.9676 31.6397 34.3584 26.7707ZM26.1719 26.1719C26.1719 29.3942 23.7327 32.0532 20.6046 32.4092C20.3659 32.4217 20.1304 32.4531 19.8906 32.4531C19.6509 32.4531 19.4154 32.4217 19.1767 32.4092C16.0486 32.0532 13.6094 29.3942 13.6094 26.1719C13.6094 22.9496 16.0486 20.2905 19.1767 19.9346C19.4154 19.922 19.6509 19.8906 19.8906 19.8906C20.1304 19.8906 20.3659 19.922 20.6046 19.9346C23.7327 20.2905 26.1719 22.9496 26.1719 26.1719ZM7.57625 26.1719C9.01884 24.2833 10.8184 22.7779 12.818 21.7059C11.9982 23.0009 11.5156 24.5293 11.5156 26.1719C11.5156 27.8144 11.9982 29.3429 12.818 30.6378C10.8195 29.5658 9.01884 28.0604 7.57625 26.1719ZM26.9633 30.6378C27.783 29.3429 28.2656 27.8144 28.2656 26.1719C28.2656 24.5293 27.783 23.0009 26.9633 21.7059C28.9618 22.7769 30.7624 24.2833 32.205 26.1719C30.7624 28.0604 28.9618 29.5658 26.9633 30.6378Z" fill="#534294"/>
</svg>
