<svg width="66" height="66" viewBox="0 0 66 66" fill="none" xmlns="http://www.w3.org/2000/svg">
<path d="M44.6016 41.1211C43.8897 41.1211 43.3125 41.6982 43.3125 42.4102V51.3047C43.3125 54.8586 40.4211 57.75 36.8672 57.75H22.9494C22.2377 57.75 21.6609 58.3266 21.6604 59.0382L21.6586 61.6011L18.5818 58.5245C18.3827 58.0672 17.9269 57.75 17.3996 57.75H9.02344C5.46949 57.75 2.57812 54.8586 2.57812 51.3047V31.4531C2.57812 27.8992 5.46949 25.0078 9.02344 25.0078H22.043C22.7548 25.0078 23.332 24.4307 23.332 23.7188C23.332 23.0068 22.7548 22.4297 22.043 22.4297H9.02344C4.04791 22.4297 0 26.4776 0 31.4531V51.3047C0 56.2802 4.04791 60.3281 9.02344 60.3281H16.7395L22.0338 65.6224C22.2804 65.869 22.61 66 22.9456 66C23.1115 66 23.2789 65.9679 23.4381 65.902C23.9198 65.7027 24.234 65.233 24.2344 64.7118L24.2375 60.3281H36.8672C41.8427 60.3281 45.8906 56.2802 45.8906 51.3047V42.4102C45.8906 41.6982 45.3134 41.1211 44.6016 41.1211Z" fill="#E5E5E5"/>
<path d="M47.2641 0H44.0016C33.6706 0 25.2656 8.40494 25.2656 18.736C25.2656 29.0671 33.6706 37.4719 44.0015 37.4719H47.264C48.8765 37.4719 50.4725 37.2671 52.0193 36.8623L56.8388 41.679C57.0854 41.9253 57.4148 42.0563 57.7503 42.0563C57.9164 42.0563 58.084 42.0242 58.2435 41.9581C58.725 41.7585 59.0391 41.2885 59.0391 40.7672V33.3092C61.0795 31.6568 62.7745 29.5694 63.9641 27.2375C65.3151 24.589 66 21.7287 66 18.736C66 8.40494 57.5951 0 47.2641 0ZM56.9744 31.651C56.6512 31.8945 56.4609 32.2758 56.4609 32.6807V37.6565L53.3065 34.5037C53.061 34.2585 52.7318 34.1264 52.3951 34.1264C52.2688 34.1264 52.1412 34.1451 52.0166 34.1834C50.4823 34.6549 48.8833 34.8939 47.2641 34.8939H44.0016C35.092 34.8939 27.8438 27.6455 27.8438 18.736C27.8438 9.82652 35.0921 2.57812 44.0016 2.57812H47.2641C56.1736 2.57812 63.4219 9.82652 63.4219 18.736C63.4219 23.8576 61.0719 28.565 56.9744 31.651Z" fill="#534294"/>
<path d="M51.4379 14.105C51.2519 11.4063 49.0764 9.23089 46.3777 9.04488C44.8478 8.93982 43.3878 9.45583 42.2703 10.4991C41.1682 11.5279 40.5361 12.9822 40.5361 14.4892C40.5361 15.2012 41.1134 15.7783 41.8252 15.7783C42.537 15.7783 43.1143 15.2012 43.1143 14.4892C43.1143 13.6824 43.4394 12.9346 44.0295 12.3838C44.6191 11.8335 45.3897 11.5611 46.2005 11.6171C47.6221 11.715 48.768 12.8609 48.8659 14.2823C48.9649 15.718 48.023 16.9867 46.6264 17.2991C45.4949 17.5523 44.7047 18.5356 44.7047 19.6902V22.7872C44.7047 23.4991 45.2819 24.0763 45.9938 24.0763C46.7057 24.0763 47.2828 23.4991 47.2827 22.7872V19.7932C49.8802 19.1657 51.6228 16.7889 51.4379 14.105Z" fill="#534294"/>
<path d="M46.9053 26.9749C46.6655 26.7351 46.3329 26.5972 45.9939 26.5972C45.6549 26.5972 45.3223 26.7351 45.0825 26.9749C44.8428 27.2146 44.7048 27.5472 44.7048 27.8862C44.7048 28.2265 44.8429 28.5591 45.0825 28.7989C45.3223 29.0387 45.6549 29.1753 45.9939 29.1753C46.3329 29.1753 46.6655 29.0387 46.9053 28.7989C47.145 28.5578 47.283 28.2265 47.283 27.8862C47.283 27.5472 47.1449 27.2146 46.9053 26.9749Z" fill="#534294"/>
<path d="M35.4492 39.9609H8.25C7.53818 39.9609 6.96094 40.5381 6.96094 41.25C6.96094 41.9619 7.53818 42.5391 8.25 42.5391H35.4492C36.1612 42.5391 36.7383 41.9619 36.7383 41.25C36.7383 40.5381 36.161 39.9609 35.4492 39.9609Z" fill="#E5E5E5"/>
<path d="M36.3605 47.5574C36.1208 47.3176 35.7882 47.1797 35.4492 47.1797C35.1102 47.1797 34.7776 47.3176 34.5379 47.5574C34.298 47.7971 34.1602 48.1297 34.1602 48.4688C34.1602 48.8078 34.2981 49.1404 34.5379 49.3801C34.7776 49.6199 35.1102 49.7578 35.4492 49.7578C35.7882 49.7578 36.1208 49.6199 36.3605 49.3801C36.6004 49.1404 36.7383 48.8091 36.7383 48.4688C36.7383 48.1297 36.6002 47.7971 36.3605 47.5574Z" fill="#E5E5E5"/>
<path d="M30.379 47.1797H8.25C7.53818 47.1797 6.96094 47.7568 6.96094 48.4688C6.96094 49.1807 7.53818 49.7578 8.25 49.7578H30.379C31.0909 49.7578 31.668 49.1807 31.668 48.4688C31.668 47.7568 31.0908 47.1797 30.379 47.1797Z" fill="#E5E5E5"/>
<path d="M27.0703 32.7422H8.25C7.53818 32.7422 6.96094 33.3193 6.96094 34.0312C6.96094 34.7432 7.53818 35.3203 8.25 35.3203H27.0703C27.7823 35.3203 28.3594 34.7432 28.3594 34.0312C28.3594 33.3193 27.7821 32.7422 27.0703 32.7422Z" fill="#E5E5E5"/>
</svg>
