<svg width="22" height="22" viewBox="0 0 22 22" fill="none" xmlns="http://www.w3.org/2000/svg">
<path d="M21.3888 10.9444C21.3888 16.7127 16.7127 21.3888 10.9444 21.3888C5.17612 21.3888 0.5 16.7127 0.5 10.9444C0.5 5.17612 5.17612 0.5 10.9444 0.5C16.7127 0.5 21.3888 5.17612 21.3888 10.9444Z" stroke="#828282"/>
<path fill-rule="evenodd" clip-rule="evenodd" d="M10.6558 14.7348H11.4027C11.4027 14.7348 11.6283 14.7091 11.7434 14.5805C11.8494 14.4625 11.846 14.2407 11.846 14.2407C11.846 14.2407 11.8315 13.2028 12.2965 13.0499C12.755 12.8994 13.3438 14.0531 13.9678 14.4967C14.4396 14.8325 14.7982 14.7589 14.7982 14.7589L16.4667 14.7348C16.4667 14.7348 17.3396 14.6791 16.9257 13.9683C16.8918 13.9101 16.6847 13.4424 15.6851 12.4814C14.6389 11.4756 14.779 11.6383 16.0393 9.89842C16.8068 8.83884 17.1136 8.19196 17.0178 7.91489C16.9264 7.65101 16.3619 7.72076 16.3619 7.72076L14.4832 7.73288C14.4832 7.73288 14.344 7.7132 14.2407 7.77715C14.1398 7.83988 14.0748 7.98605 14.0748 7.98605C14.0748 7.98605 13.7775 8.80599 13.3809 9.5033C12.5444 10.9747 12.2099 11.0523 12.0732 10.961C11.7551 10.7481 11.8345 10.1056 11.8345 9.64912C11.8345 8.22323 12.0433 7.6287 11.4279 7.47479C11.2237 7.42367 11.0734 7.38994 10.5512 7.38449C9.88087 7.37729 9.3135 7.3866 8.99225 7.54964C8.77853 7.65804 8.61367 7.89961 8.71408 7.91349C8.83824 7.93071 9.11946 7.99202 9.26855 8.20232C9.46107 8.47359 9.45428 9.08287 9.45428 9.08287C9.45428 9.08287 9.56487 10.7614 9.19596 10.9699C8.94272 11.113 8.59535 10.821 7.84955 9.48608C7.4674 8.8023 7.17888 8.04649 7.17888 8.04649C7.17888 8.04649 7.12325 7.90523 7.02402 7.82969C6.9036 7.73815 6.73534 7.70899 6.73534 7.70899L4.95013 7.72111C4.95013 7.72111 4.68213 7.72884 4.58376 7.84954C4.49623 7.95688 4.5768 8.17896 4.5768 8.17896C4.5768 8.17896 5.97444 11.5659 7.55696 13.2727C9.00802 14.8376 10.6558 14.7348 10.6558 14.7348Z" fill="#828282"/>
</svg>
