<svg width="71" height="71" viewBox="0 0 71 71" fill="none" xmlns="http://www.w3.org/2000/svg">
<path d="M66.2667 13.0167H48.5167V8.28335H50.8833C51.5933 8.28335 52.0667 7.81002 52.0667 7.10002V2.36668C52.0667 1.65668 51.5933 1.18335 50.8833 1.18335H20.1167C19.4067 1.18335 18.9333 1.65668 18.9333 2.36668V7.10002C18.9333 7.81002 19.4067 8.28335 20.1167 8.28335H22.4833V13.0167H4.73333C2.13 13.0167 0 15.1467 0 17.75V35.5C0 36.21 0.473333 36.6833 1.18333 36.6833H4.73333V68.6333C4.73333 69.3433 5.20667 69.8167 5.91667 69.8167H36.6833V67.45H7.1V36.6833H23.6667V34.3167H5.91667H2.36667V17.75C2.36667 16.4483 3.43167 15.3833 4.73333 15.3833H23.6667H47.3333H66.2667C67.5683 15.3833 68.6333 16.4483 68.6333 17.75V34.3167H66.2667V36.6833H69.8167C70.5267 36.6833 71 36.21 71 35.5V17.75C71 15.1467 68.87 13.0167 66.2667 13.0167ZM21.3 3.55002H49.7V5.91668H21.3V3.55002ZM24.85 13.0167V8.28335H46.15V13.0167H24.85Z" fill="#E5E5E5"/>
<path d="M44.9667 39.0499V31.9499C44.9667 31.2399 44.4933 30.7666 43.7833 30.7666H27.2167C26.5067 30.7666 26.0333 31.2399 26.0333 31.9499V39.0499C26.0333 39.7599 26.5067 40.2333 27.2167 40.2333H43.7833C44.4933 40.2333 44.9667 39.7599 44.9667 39.0499ZM42.6 37.8666H28.4V33.1333H42.6V37.8666Z" fill="#E5E5E5"/>
<path d="M61.5333 44.9668H49.7C45.085 44.9668 41.4166 48.6351 41.4166 53.2501V69.8168H43.7833V53.2501C43.7833 49.9368 46.3866 47.3335 49.7 47.3335H51.2383L54.5516 56.0901C54.67 56.4451 55.1433 56.8001 55.6166 56.8001C56.09 56.8001 56.5633 56.4451 56.9183 56.0901L60.2316 47.3335H61.5333C64.8466 47.3335 67.45 49.9368 67.45 53.2501V69.8168H69.8166V53.2501C69.8166 48.6351 66.1483 44.9668 61.5333 44.9668ZM55.735 52.3035L53.8416 47.3335H57.6283L55.735 52.3035Z" fill="#534294"/>
<path d="M56.8 59.1667H54.4333V61.5334H56.8V59.1667Z" fill="#534294"/>
<path d="M56.8 63.8999H54.4333V66.2666H56.8V63.8999Z" fill="#534294"/>
<path d="M54.4334 43.7832H56.8001C60.1134 43.7832 62.7167 41.1799 62.7167 37.8666V34.3166C62.7167 31.0032 60.1134 28.3999 56.8001 28.3999H54.4334C51.1201 28.3999 48.5167 31.0032 48.5167 34.3166V37.8666C48.5167 41.1799 51.1201 43.7832 54.4334 43.7832ZM50.8834 34.3166C50.8834 32.3049 52.4217 30.7666 54.4334 30.7666H56.8001C58.8117 30.7666 60.3501 32.3049 60.3501 34.3166V37.8666C60.3501 39.8782 58.8117 41.4166 56.8001 41.4166H54.4334C52.4217 41.4166 50.8834 39.8782 50.8834 37.8666V34.3166Z" fill="#534294"/>
<path d="M49.7 56.8H47.3334V69.8167H49.7V56.8Z" fill="#534294"/>
<path d="M63.9 56.8H61.5333V69.8167H63.9V56.8Z" fill="#534294"/>
</svg>
