<svg width="16" height="16" viewBox="0 0 16 16" fill="none" xmlns="http://www.w3.org/2000/svg">
<path fill-rule="evenodd" clip-rule="evenodd" d="M8 16C5.87827 16 3.84344 15.1571 2.34315 13.6569C0.842854 12.1566 0 10.1217 0 8C0 5.87827 0.842854 3.84344 2.34315 2.34315C3.84344 0.842855 5.87827 0 8 0C10.1217 0 12.1566 0.842855 13.6569 2.34315C15.1571 3.84344 16 5.87827 16 8C16 10.1217 15.1571 12.1566 13.6569 13.6569C12.1566 15.1571 10.1217 16 8 16ZM5.354 7.646C5.26011 7.55211 5.13278 7.49937 5 7.49937C4.86722 7.49937 4.73989 7.55211 4.646 7.646C4.55211 7.73989 4.49937 7.86722 4.49937 8C4.49937 8.13278 4.55211 8.26011 4.646 8.354L7.646 11.354C7.69245 11.4006 7.74762 11.4375 7.80837 11.4627C7.86911 11.4879 7.93423 11.5009 8 11.5009C8.06577 11.5009 8.13089 11.4879 8.19163 11.4627C8.25238 11.4375 8.30755 11.4006 8.354 11.354L11.354 8.354C11.4005 8.30751 11.4374 8.25232 11.4625 8.19158C11.4877 8.13084 11.5006 8.06574 11.5006 8C11.5006 7.93426 11.4877 7.86916 11.4625 7.80842C11.4374 7.74768 11.4005 7.69249 11.354 7.646C11.3075 7.59951 11.2523 7.56264 11.1916 7.53748C11.1308 7.51232 11.0657 7.49937 11 7.49937C10.9343 7.49937 10.8692 7.51232 10.8084 7.53748C10.7477 7.56264 10.6925 7.59951 10.646 7.646L8.5 9.793V5C8.5 4.86739 8.44732 4.74021 8.35355 4.64645C8.25979 4.55268 8.13261 4.5 8 4.5C7.86739 4.5 7.74021 4.55268 7.64645 4.64645C7.55268 4.74021 7.5 4.86739 7.5 5V9.793L5.354 7.646Z" fill="#2E2E2E"/>
</svg>
