<svg width="42" height="46" viewBox="0 0 42 46" fill="none" xmlns="http://www.w3.org/2000/svg">
<path fill-rule="evenodd" clip-rule="evenodd" d="M1.75293 12.2517C1.75293 11.7876 1.93728 11.3426 2.26542 11.0144C2.59356 10.6863 3.03861 10.502 3.50267 10.502H40.2472C40.7113 10.502 41.1563 10.6863 41.4845 11.0144C41.8126 11.3426 41.9969 11.7876 41.9969 12.2517C41.9969 12.7158 41.8126 13.1608 41.4845 13.4889C41.1563 13.8171 40.7113 14.0014 40.2472 14.0014H3.50267C3.03861 14.0014 2.59356 13.8171 2.26542 13.4889C1.93728 13.1608 1.75293 12.7158 1.75293 12.2517Z" fill="#B3A7E0"/>
<path fill-rule="evenodd" clip-rule="evenodd" d="M0.00312794 33.2482C0.00312794 32.7841 0.187475 32.3391 0.515615 32.0109C0.843755 31.6828 1.28881 31.4984 1.75287 31.4984H38.4974C38.9614 31.4984 39.4065 31.6828 39.7346 32.0109C40.0628 32.3391 40.2471 32.7841 40.2471 33.2482C40.2471 33.7122 40.0628 34.1573 39.7346 34.4854C39.4065 34.8136 38.9614 34.9979 38.4974 34.9979H1.75287C1.28881 34.9979 0.843755 34.8136 0.515615 34.4854C0.187475 34.1573 0.00312794 33.7122 0.00312794 33.2482ZM13.4901 0.514052C13.6531 0.676588 13.7823 0.869673 13.8706 1.08225C13.9588 1.29483 14.0042 1.52272 14.0042 1.75287C14.0042 1.98302 13.9588 2.21091 13.8706 2.42349C13.7823 2.63606 13.6531 2.82915 13.4901 2.99168L4.227 12.2513L13.4901 21.5109C13.6528 21.6736 13.7818 21.8667 13.8699 22.0793C13.9579 22.2919 14.0033 22.5197 14.0033 22.7497C14.0033 22.9798 13.9579 23.2076 13.8699 23.4202C13.7818 23.6327 13.6528 23.8259 13.4901 23.9886C13.3274 24.1512 13.1343 24.2803 12.9217 24.3683C12.7092 24.4564 12.4814 24.5017 12.2513 24.5017C12.0212 24.5017 11.7934 24.4564 11.5809 24.3683C11.3683 24.2803 11.1752 24.1512 11.0125 23.9886L0.514051 13.4901C0.351104 13.3276 0.221824 13.1345 0.133615 12.9219C0.0454052 12.7093 0 12.4815 0 12.2513C0 12.0212 0.0454052 11.7933 0.133615 11.5807C0.221824 11.3681 0.351104 11.175 0.514051 11.0125L11.0125 0.514052C11.175 0.351105 11.3681 0.221824 11.5807 0.133615C11.7933 0.0454052 12.0212 0 12.2513 0C12.4815 0 12.7093 0.0454052 12.9219 0.133615C13.1345 0.221824 13.3276 0.351105 13.4901 0.514052Z" fill="#D0D0D0"/>
<path fill-rule="evenodd" clip-rule="evenodd" d="M28.5099 21.5109C28.6724 21.3479 28.8655 21.2186 29.0781 21.1304C29.2907 21.0422 29.5186 20.9968 29.7487 20.9968C29.9789 20.9968 30.2068 21.0422 30.4193 21.1304C30.6319 21.2186 30.825 21.3479 30.9875 21.5109L41.486 32.0093C41.6489 32.1718 41.7782 32.3649 41.8664 32.5775C41.9546 32.7901 42 33.018 42 33.2481C42 33.4783 41.9546 33.7062 41.8664 33.9187C41.7782 34.1313 41.6489 34.3244 41.486 34.4869L30.9875 44.9854C30.659 45.3139 30.2134 45.4985 29.7487 45.4985C29.2841 45.4985 28.8385 45.3139 28.5099 44.9854C28.1813 44.6568 27.9968 44.2112 27.9968 43.7466C27.9968 43.2819 28.1813 42.8363 28.5099 42.5077L37.773 33.2481L28.5099 23.9885C28.347 23.826 28.2177 23.6329 28.1295 23.4203C28.0413 23.2077 27.9958 22.9798 27.9958 22.7497C27.9958 22.5195 28.0413 22.2917 28.1295 22.0791C28.2177 21.8665 28.347 21.6734 28.5099 21.5109Z" fill="#B3A7E0"/>
</svg>
