<svg width="38" height="45" viewBox="0 0 38 45" fill="none" xmlns="http://www.w3.org/2000/svg">
<path d="M35.783 5.96381H31.9878V2.1687C31.9879 0.975848 31.0119 0 29.8197 0H2.16861C0.975848 0 0 0.975848 0 2.1687V36.8674C0 38.0602 0.975848 39.0361 2.1687 39.0361H5.9639V42.8313C5.9639 44.0241 6.9393 45 8.13259 45H26.5658C27.758 45 29.4452 44.331 30.3132 43.514L36.3714 37.8114C37.2405 36.9944 37.9508 35.3495 37.9508 34.1567L37.9518 8.13268C37.9517 6.93974 36.9758 5.96381 35.783 5.96381ZM5.96372 8.13259V37.4096H2.16861C1.87479 37.4096 1.6265 37.1613 1.6265 36.8675V2.1687C1.6265 1.87488 1.87479 1.62659 2.16861 1.62659H29.8197C30.113 1.62659 30.3618 1.87488 30.3618 2.1687V5.9639H8.13242C6.93913 5.9639 5.96372 6.93974 5.96372 8.13259ZM35.2566 36.6272L29.1984 42.3293C29.0743 42.4459 28.9127 42.5603 28.7343 42.6691V37.6807C28.7343 37.3082 28.8845 36.9731 29.1323 36.7237C29.3822 36.4759 29.7173 36.3253 30.0897 36.3253H35.5142C35.43 36.4396 35.3439 36.5448 35.2566 36.6272ZM36.3241 34.1565C36.3241 34.3175 36.2947 34.504 36.2503 34.6986H30.0897C28.4443 34.7019 27.111 36.0351 27.1077 37.6806V43.3077C26.9142 43.3468 26.7277 43.3732 26.5656 43.3732H8.13242V43.3733C7.83798 43.3733 7.59031 43.125 7.59031 42.8312V8.1325C7.59031 7.83869 7.83807 7.5904 8.13242 7.5904H35.7829C36.0767 7.5904 36.325 7.83869 36.325 8.1325L36.3241 34.1565Z" fill="#CECECE"/>
<path d="M29.8193 13.5542H14.0965C13.647 13.5542 13.2832 13.918 13.2832 14.3674C13.2832 14.8169 13.6471 15.1807 14.0965 15.1807H29.8193C30.2682 15.1807 30.6325 14.8169 30.6325 14.3674C30.6325 13.918 30.2682 13.5542 29.8193 13.5542Z" fill="#534294"/>
<path d="M29.8193 24.3975H14.0965C13.647 24.3975 13.2832 24.7612 13.2832 25.2107C13.2832 25.6602 13.6471 26.024 14.0965 26.024H29.8193C30.2682 26.024 30.6325 25.6602 30.6325 25.2107C30.6325 24.7612 30.2682 24.3975 29.8193 24.3975Z" fill="#534294"/>
<path d="M22.7711 29.8193H14.0965C13.647 29.8193 13.2832 30.1831 13.2832 30.6326C13.2832 31.0821 13.647 31.4458 14.0965 31.4458H22.7711C23.22 31.4458 23.5838 31.0821 23.5838 30.6326C23.5838 30.1831 23.22 29.8193 22.7711 29.8193Z" fill="#534294"/>
<path d="M29.8193 18.9758H14.0965C13.647 18.9758 13.2832 19.3396 13.2832 19.7891C13.2832 20.2386 13.6471 20.6023 14.0965 20.6023H29.8193C30.2682 20.6023 30.6325 20.2386 30.6325 19.7891C30.6325 19.3396 30.2682 18.9758 29.8193 18.9758Z" fill="#534294"/>
</svg>
