<svg width="32" height="32" viewBox="0 0 32 32" fill="none" xmlns="http://www.w3.org/2000/svg">
<circle cx="16" cy="16" r="15.75" stroke="#B1B1B1" stroke-width="0.5"/>
<g clip-path="url(#clip0)">
<path d="M22.9864 13.116C22.9536 12.3722 22.8333 11.8608 22.661 11.4176C22.4832 10.9472 22.2097 10.5261 21.8514 10.176C21.5013 9.82047 21.0774 9.5442 20.6124 9.36921C20.1667 9.19689 19.658 9.0766 18.9141 9.0438C18.1647 9.00823 17.9268 9 16.026 9C14.1253 9 13.8873 9.00823 13.1407 9.04102C12.3968 9.07382 11.8854 9.19422 11.4424 9.36644C10.9719 9.5442 10.5508 9.8177 10.2007 10.176C9.84513 10.5261 9.56897 10.95 9.39387 11.4149C9.22155 11.8608 9.10126 12.3694 9.06846 13.1133C9.03288 13.8627 9.02466 14.1006 9.02466 16.0014C9.02466 17.9021 9.03288 18.14 9.06568 18.8867C9.09848 19.6306 9.21888 20.142 9.3912 20.5851C9.56897 21.0555 9.84513 21.4766 10.2007 21.8267C10.5508 22.1823 10.9747 22.4585 11.4396 22.6335C11.8854 22.8058 12.394 22.9261 13.138 22.9589C13.8846 22.9918 14.1226 23 16.0234 23C17.9241 23 18.162 22.9918 18.9087 22.9589C19.6526 22.9261 20.164 22.8058 20.607 22.6335C21.5479 22.2698 22.2917 21.5259 22.6555 20.5851C22.8277 20.1393 22.9481 19.6306 22.9809 18.8867C23.0137 18.14 23.0219 17.9021 23.0219 16.0014C23.0219 14.1006 23.0192 13.8627 22.9864 13.116ZM21.7256 18.832C21.6955 19.5157 21.5807 19.8849 21.4849 20.1311C21.2497 20.741 20.7656 21.225 20.1557 21.4603C19.9096 21.556 19.5377 21.6709 18.8567 21.7009C18.1182 21.7338 17.8968 21.7419 16.0288 21.7419C14.1608 21.7419 13.9366 21.7338 13.2008 21.7009C12.5171 21.6709 12.1479 21.556 11.9018 21.4603C11.5982 21.3481 11.322 21.1703 11.0977 20.9379C10.8653 20.7109 10.6875 20.4374 10.5753 20.1339C10.4796 19.8877 10.3648 19.5157 10.3347 18.8348C10.3018 18.0963 10.2937 17.8748 10.2937 16.0068C10.2937 14.1389 10.3018 13.9146 10.3347 13.179C10.3648 12.4952 10.4796 12.126 10.5753 11.8799C10.6875 11.5763 10.8653 11.3001 11.1005 11.0758C11.3274 10.8433 11.6009 10.6655 11.9045 10.5534C12.1507 10.4577 12.5227 10.3429 13.2036 10.3128C13.942 10.28 14.1636 10.2717 16.0315 10.2717C17.9022 10.2717 18.1237 10.28 18.8594 10.3128C19.5432 10.3429 19.9124 10.4577 20.1585 10.5534C20.462 10.6655 20.7383 10.8433 20.9625 11.0758C21.195 11.3028 21.3728 11.5763 21.4849 11.8799C21.5807 12.126 21.6955 12.4979 21.7256 13.179C21.7584 13.9174 21.7667 14.1389 21.7667 16.0068C21.7667 17.8748 21.7584 18.0936 21.7256 18.832Z" fill="#B1B1B1"/>
<path d="M16.0258 12.4048C14.0404 12.4048 12.4294 14.0156 12.4294 16.0012C12.4294 17.9868 14.0404 19.5976 16.0258 19.5976C18.0114 19.5976 19.6223 17.9868 19.6223 16.0012C19.6223 14.0156 18.0114 12.4048 16.0258 12.4048ZM16.0258 18.3341C14.7378 18.3341 13.693 17.2894 13.693 16.0012C13.693 14.713 14.7378 13.6683 16.0258 13.6683C17.314 13.6683 18.3587 14.713 18.3587 16.0012C18.3587 17.2894 17.314 18.3341 16.0258 18.3341Z" fill="#B1B1B1"/>
<path d="M20.6043 12.2629C20.6043 12.7266 20.2284 13.1025 19.7646 13.1025C19.301 13.1025 18.925 12.7266 18.925 12.2629C18.925 11.7992 19.301 11.4233 19.7646 11.4233C20.2284 11.4233 20.6043 11.7992 20.6043 12.2629Z" fill="#B1B1B1"/>
</g>
<defs>
<clipPath id="clip0">
<rect width="14" height="14" fill="white" transform="translate(9 9)"/>
</clipPath>
</defs>
</svg>
