<svg width="79" height="79" viewBox="0 0 79 79" fill="none" xmlns="http://www.w3.org/2000/svg">
<rect x="2" y="2" width="75" height="75" rx="37.5" fill="#534294" stroke="#55C64C" stroke-width="4"/>
<mask id="mask0" mask-type="alpha" maskUnits="userSpaceOnUse" x="4" y="4" width="71" height="71">
<rect x="4" y="4" width="71" height="71" rx="35.5" fill="#E3E3E3"/>
</mask>
<g mask="url(#mask0)">
</g>
<path d="M20.4159 40.9813C20.7398 40.5611 21.343 40.483 21.7634 40.807C22.1837 41.131 22.2617 41.7343 21.9378 42.1545C20.95 43.4358 20.428 44.9706 20.428 46.5928C20.428 47.1234 19.9978 47.5536 19.4672 47.5536C18.9366 47.5536 18.5065 47.1233 18.5065 46.5928C18.5065 44.5422 19.1667 42.6017 20.4159 40.9813Z" fill="white"/>
<path d="M23.6443 34.5351C21.6936 33.2185 20.4083 30.988 20.4083 28.4628C20.4083 24.4254 23.693 21.1407 27.7304 21.1407C31.7679 21.1407 35.0526 24.4254 35.0526 28.4628C35.0526 30.9868 33.7685 33.2165 31.8192 34.5334C33.2393 35.0141 34.5688 35.7461 35.7492 36.7059C36.748 35.7454 38.0884 35.1921 39.4999 35.1921C40.9113 35.1921 42.2518 35.7456 43.2499 36.7059C44.4307 35.7461 45.7604 35.0141 47.1807 34.5333C45.2314 33.2164 43.9473 30.9867 43.9473 28.4627C43.9473 24.4252 47.232 21.1405 51.2695 21.1405C55.3064 21.1405 58.5907 24.4252 58.5907 28.4627C58.5907 30.9878 57.3057 33.2182 55.3552 34.5349C60.3689 36.2385 63.9878 40.9877 63.9987 46.5679C63.9989 46.5764 64 46.5844 64 46.5928C64 48.0679 63.1618 50.2449 59.1685 52.2393C56.3231 53.6605 52.4128 54.7289 47.8604 55.3286C45.1901 55.6808 42.3772 55.8595 39.4999 55.8595C36.6219 55.8595 33.8087 55.6809 31.1385 55.3286C26.5865 54.7289 22.6765 53.6605 19.8312 52.2393C15.8382 50.2448 15 48.0679 15 46.5928C15 41.002 18.6228 36.2413 23.6443 34.5351ZM33.131 28.4628C33.131 25.4849 30.7082 23.0623 27.7304 23.0623C24.7526 23.0623 22.3299 25.485 22.3299 28.4628C22.3299 31.4403 24.7526 33.8624 27.7304 33.8624C30.7082 33.8624 33.131 31.4403 33.131 28.4628ZM42.3667 38.6147C41.7139 37.6749 40.6424 37.1137 39.5 37.1137C38.357 37.1137 37.2851 37.6749 36.6324 38.6147C36.6324 38.615 36.6322 38.6152 36.6321 38.6154C36.2248 39.201 36.0096 39.8887 36.0096 40.6042C36.0096 42.5289 37.5754 44.0947 39.5001 44.0947C41.4243 44.0947 42.9896 42.5288 42.9896 40.6041C42.9896 39.8875 42.7746 39.2001 42.3667 38.6147ZM56.6692 28.4628C56.6692 25.4849 54.247 23.0623 51.2697 23.0623C48.2918 23.0623 45.8691 25.485 45.8691 28.4628C45.8691 31.4403 48.2919 33.8624 51.2697 33.8624C54.247 33.8624 56.6692 31.4403 56.6692 28.4628ZM48.6953 53.2692C52.5698 52.6792 55.8773 51.7353 58.3098 50.5203C60.733 49.3101 62.0701 47.9198 62.0779 46.6043C62.0779 46.6005 62.0773 46.5968 62.0773 46.5929C62.0774 40.6329 57.229 35.784 51.2696 35.784C48.7342 35.784 46.3153 36.6599 44.3796 38.2642C44.7286 38.9895 44.9111 39.7847 44.9111 40.6043C44.9111 42.2769 44.1482 43.7746 42.9525 44.7682C46.3108 46.1336 48.6865 49.4284 48.6953 53.2692ZM32.2249 53.5263C34.5619 53.799 37.0044 53.9381 39.5 53.9381C41.995 53.9381 44.4371 53.799 46.7741 53.5263V53.2904C46.7741 49.2794 43.511 46.0163 39.5 46.0163C35.4885 46.0163 32.2249 49.2794 32.2249 53.2904V53.5263ZM20.6899 50.5202C23.1222 51.7353 26.4293 52.6791 30.3035 53.2691C30.3122 49.4283 32.6881 46.1337 36.0467 44.7681C34.8507 43.7745 34.0877 42.2768 34.0877 40.6041C34.0877 39.7855 34.2701 38.9901 34.6195 38.2641C32.6847 36.6597 30.2661 35.7838 27.7302 35.7838C21.7703 35.7839 16.9215 40.6328 16.9215 46.5928C16.9215 47.9117 18.2598 49.3065 20.6899 50.5202Z" fill="white"/>
<path d="M23.2948 38.7243C24.5312 38.7243 24.5334 40.6458 23.2948 40.6458C22.0583 40.6458 22.0563 38.7243 23.2948 38.7243Z" fill="white"/>
</svg>
