<svg width="79" height="79" viewBox="0 0 79 79" fill="none" xmlns="http://www.w3.org/2000/svg">
<rect x="2" y="2" width="75" height="75" rx="37.5" fill="#534294" stroke="#FBD347" stroke-width="4"/>
<mask id="mask0" mask-type="alpha" maskUnits="userSpaceOnUse" x="4" y="4" width="71" height="71">
<rect x="4" y="4" width="71" height="71" rx="35.5" fill="#E3E3E3"/>
</mask>
<g mask="url(#mask0)">
</g>
<g clip-path="url(#clip0)">
<path d="M61.7223 58.2578C62.54 56.8582 62.9695 55.2735 62.9695 53.6346C62.9695 53.3946 62.8735 53.1645 62.7028 52.9957C62.5343 52.8291 62.3072 52.7358 62.0707 52.7358C62.0674 52.7358 62.0642 52.7358 62.061 52.7359L57.3894 52.7863V34.4202C57.3894 32.7017 57.1361 31.001 56.6364 29.3658C56.6363 29.3654 56.6361 29.3652 56.636 29.3648C55.8074 26.6491 54.2984 24.1427 52.2721 22.1165C48.9727 18.817 44.6035 17 39.969 17C36.1767 17 32.565 18.2106 29.5243 20.5008C26.586 22.7141 24.3787 25.8541 23.3089 29.3427C23.3088 29.3432 23.3086 29.3435 23.3085 29.344C22.8046 30.9837 22.5492 32.6916 22.5492 34.4203V39.8972C22.5492 46.5424 26.3677 52.575 32.2373 55.4971H23.7606C20.0373 55.4971 17.0082 58.4597 17.0082 62.1012C17.0082 62.5976 17.4107 63.0001 17.9071 63.0001H62.0939C62.5903 63.0001 62.9928 62.5976 62.9928 62.1012C62.9928 60.7173 62.545 59.3763 61.7223 58.2578ZM39.969 18.7978C44.1233 18.7978 48.0411 20.4278 51.0009 23.3876C52.7354 25.1219 54.0472 27.2471 54.8094 29.5522C54.8071 29.5566 54.805 29.5613 54.8027 29.5657C54.7819 29.6048 54.7594 29.6427 54.7379 29.6814C54.701 29.7478 54.6643 29.8145 54.6253 29.8796C54.2002 30.5918 53.6353 31.2487 52.9988 31.7788C52.957 31.8136 52.9151 31.8481 52.8726 31.882C52.8214 31.9227 52.7695 31.9625 52.7174 32.0019C52.3354 32.2903 51.9104 32.5499 51.4793 32.7583C50.4807 33.2408 49.3819 33.4912 48.2728 33.4912C44.1964 33.4912 40.88 30.1752 40.88 26.0994C40.88 25.603 40.4775 25.2005 39.9811 25.2005C39.9796 25.2005 39.978 25.2007 39.9765 25.2007C39.975 25.2007 39.9735 25.2005 39.9719 25.2005C39.4755 25.2005 39.073 25.603 39.073 26.0994C39.073 28.1929 38.1795 30.197 36.6217 31.5979C36.2526 31.9298 36.2224 32.4982 36.5543 32.8674C36.7319 33.0648 36.9769 33.1652 37.223 33.1652C37.4371 33.1652 37.6519 33.0892 37.8238 32.9348C38.7333 32.117 39.4606 31.1335 39.9763 30.0508C41.4567 33.1459 44.619 35.289 48.2729 35.289C48.886 35.289 49.4917 35.2278 50.0842 35.1091V39.8973C50.0842 40.569 50.0161 41.2326 49.8847 41.8797C49.824 42.1789 49.7488 42.4742 49.6616 42.7655C49.6442 42.8233 49.6262 42.8808 49.6079 42.9382C48.8528 45.3032 47.236 47.3621 45.0245 48.6486C43.4914 49.5408 41.7433 50.0123 39.9693 50.0123C38.1952 50.0123 36.4471 49.5407 34.9139 48.6485C31.793 46.8331 29.8544 43.4799 29.8544 39.8974V35.1069C29.9142 35.1189 29.9739 35.1248 30.0326 35.1248C30.4514 35.1248 30.8263 34.8304 30.9126 34.404C31.0113 33.9175 30.6967 33.4433 30.2101 33.3447C29.8891 33.2797 29.5695 33.1923 29.2596 33.0847C27.4913 32.4723 26.0048 31.1885 25.1349 29.5351C27.2384 23.1952 33.2877 18.7978 39.969 18.7978ZM44.5777 50.8758V55.4969H35.361V50.876C36.8147 51.4893 38.383 51.8098 39.9691 51.8098C41.5555 51.8098 43.1238 51.4892 44.5777 50.8758ZM24.3469 39.897V34.4201C24.3469 33.5696 24.4162 32.725 24.5531 31.893C25.4877 33.0392 26.691 33.9571 28.0563 34.5447V39.8968C28.0563 43.943 30.1541 47.7385 33.5633 49.9271V54.1364C28.0014 51.6212 24.3469 46.052 24.3469 39.897ZM18.8929 61.2021C19.3281 58.98 21.3453 57.2947 23.7606 57.2947H44.8598C44.8649 57.3062 44.8706 57.3175 44.8759 57.329C44.8946 57.3705 44.9145 57.4116 44.9339 57.4529C44.9618 57.5121 44.9897 57.5712 45.0191 57.6299C45.6461 58.8835 46.5967 59.9877 47.7001 60.8474C47.7394 60.8781 47.7793 60.9082 47.8193 60.9383C47.8712 60.9775 47.9234 61.0164 47.9761 61.0548C48.0172 61.0847 48.0587 61.1142 48.1004 61.1437C48.1278 61.163 48.1547 61.183 48.1823 61.2021H18.8929V61.2021ZM58.9994 61.2021C59.006 61.1974 59.0122 61.1927 59.0188 61.188C59.0854 61.1405 59.1507 61.0933 59.2138 61.0462C59.2209 61.0409 59.2278 61.0357 59.2348 61.0304C59.301 60.9809 59.3657 60.9317 59.4278 60.8832C59.5485 60.7882 59.6596 60.6971 59.7684 60.6039C59.8424 60.5403 59.9152 60.4755 59.987 60.4096C60.0117 60.387 60.0356 60.3635 60.0601 60.3406C60.1069 60.2968 60.1539 60.253 60.1998 60.2081C60.2268 60.1817 60.2531 60.1545 60.2798 60.1277C60.322 60.0854 60.3645 60.0433 60.406 60.0001C60.4333 59.9717 60.4598 59.9427 60.4866 59.914C60.5203 59.8779 60.5546 59.8424 60.5878 59.8058C60.8346 60.2428 61.0097 60.7139 61.1065 61.2022H58.9994V61.2021ZM59.8761 57.8144C59.5138 58.3423 59.0834 58.8221 58.597 59.2401C58.5087 59.3161 58.4169 59.3913 58.3197 59.4677C57.7725 59.8983 57.1392 60.2915 56.505 60.5813C56.4644 60.5999 56.4224 60.6172 56.381 60.6352C53.7626 61.7802 50.7669 61.0468 48.6185 59.2699C48.154 58.8857 47.7277 58.4544 47.3584 57.9776C47.0554 57.5864 46.3753 56.7748 46.3753 56.2547V49.9289C46.4156 49.9031 46.4547 49.876 46.4947 49.8497C46.5447 49.8167 46.5949 49.7839 46.6444 49.7501C46.7025 49.7106 46.7597 49.6701 46.8169 49.6296C46.8647 49.5958 46.9128 49.5623 46.9601 49.5278C47.0177 49.4857 47.0746 49.4426 47.1314 49.3995C47.1768 49.3651 47.2226 49.3311 47.2675 49.2961C47.3254 49.2509 47.3823 49.2046 47.4393 49.1584C47.4816 49.1241 47.5244 49.0903 47.5663 49.0555C47.6253 49.0063 47.6833 48.9558 47.7412 48.9056C47.7797 48.8723 47.8187 48.8396 47.8568 48.8058C47.9189 48.7506 47.9796 48.6941 48.0405 48.6378C48.073 48.6077 48.1062 48.5782 48.1384 48.5477C48.2111 48.4789 48.2823 48.4086 48.3531 48.3381C48.3722 48.319 48.3921 48.3005 48.411 48.2813C48.5012 48.1903 48.59 48.0978 48.6771 48.004C48.6785 48.0026 48.6797 48.0011 48.6811 47.9996C49.1415 47.5036 49.5714 46.9515 49.9411 46.3844C49.9809 46.3232 50.0208 46.2621 50.0597 46.2002C50.0885 46.1542 50.1164 46.1076 50.1446 46.0613C50.5324 45.4236 50.8768 44.7137 51.1372 44.0139C51.1613 43.9491 51.1848 43.8841 51.2077 43.8188C51.2267 43.7647 51.2456 43.7105 51.2639 43.6561C51.5304 42.8639 51.7123 42.0439 51.8064 41.2136C51.8125 41.1598 51.8192 41.1062 51.8246 41.0523C51.8499 40.797 51.8671 40.5404 51.8756 40.284C51.8798 40.1553 51.8821 40.0264 51.8821 39.8971C51.8821 39.8971 51.8821 34.5518 51.8821 34.5518C51.8979 34.4459 53.2557 33.7923 53.4471 33.6563C53.9553 33.2951 54.4743 32.9048 54.9067 32.4542C54.9281 32.4319 54.9494 32.4096 54.9705 32.3872C55.0541 32.2982 55.1367 32.208 55.2168 32.1157C55.2247 32.1066 55.2322 32.0972 55.2401 32.0881C55.2902 32.03 55.34 31.9715 55.3886 31.9122C55.5237 32.7386 55.5917 33.577 55.5917 34.4203V53.6947C55.5917 53.9348 55.6877 54.1649 55.8584 54.3337C56.0269 54.5003 56.254 54.5935 56.4906 54.5935C56.4938 54.5935 56.497 54.5935 56.5003 54.5934L61.1165 54.5437C60.9727 55.7164 60.5512 56.8327 59.8761 57.8144Z" fill="white"/>
<path d="M34.5079 34.0157C34.4962 33.9582 34.4792 33.9014 34.4568 33.8476C34.4343 33.7928 34.4064 33.7406 34.3741 33.6921C34.3409 33.6427 34.3032 33.5968 34.2617 33.5554C34.2204 33.5141 34.1745 33.4764 34.125 33.4439C34.0765 33.4117 34.0243 33.3837 33.9704 33.3613C33.9156 33.3388 33.8598 33.3218 33.8023 33.3101C33.6863 33.2867 33.5668 33.2867 33.4508 33.3101C33.3933 33.3218 33.3366 33.3388 33.2827 33.3613C33.2288 33.3837 33.1766 33.4117 33.1273 33.4439C33.0779 33.4763 33.0319 33.514 32.9905 33.5554C32.9492 33.5968 32.9115 33.6427 32.8791 33.6921C32.8468 33.7406 32.8188 33.7928 32.7964 33.8476C32.7739 33.9015 32.7569 33.9582 32.7453 34.0157C32.7336 34.0732 32.7273 34.1326 32.7273 34.191C32.7273 34.2493 32.7336 34.3088 32.7453 34.3672C32.7569 34.4238 32.7739 34.4805 32.7964 34.5353C32.8188 34.5892 32.8468 34.6414 32.8791 34.6899C32.9114 34.7393 32.9491 34.7852 32.9905 34.8265C33.0319 34.8679 33.0778 34.9056 33.1273 34.9389C33.1758 34.9713 33.2289 34.9991 33.2827 35.0216C33.3367 35.044 33.3933 35.0611 33.4508 35.0728C33.5084 35.0845 33.5677 35.0899 33.6261 35.0899C33.6854 35.0899 33.7439 35.0844 33.8023 35.0728C33.8598 35.0611 33.9156 35.044 33.9704 35.0216C34.0243 34.9991 34.0765 34.9713 34.125 34.9389C34.1744 34.9057 34.2204 34.8679 34.2617 34.8265C34.3031 34.7852 34.3408 34.7394 34.3741 34.6899C34.4064 34.6414 34.4343 34.5892 34.4568 34.5353C34.4792 34.4805 34.4962 34.4238 34.5079 34.3672C34.5197 34.3088 34.525 34.2493 34.525 34.191C34.525 34.1326 34.5196 34.0732 34.5079 34.0157Z" fill="white"/>
</g>
<defs>
<clipPath id="clip0">
<rect width="46" height="46" fill="white" transform="translate(17 17)"/>
</clipPath>
</defs>
</svg>
