<svg width="37" height="37" viewBox="0 0 37 37" fill="none" xmlns="http://www.w3.org/2000/svg">
<path fill-rule="evenodd" clip-rule="evenodd" d="M0 18.5C0 23.4065 1.9491 28.1121 5.41852 31.5815C8.88795 35.0509 13.5935 37 18.5 37C23.4065 37 28.1121 35.0509 31.5815 31.5815C35.0509 28.1121 37 23.4065 37 18.5C37 13.5935 35.0509 8.88795 31.5815 5.41852C28.1121 1.9491 23.4065 0 18.5 0C13.5935 0 8.88795 1.9491 5.41852 5.41852C1.9491 8.88795 0 13.5935 0 18.5ZM19.3186 24.6189C19.5357 24.836 19.6577 25.1305 19.6577 25.4375C19.6577 25.7445 19.5357 26.039 19.3186 26.2561C19.1015 26.4732 18.807 26.5952 18.5 26.5952C18.193 26.5952 17.8985 26.4732 17.6814 26.2561L10.7439 19.3186C10.6362 19.2112 10.5508 19.0836 10.4925 18.9432C10.4342 18.8027 10.4042 18.6521 10.4042 18.5C10.4042 18.3479 10.4342 18.1973 10.4925 18.0568C10.5508 17.9164 10.6362 17.7888 10.7439 17.6814L17.6814 10.7439C17.7889 10.6364 17.9165 10.5511 18.057 10.4929C18.1974 10.4347 18.348 10.4048 18.5 10.4048C18.652 10.4048 18.8026 10.4347 18.943 10.4929C19.0835 10.5511 19.2111 10.6364 19.3186 10.7439C19.4261 10.8514 19.5114 10.979 19.5696 11.1195C19.6278 11.2599 19.6577 11.4105 19.6577 11.5625C19.6577 11.7145 19.6278 11.8651 19.5696 12.0055C19.5114 12.146 19.4261 12.2736 19.3186 12.3811L14.3537 17.3438H25.4375C25.7442 17.3438 26.0383 17.4656 26.2551 17.6824C26.4719 17.8992 26.5938 18.1933 26.5938 18.5C26.5938 18.8067 26.4719 19.1008 26.2551 19.3176C26.0383 19.5344 25.7442 19.6562 25.4375 19.6562H14.3537L19.3186 24.6189Z" fill="#E3E3E3"/>
</svg>
