<svg width="37" height="37" viewBox="0 0 37 37" fill="none" xmlns="http://www.w3.org/2000/svg">
<path fill-rule="evenodd" clip-rule="evenodd" d="M37 18.5C37 23.4065 35.0509 28.1121 31.5815 31.5815C28.1121 35.0509 23.4065 37 18.5 37C13.5935 37 8.88795 35.0509 5.41852 31.5815C1.9491 28.1121 0 23.4065 0 18.5C0 13.5935 1.9491 8.88795 5.41852 5.41852C8.88795 1.9491 13.5935 0 18.5 0C23.4065 0 28.1121 1.9491 31.5815 5.41852C35.0509 8.88795 37 13.5935 37 18.5ZM17.6814 24.6189C17.4643 24.836 17.3423 25.1305 17.3423 25.4375C17.3423 25.7445 17.4643 26.039 17.6814 26.2561C17.8985 26.4732 18.193 26.5952 18.5 26.5952C18.807 26.5952 19.1015 26.4732 19.3186 26.2561L26.2561 19.3186C26.3638 19.2112 26.4492 19.0836 26.5075 18.9432C26.5658 18.8027 26.5958 18.6521 26.5958 18.5C26.5958 18.3479 26.5658 18.1973 26.5075 18.0568C26.4492 17.9164 26.3638 17.7888 26.2561 17.6814L19.3186 10.7439C19.2111 10.6364 19.0835 10.5511 18.943 10.4929C18.8026 10.4347 18.652 10.4048 18.5 10.4048C18.348 10.4048 18.1974 10.4347 18.057 10.4929C17.9165 10.5511 17.7889 10.6364 17.6814 10.7439C17.5739 10.8514 17.4886 10.979 17.4304 11.1195C17.3722 11.2599 17.3423 11.4105 17.3423 11.5625C17.3423 11.7145 17.3722 11.8651 17.4304 12.0055C17.4886 12.146 17.5739 12.2736 17.6814 12.3811L22.6463 17.3438H11.5625C11.2558 17.3438 10.9617 17.4656 10.7449 17.6824C10.5281 17.8992 10.4062 18.1933 10.4062 18.5C10.4062 18.8067 10.5281 19.1008 10.7449 19.3176C10.9617 19.5344 11.2558 19.6562 11.5625 19.6562H22.6463L17.6814 24.6189Z" fill="#D6D6D6"/>
</svg>
