<svg width="29" height="30" viewBox="0 0 29 30" fill="none" xmlns="http://www.w3.org/2000/svg">
<path d="M14.5 0.5C11.6322 0.5 8.82875 1.35041 6.44424 2.94369C4.05972 4.53697 2.20122 6.80156 1.10375 9.45109C0.00628257 12.1006 -0.280866 15.0161 0.27862 17.8288C0.838105 20.6415 2.2191 23.2252 4.24696 25.253C6.27482 27.2809 8.85847 28.6619 11.6712 29.2214C14.4839 29.7809 17.3994 29.4937 20.0489 28.3962C22.6984 27.2988 24.963 25.4403 26.5563 23.0558C28.1496 20.6713 29 17.8678 29 15C29 11.1544 27.4723 7.46623 24.753 4.74695C22.0338 2.02767 18.3456 0.5 14.5 0.5ZM19.9375 16.3594H9.0625C8.70198 16.3594 8.35621 16.2162 8.10128 15.9612C7.84635 15.7063 7.70313 15.3605 7.70313 15C7.70313 14.6395 7.84635 14.2937 8.10128 14.0388C8.35621 13.7838 8.70198 13.6406 9.0625 13.6406H19.9375C20.298 13.6406 20.6438 13.7838 20.8987 14.0388C21.1537 14.2937 21.2969 14.6395 21.2969 15C21.2969 15.3605 21.1537 15.7063 20.8987 15.9612C20.6438 16.2162 20.298 16.3594 19.9375 16.3594Z" fill="#534294"/>
</svg>
