<svg width="67" height="67" viewBox="0 0 67 67" fill="none" xmlns="http://www.w3.org/2000/svg">
<g clip-path="url(#clip0)">
<path d="M37.8874 12.5355C34.6817 9.33001 30.4199 7.56445 25.8864 7.56445C21.353 7.56445 17.0909 9.32988 13.8852 12.5355C7.26807 19.1529 7.26807 29.9201 13.8852 36.5376C17.0909 39.7431 21.3529 41.5087 25.8864 41.5087C30.4198 41.5087 34.6817 39.7432 37.8874 36.5376C41.0929 33.332 42.8584 29.0699 42.8584 24.5366C42.8584 20.0032 41.0929 15.7412 37.8874 12.5355ZM15.2521 13.9024C18.0925 11.0619 21.8693 9.49751 25.8863 9.49751C29.9033 9.49751 33.6799 11.0619 36.5203 13.9024C38.7622 16.1441 40.2083 18.9694 40.7185 22.0354L35.4503 27.1872C34.9513 26.9056 34.376 26.7443 33.7635 26.7443C32.571 26.7443 31.5183 27.3537 30.9 28.2772L23.1567 25.8475C23.157 25.8251 23.1584 25.8027 23.1584 25.7802C23.1584 23.8811 21.6133 22.3359 19.714 22.3359C17.8148 22.3359 16.2696 23.8811 16.2696 25.7802C16.2696 26.401 16.4356 26.9836 16.7242 27.4873L12.6614 31.6988C9.57866 25.9986 10.4414 18.713 15.2521 13.9024ZM35.275 30.1885C35.275 31.0218 34.5969 31.6999 33.7636 31.6999C32.9303 31.6999 32.2522 31.0218 32.2522 30.1885C32.2522 29.3552 32.9303 28.6771 33.7636 28.6771C34.5969 28.6771 35.275 29.3551 35.275 30.1885ZM21.2256 25.78C21.2256 26.6133 20.5474 27.2914 19.7141 27.2914C18.8807 27.2914 18.2026 26.6133 18.2026 25.78C18.2026 24.9467 18.8807 24.2686 19.7141 24.2686C20.5474 24.2687 21.2256 24.9467 21.2256 25.78ZM36.5204 35.1709C33.68 38.0113 29.9034 39.5757 25.8864 39.5757C21.8694 39.5757 18.0926 38.0114 15.2522 35.1709C14.6881 34.6067 14.1786 34.0082 13.723 33.3824L18.1153 28.8294C18.5934 29.0812 19.1373 29.2243 19.7141 29.2243C20.9067 29.2243 21.9593 28.6149 22.5776 27.6914L30.321 30.1211C30.3206 30.1435 30.3193 30.1659 30.3193 30.1884C30.3193 32.0875 31.8643 33.6327 33.7636 33.6327C35.6628 33.6327 37.208 32.0875 37.208 30.1884C37.208 29.6032 37.0607 29.0519 36.8023 28.5687L40.9254 24.5368C40.9253 28.5538 39.3609 32.3304 36.5204 35.1709Z" fill="#E5E5E5"/>
<path d="M17.3276 14.677L18.5957 16.1359C21.5929 13.5307 25.795 12.7275 29.563 14.0399L30.1989 12.2145C25.7787 10.6748 20.8467 11.6185 17.3276 14.677Z" fill="#534294"/>
<path d="M32.6796 13.3859L31.6741 15.0367C32.1856 15.3482 32.6766 15.7055 33.1333 16.0983L34.3939 14.6328C33.8576 14.1717 33.2808 13.7521 32.6796 13.3859Z" fill="#534294"/>
<path d="M28.1986 35.4129C26.0239 35.8713 23.7889 35.6784 21.7347 34.8555L21.0159 36.6497C22.5735 37.2738 24.2191 37.5891 25.8768 37.5891C26.7843 37.5891 27.6953 37.4945 28.5974 37.3044L28.1986 35.4129Z" fill="#534294"/>
<path d="M50.0975 40.0646L48.6942 41.4679L45.2125 37.7464C49.3333 31.7228 50.3253 24.1871 48.1876 17.4354L50.9499 14.7341C51.4358 14.9966 51.9915 15.1458 52.5815 15.1458C54.4807 15.1458 56.0259 13.6006 56.0259 11.7014C56.0259 11.139 55.8895 10.6081 55.6494 10.1386L61.5794 4.33978V7.33699H63.5123V1.07654H57.252V3.00947H60.1752L54.3234 8.73169C53.812 8.43059 53.2168 8.25694 52.5816 8.25694C50.6825 8.25694 49.1373 9.80213 49.1373 11.7013C49.1373 12.309 49.2961 12.8801 49.5736 13.3763L47.4565 15.4465C46.3169 12.7325 44.6454 10.1906 42.4388 7.98409C33.3116 -1.14297 18.4612 -1.14271 9.33409 7.98409C1.20365 16.1145 0.316026 28.7866 6.67044 37.9088L5.04307 39.5957C4.56491 39.3439 4.02106 39.2008 3.44423 39.2008C1.54506 39.2007 0 40.7458 0 42.645C0 44.5442 1.54506 46.0894 3.44436 46.0894C5.34365 46.0894 6.88871 44.5442 6.88871 42.645C6.88871 42.0241 6.72278 41.4416 6.43398 40.9379L7.85577 39.4641C8.31901 40.0228 8.81078 40.5655 9.33396 41.0888C13.8976 45.6523 19.892 47.934 25.8864 47.934C30.4879 47.934 35.089 46.5877 39.0433 43.8985L42.5332 47.6289L41.0819 49.0802L57.9843 65.9235L67.0001 56.9079L50.0975 40.0646ZM52.5816 10.19C53.4149 10.19 54.0931 10.8681 54.0931 11.7014C54.0931 12.5347 53.4149 13.2129 52.5816 13.2129C51.7482 13.2129 51.0702 12.5347 51.0702 11.7014C51.0702 10.8681 51.7482 10.19 52.5816 10.19ZM3.44436 44.1563C2.61104 44.1563 1.93293 43.4782 1.93293 42.6449C1.93293 41.8116 2.61104 41.1335 3.44436 41.1335C4.2778 41.1335 4.95579 41.8116 4.95579 42.6449C4.95565 43.4783 4.27767 44.1563 3.44436 44.1563ZM10.7008 39.7221C2.32747 31.3488 2.32747 17.7245 10.7008 9.35092C14.8874 5.1642 20.3868 3.0711 25.8863 3.0711C31.3858 3.0711 36.8853 5.16446 41.0719 9.35092C49.4452 17.7242 49.4452 31.3487 41.0719 39.7221C32.6988 48.0953 19.0738 48.0953 10.7008 39.7221ZM40.6055 42.739C41.2382 42.2267 41.8505 41.677 42.4388 41.0888C43.0073 40.5204 43.5401 39.9297 44.0377 39.3197L47.3268 42.8353L43.9008 46.2613L40.6055 42.739ZM57.9821 63.1923L43.8181 49.0777L50.1001 42.7956L64.2641 56.9101L57.9821 63.1923Z" fill="#E5E5E5"/>
<path d="M50.0991 45.6017L47.3333 48.3674L48.7002 49.7342L50.0991 48.3352L55.4337 53.6698L56.8004 52.3031L50.0991 45.6017Z" fill="#534294"/>
<path d="M58.4573 53.9568L57.0906 55.3236L58.523 56.7561L59.8898 55.3893L58.4573 53.9568Z" fill="#534294"/>
<path d="M12.4053 48.9242H10.4724V51.0301H12.4053V48.9242Z" fill="#534294"/>
<path d="M12.4053 60.7278H10.4724V62.8337H12.4053V60.7278Z" fill="#534294"/>
<path d="M28.3248 52.9858H26.3918V55.0916H28.3248V52.9858Z" fill="#534294"/>
<path d="M56.0259 35.6014H54.093V37.7074H56.0259V35.6014Z" fill="#534294"/>
<path d="M58.2188 18.829H56.2859V20.9349H58.2188V18.829Z" fill="#534294"/>
<path d="M64.6246 27.7101H62.6917V29.816H64.6246V27.7101Z" fill="#534294"/>
</g>
<defs>
<clipPath id="clip0">
<rect width="67" height="67" fill="white"/>
</clipPath>
</defs>
</svg>
