<svg width="32" height="32" viewBox="0 0 32 32" fill="none" xmlns="http://www.w3.org/2000/svg">
<circle cx="16" cy="16" r="15.75" stroke="#B1B1B1" stroke-width="0.5"/>
<path d="M23.6703 12.7212C23.486 12.0482 22.9455 11.5176 22.2602 11.3364C21.0081 11 15.9998 11 15.9998 11C15.9998 11 10.9917 11 9.73965 11.3236C9.06748 11.5047 8.51387 12.0483 8.32949 12.7212C8 13.9506 8 16.5 8 16.5C8 16.5 8 19.0623 8.32949 20.2788C8.51406 20.9517 9.0543 21.4823 9.73975 21.6635C11.0049 22 16 22 16 22C16 22 21.0081 22 22.2602 21.6764C22.9456 21.4952 23.486 20.9647 23.6705 20.2917C23.9999 19.0623 23.9999 16.5129 23.9999 16.5129C23.9999 16.5129 24.0131 13.9506 23.6703 12.7212ZM14.4053 18.8553V14.1447L18.5699 16.5L14.4053 18.8553Z" fill="#B1B1B1"/>
</svg>
